<svg width="33" height="32" viewBox="0 0 33 32" fill="none" xmlns="http://www.w3.org/2000/svg">
<path fill-rule="evenodd" clip-rule="evenodd" d="M16.5 3.07692C9.36154 3.07692 3.57692 8.86154 3.57692 16H0.5C0.5 7.13846 7.63846 0 16.5 0C25.3615 0 32.5 7.2 32.5 16H29.4231C29.4231 8.86154 23.6385 3.07692 16.5 3.07692Z" fill="#0930BC"/>
<path fill-rule="evenodd" clip-rule="evenodd" d="M16.5 14.5232L9.79231 27.0155C11.7615 28.2462 14.0385 28.9232 16.4385 28.9232C18.9 28.9232 21.1769 28.2462 23.1462 27.077L21.1154 23.2616H13.4846L14.3462 21.5386C14.7154 20.8001 15.5154 20.3078 16.3154 20.3078H19.5769L16.5 14.5232ZM3.57692 16.0001C3.57692 19.5693 4.99231 22.8309 7.39231 25.1693L13.9154 13.2309C14.4077 12.3078 15.3923 11.6309 16.5 11.6309C17.5462 11.6309 18.5923 12.2462 19.0846 13.2309L25.6077 25.1693C27.9462 22.8309 29.4231 19.5693 29.4231 16.0001H32.5C32.5 24.8616 25.3 32.0001 16.5 32.0001C7.63846 32.0001 0.5 24.8001 0.5 16.0001H3.57692Z" fill="#F6CD2E"/>
</svg>