<svg viewBox="0 0 188 182" fill="none" xmlns="http://www.w3.org/2000/svg">
<g filter="url(#filter0_d_711_426)">
<path fill-rule="evenodd" clip-rule="evenodd" d="M155.795 64.9959C157.488 84.0403 148.586 102.705 132.743 115.312C115.912 128.705 92.8641 138.348 71.588 132.003C51.6194 126.048 44.9647 105 37.948 87.0419C32.1718 72.2588 28.7402 56.3344 36.5549 42.3419C44.2045 28.6451 60.085 21.3052 76.5907 17.8513C93.16 14.384 110.403 15.4541 124.617 23.9144C140.744 33.514 154.245 47.5667 155.795 64.9959Z" fill="#427BFD"/>
</g>
<path fill-rule="evenodd" clip-rule="evenodd" d="M101.662 48.1336C99.8959 48.5808 98.3432 50.311 97.5785 52.6836C97.3396 53.4251 97.304 53.7127 97.2872 55.0441L97.2679 56.5603L94.7446 59.1828L92.2214 61.8053L92.0972 61.4983C91.9021 61.0164 91.1823 60.2717 90.6583 60.0094C89.978 59.669 88.9425 59.6706 88.2497 60.0131C87.516 60.3757 84.2277 63.7872 83.9148 64.5102C83.6113 65.2116 83.6038 66.3161 83.8981 66.9846C84.1505 67.5581 84.7624 68.2154 85.266 68.4537L85.6354 68.6285L84.6731 69.7327C82.5916 72.1213 81.2857 74.7612 80.6606 77.8446C80.4929 78.6724 80.4464 79.3897 80.4075 81.7604L80.3599 84.6628L78.2185 86.896C76.1824 89.0193 76.054 89.1327 75.6097 89.2017C74.8399 89.3213 73.5803 89.77 72.4896 90.3131C71.2269 90.9417 69.4648 92.1522 68.9492 92.7449C67.7644 94.107 67.68 96.1059 68.7452 97.5733C69.2886 98.3219 71.954 101.052 72.5005 101.419C73.8489 102.326 75.6986 102.156 76.9174 101.012C77.4803 100.484 78.6415 98.6552 79.2568 97.3278C79.7676 96.2259 80.2002 94.9184 80.3219 94.1088C80.3887 93.6633 80.5265 93.4947 82.5424 91.3911L84.6917 89.1483L87.0295 89.1477C89.4643 89.1471 90.6252 89.0289 92.1353 88.6278C93.2653 88.3276 93.5987 87.7818 93.0195 87.1802C92.7236 86.873 92.6751 86.8745 91.1456 87.2437C90.3954 87.4247 89.7388 87.489 88.1989 87.5322L86.2176 87.5878L87.4926 86.2309C88.1938 85.4846 88.8339 84.7744 88.9151 84.6529C89.0303 84.4802 89.2815 84.3932 90.0614 84.2553C91.1937 84.0553 91.9833 83.7996 93.0566 83.2853C94.6793 82.5077 94.9749 82.2346 101.423 75.5566L107.584 69.1746L108.206 69.7122C108.548 70.0078 109.101 70.4056 109.435 70.5961C109.769 70.7865 110.043 70.9677 110.043 70.9986C110.044 71.0296 107.153 74.0486 103.618 77.7076C96.9549 84.605 97.1464 84.4249 94.9906 85.8238C94.3657 86.2293 94.4149 86.9949 95.0828 87.2586C95.3064 87.3468 95.4544 87.3087 95.9665 87.0305C96.8904 86.5287 98.0115 85.6757 99.1285 84.6249L100.13 83.6832L100.298 84.0675C100.528 84.591 101.16 85.2267 101.713 85.489C102.378 85.8047 103.429 85.7919 104.101 85.4601C104.815 85.107 108.085 81.7107 108.424 80.9689C108.758 80.2411 108.762 79.1675 108.433 78.4646C108.174 77.9113 107.315 77.045 106.922 76.9427C106.69 76.8822 106.873 76.6659 109.229 74.2176L111.787 71.5582L112.83 71.6063C114.273 71.673 115.296 71.4498 116.598 70.7838C119.21 69.4485 120.453 67.1369 119.85 64.7344C119.496 63.3206 119.003 62.6816 117.179 61.2716C114.975 59.5679 113.484 58.2247 111.547 56.2006C109.598 54.1631 109.458 54.0749 108.973 54.5787C108.568 54.9992 108.647 55.2829 109.419 56.1923C111.031 58.0889 113.654 60.5212 116.256 62.5318C117.749 63.686 118.158 64.1831 118.383 65.1175C118.534 65.7432 118.457 66.6073 118.196 67.2195C117.588 68.6483 115.561 69.8946 113.643 70.0194C112.472 70.0956 111.584 69.9073 110.451 69.3425L109.486 68.8612L104.702 63.886C100.118 59.1183 99.9002 58.8742 99.4891 58.0394C98.2792 55.5819 98.633 52.6682 100.375 50.7432C101.262 49.7631 102.388 49.3773 103.51 49.6688C104.37 49.892 104.875 50.3253 105.833 51.6599C107.035 53.3345 107.169 53.4752 107.567 53.4752C107.938 53.4752 108.317 53.0792 108.317 52.691C108.317 52.389 106.298 49.5749 105.75 49.1134C104.599 48.1438 103.069 47.7772 101.662 48.1336ZM98.23 58.952C98.41 59.2926 98.7942 59.8657 99.0837 60.2256L99.61 60.8798L93.463 67.2831C87.1734 73.8352 86.8535 74.2046 86.0903 75.7973C85.6326 76.7522 85.2786 77.91 85.0876 79.0764C84.9533 79.8962 84.8695 80.1579 84.703 80.2778C84.5861 80.3621 83.9023 81.027 83.1839 81.7553L81.8775 83.0797L81.931 81.0216C82.0046 78.189 82.3595 76.592 83.3969 74.4253C84.423 72.2821 84.5288 72.1575 91.3907 65.0057C94.9135 61.3341 97.8197 58.3307 97.8491 58.3314C97.8784 58.332 98.0498 58.6113 98.23 58.952ZM90.2288 61.5796C90.6258 61.8806 90.8749 62.4872 90.792 62.9521C90.734 63.2779 90.4323 63.6468 88.9875 65.1579C88.0333 66.1561 87.1234 67.0283 86.9654 67.0962C86.3451 67.3631 85.4784 66.9046 85.2511 66.1892C85.0252 65.4784 85.1558 65.263 86.9655 63.358C87.8953 62.3792 88.7933 61.5121 88.961 61.431C89.3309 61.252 89.8815 61.3165 90.2288 61.5796ZM103.643 65.032L106.538 68.0399L103.999 70.6785L101.46 73.3172L98.5383 70.2835L95.6164 67.2499L98.1304 64.637C99.5131 63.1999 100.668 62.0241 100.697 62.0241C100.725 62.0241 102.051 63.3777 103.643 65.032ZM99.0971 75.7703L97.803 77.1174L94.8811 74.0837L91.9591 71.05L93.2532 69.7029L94.5473 68.3558L97.4692 71.3895L100.391 74.4231L99.0971 75.7703ZM93.7867 75.2689L96.6805 78.2761L95.7673 79.2368C95.2652 79.7653 94.5663 80.4269 94.2143 80.7071C93.045 81.638 91.347 82.4222 89.9092 82.6952L89.435 82.7853L89.3201 82.3115C88.9978 80.9817 88.0792 80.0493 86.8661 79.8202L86.4986 79.7508L86.5865 79.2517C86.8277 77.8818 87.5243 76.1589 88.2816 75.0585C88.6343 74.5461 90.7203 72.2617 90.8356 72.2617C90.8671 72.2617 92.1951 73.6149 93.7867 75.2689ZM106.588 78.5718C106.985 78.8728 107.234 79.4794 107.151 79.9444C107.093 80.2703 106.791 80.6396 105.342 82.155C103.449 84.1353 103.201 84.3051 102.52 84.0931C101.847 83.8837 101.371 83.0296 101.563 82.3765C101.658 82.0525 104.926 78.6138 105.32 78.4232C105.69 78.2442 106.24 78.3088 106.588 78.5718ZM86.7935 81.447C87.541 81.6626 88.0415 82.6126 87.8031 83.3631C87.7252 83.6078 86.4863 84.9649 83.678 87.8813L79.664 92.0496L78.623 90.9683L77.582 89.887L81.5949 85.7155C85.9454 81.1932 85.9372 81.1999 86.7935 81.447ZM77.5714 92.0937L78.88 93.4559L78.8099 93.9108C78.5341 95.7031 76.6281 99.3773 75.612 100.076C75.0926 100.433 74.3155 100.525 73.742 100.297C73.1246 100.052 69.7883 96.5608 69.6049 95.9676C69.4319 95.408 69.5402 94.5898 69.8521 94.1003C70.4429 93.1729 73.1609 91.547 75.1423 90.9357C76.1818 90.615 76.1251 90.5879 77.5714 92.0937Z" fill="white"/>
<defs>
<filter id="filter0_d_711_426" x="0" y="0" width="188" height="182" filterUnits="userSpaceOnUse" color-interpolation-filters="sRGB">
<feFlood flood-opacity="0" result="BackgroundImageFix"/>
<feColorMatrix in="SourceAlpha" type="matrix" values="0 0 0 0 0 0 0 0 0 0 0 0 0 0 0 0 0 0 127 0" result="hardAlpha"/>
<feOffset dy="16"/>
<feGaussianBlur stdDeviation="16"/>
<feComposite in2="hardAlpha" operator="out"/>
<feColorMatrix type="matrix" values="0 0 0 0 0.464167 0 0 0 0 0.680601 0 0 0 0 1 0 0 0 0.24 0"/>
<feBlend mode="normal" in2="BackgroundImageFix" result="effect1_dropShadow_711_426"/>
<feBlend mode="normal" in="SourceGraphic" in2="effect1_dropShadow_711_426" result="shape"/>
</filter>
</defs>
</svg>
