<svg width="65" height="64" viewBox="0 0 65 64" fill="none" xmlns="http://www.w3.org/2000/svg">
<path d="M60.8066 18.4057C60.8066 18.4057 57.9719 15.2928 52.508 11.338C50.4786 12.4633 52.4885 21.1669 38.1962 23.6017C28.4661 13.6286 8.06325 21.3345 7.63576 0C-2.94445 20.2988 -2.36404 30.4433 8.34861 34.246C4.92379 38.1823 3.02195 42.8765 2.27798 47.6214C4.52256 45.3201 10.0819 42.8044 18.6454 42.8746C20.4206 42.8892 22.2631 42.6437 24.1181 42.2266C12.6849 54.2233 27.354 65.9862 58.3916 63.717C44.9338 53.1789 56.0409 37.2284 47.5543 31.2919C51.7299 30.4034 56.038 31.8492 64.9598 29.3686C64.9598 29.3686 65.2675 25.8689 64.1798 22.7346L55.2541 21.62C55.2541 21.62 55.5773 19.5174 60.8066 18.4057Z" fill="#427BFD"/>
</svg>
