<svg width="104" height="68" viewBox="0 0 104 68" fill="none" xmlns="http://www.w3.org/2000/svg">
<path d="M12.3483 24.7001C10.8731 23.7607 7.1686 20.1945 6.43656 17.9418C29.5399 32.0215 37.8585 18.318 47.2862 12.6861C56.7138 7.05416 67.2507 7.9913 76.6784 4.04896C86.1061 0.106627 93.1269 2.54862 100.336 5.55156C100.336 5.55156 92.7165 8.73923 86.9047 13.4317C87.914 20.0819 101.102 41.5663 102 50.0437C94.6131 47.2277 91.0972 42.346 91.0972 42.346C91.6517 47.2277 91.0972 48.9173 91.0972 48.9173C85.9175 46.4775 81.6695 38.4036 81.6695 38.4036L80.638 40.7994C81.1371 47.669 81.7804 56.0011 81.8581 66C81.8581 66 77.7875 62.9971 75.9352 55.2994C75.9352 55.2994 74.4601 57.6467 73.3509 62.9971C73.3509 62.9971 51.7227 50.2306 52.4659 32.3978C52.4659 32.3978 49.8705 33.7111 44.7019 35.4007C44.7019 35.4007 43.7702 30.145 48.2067 22.0711C45.6224 20.9447 36.1948 25.2633 29.7285 28.6424C23.2511 32.0215 12.9028 29.5818 2.00001 26.3896C2.00001 26.3896 4.58428 24.3238 12.3483 24.7001V24.7001Z" stroke="#427BFD" stroke-width="3" stroke-miterlimit="10" stroke-linecap="round" stroke-linejoin="round"/>
</svg>
