<svg width="109" height="74" viewBox="0 0 109 74" fill="none" xmlns="http://www.w3.org/2000/svg">
<path d="M96.3053 53.826C96.3053 53.826 92.9824 56.383 86.0734 57.6309C80.4543 58.6465 70.7384 54.5999 59.8459 53.1907C62.9677 48.8023 66.8418 42.5807 67.884 37.4594C67.884 37.4594 60.3414 40.8925 55.5841 42.872C65.1778 28.6658 80.6168 23.1193 88.0079 0.693036C88.0079 0.693036 81.9287 -2.2606 49.1566 9.69355C20.1678 20.2683 26.3124 39.3706 27.7266 54.966C23.1817 56.0257 18.7531 57.4296 14.2474 59.1764C9.13942 61.1534 3.26577 64.733 0.56085 67.839C30.3725 76.4191 42.739 75.22 64.6675 67.581C86.608 59.9412 91.6702 68.1108 108.147 55.9403L96.3053 53.826Z" fill="#427BFD"/>
</svg>
