<svg width="110" height="83" viewBox="0 0 110 83" fill="none" xmlns="http://www.w3.org/2000/svg">
<path opacity="0.64" d="M14.0614 54.1147C14.0614 54.1147 17.1025 57.0012 23.8457 58.9557C29.3299 60.5461 39.4117 57.5243 50.3915 57.2472C47.7394 52.56 44.5285 45.9716 44.0206 40.7701C44.0206 40.7701 51.1685 44.9636 55.6959 47.4237C47.6203 32.3029 32.8364 25.192 27.8003 2.12243C27.8003 2.12243 34.152 -0.187752 65.5146 15.0862C93.2567 28.5975 85.1727 46.9633 82.1558 62.3293C86.567 63.8526 90.827 65.7063 95.1283 67.9089C100.005 70.4027 105.478 74.5697 107.847 77.9383C77.3091 83.3946 65.1325 80.925 44.1098 71.0628C23.0755 61.1985 17.1968 68.8017 2.06449 54.9951L14.0614 54.1147Z" stroke="#427BFD" stroke-width="3" stroke-miterlimit="10" stroke-linecap="round" stroke-linejoin="round"/>
</svg>
