<svg viewBox="0 0 188 182" fill="none" xmlns="http://www.w3.org/2000/svg">
<g filter="url(#filter0_d_711_420)">
<path fill-rule="evenodd" clip-rule="evenodd" d="M32.2048 85.0041C30.5116 65.9597 39.4143 47.2948 55.2569 34.6882C72.0877 21.2952 95.1359 11.6521 116.412 17.9971C136.381 23.9521 143.035 45.0001 150.052 62.9581C155.828 77.7412 159.26 93.6656 151.445 107.658C143.795 121.355 127.915 128.695 111.409 132.149C94.84 135.616 77.5967 134.546 63.3833 126.086C47.2557 116.486 33.7545 102.433 32.2048 85.0041Z" fill="#427BFD"/>
</g>
<path fill-rule="evenodd" clip-rule="evenodd" d="M93.4897 48.1288C92.9762 48.4166 92.9641 48.5162 92.9602 52.4984C92.9573 55.5218 92.9846 56.2786 93.1052 56.5145C93.4644 57.2169 94.5356 57.2169 94.8948 56.5145C95.0935 56.1259 95.1151 48.9946 94.9188 48.559C94.6904 48.0518 93.9985 47.8436 93.4897 48.1288ZM73.7318 56.1673C73.3388 56.3831 73.0994 56.8817 73.1868 57.3027C73.2871 57.7856 77.941 62.4925 78.4185 62.5939C79.1093 62.7406 79.7943 62.0467 79.6463 61.3504C79.593 61.0997 78.992 60.4191 77.2657 58.6547C75.1771 56.5197 74.5583 55.9935 74.1512 56.0064C74.0776 56.0087 73.8888 56.0811 73.7318 56.1673ZM113.346 56.1685C113.168 56.2574 111.988 57.3842 110.724 58.6725C108.251 61.1926 108.125 61.3773 108.447 62.0082C108.69 62.4823 109.171 62.7038 109.645 62.56C110.179 62.398 114.708 57.7897 114.812 57.3027C114.903 56.8723 114.658 56.3772 114.247 56.1623C113.868 55.9642 113.754 55.965 113.346 56.1685ZM91.7097 60.3447C87.2924 60.8112 82.2472 62.962 78.1561 66.1226C75.9422 67.833 73.3888 70.3259 71.6593 72.4657C70.4484 73.964 70 74.6482 70 74.9985C70 75.8049 73.4679 79.8594 76.2087 82.2572C78.5909 84.3413 80.7363 85.8012 83.3043 87.0855C88.519 89.6932 93.6894 90.3856 98.9828 89.1848C102.833 88.3115 107.058 86.1476 110.748 83.1595C113.632 80.8235 118 75.9083 118 74.9985C118 74.0887 113.632 69.1735 110.748 66.8376C104.708 61.9459 98.0495 59.6752 91.7097 60.3447ZM96.0348 62.4421C102.021 63.1187 108.334 66.6617 113.244 72.1C114.732 73.7474 115.621 74.8679 115.581 75.0447C115.515 75.3401 113.65 77.5057 112.212 78.9561C109.531 81.6609 106.786 83.6856 103.757 85.1933C97.1371 88.4879 90.8588 88.4853 84.2435 85.1854C81.15 83.6423 78.5069 81.6948 75.7889 78.9561C74.1512 77.3059 72.4522 75.2907 72.4522 74.9985C72.4522 74.7063 74.1512 72.6911 75.7889 71.0409C78.5074 68.3017 81.1728 66.337 84.2435 64.8093C88.2626 62.8097 92.2334 62.0125 96.0348 62.4421ZM92.316 65.6579C91.1964 65.8731 90.3752 66.2044 90.1676 66.5246C89.8845 66.9617 89.9597 67.502 90.3531 67.8577C90.7292 68.1975 90.9959 68.2003 92.1217 67.8757C95.3774 66.9371 98.9944 68.6051 100.51 71.7438C101.562 73.9242 101.562 76.0729 100.51 78.2532C99.5136 80.3164 97.5962 81.8077 95.3906 82.2345C93.7617 82.5497 92.3312 82.3461 90.7652 81.576C89.9365 81.1684 89.6267 80.9395 88.8762 80.1806C88.1312 79.4271 87.8958 79.1023 87.4913 78.2701C86.835 76.9195 86.6585 75.9805 86.7466 74.3075C86.8134 73.0399 86.8127 73.035 86.5434 72.7625C85.9934 72.2063 85.1549 72.3573 84.8439 73.0687C84.5687 73.6983 84.606 76.2546 84.9067 77.3731C85.8266 80.7944 88.4541 83.3875 91.8787 84.2541C92.955 84.5263 95.2477 84.4957 96.3478 84.1943C99.6534 83.2888 102.193 80.7204 103.093 77.3731C103.278 76.6876 103.32 76.2409 103.32 74.9985C103.32 73.7562 103.278 73.3094 103.093 72.624C102.192 69.2736 99.6162 66.6718 96.3478 65.8117C95.2483 65.5223 93.3905 65.4515 92.316 65.6579ZM87.2289 68.8137C86.3243 69.3208 86.7027 70.7771 87.7391 70.7771C88.2679 70.7771 88.7826 70.2616 88.7826 69.732C88.7826 68.9396 87.9168 68.428 87.2289 68.8137ZM93.021 70.8877C92.3607 71.0555 91.4209 71.618 90.9647 72.1186C90.7305 72.3757 90.3901 72.9033 90.2085 73.291C89.9095 73.9293 89.8783 74.0911 89.8783 75.004C89.8783 75.9554 89.9002 76.0568 90.268 76.8095C90.7374 77.7701 91.3415 78.3684 92.3117 78.8331C92.942 79.1352 93.1035 79.1672 94 79.1672C94.8965 79.1672 95.058 79.1352 95.6883 78.8331C96.6585 78.3684 97.2626 77.7701 97.732 76.8095C98.1002 76.056 98.1217 75.9563 98.1217 74.9985C98.1217 74.0408 98.1002 73.9411 97.732 73.1875C97.0269 71.7446 95.7742 70.8978 94.2347 70.8238C93.7899 70.8023 93.2438 70.8311 93.021 70.8877ZM95.1463 73.2437C95.7684 73.66 96.0348 74.1861 96.0348 74.9985C96.0348 75.8215 95.7679 76.3373 95.1165 76.7733C94.5344 77.1629 93.5153 77.1781 92.9234 76.806C92.1335 76.3094 91.7624 75.3233 92.0122 74.385C92.1558 73.8457 92.7944 73.1547 93.2916 73.0008C93.8387 72.8315 94.6987 72.9441 95.1463 73.2437ZM78.1807 88.5678C78.0026 88.6567 76.8227 89.7835 75.5584 91.0719C73.0856 93.5919 72.9595 93.7766 73.2822 94.4075C73.5245 94.8816 74.0053 95.1031 74.4798 94.9594C75.0141 94.7974 79.5429 90.1891 79.6463 89.702C79.7377 89.2716 79.4926 88.7766 79.0817 88.5616C78.7029 88.3635 78.5886 88.3643 78.1807 88.5678ZM108.897 88.5667C108.74 88.6529 108.537 88.8682 108.447 89.045C108.121 89.6827 108.239 89.8528 110.837 92.48C112.668 94.3317 113.332 94.9398 113.584 94.9932C114.274 95.1399 114.96 94.446 114.812 93.7497C114.758 93.4991 114.157 92.8185 112.431 91.054C110.342 88.919 109.724 88.3928 109.316 88.4057C109.243 88.408 109.054 88.4804 108.897 88.5667ZM93.4897 93.0868C92.9762 93.3746 92.9641 93.4743 92.9602 97.4564C92.9562 101.499 92.9735 101.634 93.5275 101.889C94.0629 102.136 94.6464 101.958 94.8948 101.473C95.0935 101.084 95.1151 93.9526 94.9188 93.517C94.6904 93.0098 93.9985 92.8016 93.4897 93.0868Z" fill="white"/>
<defs>
<filter id="filter0_d_711_420" x="0" y="0" width="188" height="182" filterUnits="userSpaceOnUse" color-interpolation-filters="sRGB">
<feFlood flood-opacity="0" result="BackgroundImageFix"/>
<feColorMatrix in="SourceAlpha" type="matrix" values="0 0 0 0 0 0 0 0 0 0 0 0 0 0 0 0 0 0 127 0" result="hardAlpha"/>
<feOffset dy="16"/>
<feGaussianBlur stdDeviation="16"/>
<feComposite in2="hardAlpha" operator="out"/>
<feColorMatrix type="matrix" values="0 0 0 0 0.464167 0 0 0 0 0.680601 0 0 0 0 1 0 0 0 0.24 0"/>
<feBlend mode="normal" in2="BackgroundImageFix" result="effect1_dropShadow_711_420"/>
<feBlend mode="normal" in="SourceGraphic" in2="effect1_dropShadow_711_420" result="shape"/>
</filter>
</defs>
</svg>
