<svg width="601" height="530" fill="none" xmlns="http://www.w3.org/2000/svg"><path d="M44.364 186.5c-1.6-5.6-.667-11.667 0-14 1-1 4-5.8 8-17 5-14 2-23 1-37s6.5-20 11-23 22.5-6.5 41-7 39-6 45-7 39.5-9.5 41-9.5 5 0 13 5.5c5.552 3.817 7.01 9.32 7.55 13.5l3.023 16.5a4356.609 4356.609 0 0 0 6.427 28l2.942 16c-.48.167-3.742.6-12.942 1s-10.5 6.833-10 10c0 6.5 6 9.5 11.5 8 4.4-1.2 11.422-2.5 14.382-3 1.52 8.271 2.769 15.081 3.118 17 .671 3.687 4.263 15.466 6.256 27.5-.585.167-4.056.7-13.256 1.5s-11.166 7-11 10c0 4.5 5 8 10 8 4 0 12-1.667 15.5-2.5-1 15.5-12.5 18-16.5 18.5s-21 1.5-25 11c-2.383 5.66-2.991 8.125-2.248 13 .259 1.695.681 3.681 1.248 6.194.086.339.166.694.242 1.064 1.995 9.78.341 30.409-21.242 42.742-22.4 12.8-44 .667-52-7-2.518-1.819-7.572-8.756-10.55-23a102.729 102.729 0 0 1-1.45-9c-3-25.5-33-40-52.5-48-2.262-1-7.01-3.4-7.894-5-2.03-5.543-2.606-11.589-2.606-14.5-4.4-1.2-6.5-4.833-7-6.5-1.5-7.5 2-10.5 4-12 1.6-1.2.666-7.167 0-10Z" fill="#C5C3BB"/><path fill-rule="evenodd" clip-rule="evenodd" d="M25 421.761c.167 2 1.6 6 6 6 5.334 2.333 16 9.2 16 18 0 2.365-.192 4.734-.5 7-.117.868-.212 1.615-.296 2.28-.516 4.059-.642 5.051-3.203 11.72-2.652 6.905-2.02 16.239 5 27 7.208 11.049 15.264 11.025 22.952 11.002l1.048-.002c6.4 0 19.333-.667 25-1 8.833-.667 31-3.6 49-10 5.56-1.977 11.395-4.106 17.172-6.215 17.603-6.425 34.675-12.656 41.828-13.785 9.5-1.5 30-1 37 1 2.557.731 7.516 1.728 13.316 2.895 10.08 2.027 22.702 4.566 29.684 7.105a951.97 951.97 0 0 1 5.221 1.921c9.506 3.516 19.136 7.079 23.779 7.079 5.5 0 16.5-2 23-20.5l.343-.978c.294-.838.589-1.678.887-2.522 6.185-17.512 13.748-36.729 43.27-70 25.2-28.4 14.167-43.833 5.5-48-4.5-1.333-15-5-21-9-3.845-2.563-5.718-5.52-7.373-8.131-1.572-2.482-2.946-4.651-5.627-5.869-.559-.254-1.274-.586-2.109-.978l-14.622-6.871c-5.695-2.632-10.874-4.919-12.269-5.151-3-.5-6.5-1.5-7-2l-19-8c-2.667-1.333-9.4-4.4-15-6a36.67 36.67 0 0 0-1.759-1l-17.241-6c-1.226-.919-3.427-2.439-5.501-3.57-4 12.235-31.499 49.309-38 57.809-7.5 8-19 12.5-22 12.5s-19-5-23-12.5-.5-14.5 2-19c2-3.6 19.676-22.5 28.264-31.5-3.653-2.942-7.363-7.396-9.437-13.739-.243-1.068-.471-2.065-.686-2.999l-.399-1.743c-.075-.37-.156-.725-.241-1.064l.241 1.064c1.995 9.78.341 30.409-21.241 42.742-22.4 12.8-44 .667-52-7-2.518-1.819-7.572-8.756-10.55-23-3.05 17.5-15.95 28-28.45 28-3.452 0-8.274-.715-13.5-1.775L44 310.5c1.667 3.833 5.6 12.2 8 15 2.4 2.8 15.667 11.217 22 15.076 4.39 3.852 8.168 8.685 10 15.185 5.5 19.5 2 34-10 47-10.027 10.864-16.214 10.554-24.105 10.159-1.551-.078-3.169-.159-4.894-.159-8.4 0-16.834 6-20.001 9Zm189.001-120.779C207.001 307.655 192.2 322.4 189 328l-.242.423c-3.934 6.877-8.087 14.137.242 17.077 8.5 3 14 3.5 20-1.5 4.8-4 11.667-13 14.5-17l16.5-20.5c2.688-4.159 8.065-13.33 8.065-16.739-2.121 1.184-4.501 2.864-7.064 5-6 5-10 7-14 7-.288 0-.668.01-1.128.023-2.412.065-7.011.19-11.872-.802Z" fill="#C5C3BB"/><path d="M41.019 316.761c-.834-2.167-1.6-6.6 2-7 2.999 1.5 4.5 6 9 14 2.61 4.641 11.447 8.104 19.48 14 1.2.88 2.38 1.814 3.52 2.815 4.39 3.852 8.167 8.685 10 15.185 5.5 19.5 2 34-10 47s-18.5 10-29 10c-8.4 0-16.833 6-20 9-.496-1.587-1.393-4.259-2.29-6.5-.612-1.526-1.223-2.852-1.71-3.5-1.2-1.6-3.166 0-4 1-10.4-3.6-11-18.167-10-25 4.4.4 7.167-1.833 8-3 1.054-2.574 2.403-6.364 1.867-6.733-.227-.157-.794.303-1.866 1.733-4.5 6-14.5 6-15-4s8.999-41 7.999-55c-.8-11.2 5.666-14 9-14 10.8.4 10.5 10.833 9 16l1.5-5c3.6-2.4 5.833-.333 6.5 1 2.4-2.8 5-2.5 6-2ZM50 306.761c2.5-6 7.6-22 8-38 .142-5.691-.133-11.13-.614-16-.872-8.821-2.42-15.779-3.386-19-.962-1.539-1.75-3.245-2.393-5 .884 1.6 5.631 4 7.894 5 19.5 8 49.5 22.5 52.5 48 .386 3.278.88 6.273 1.45 9-3.05 17.5-15.95 28-28.45 28-3.452 0-8.274-.715-13.5-1.775-9.914-2.01-21.28-5.261-27.501-7.225 3.6-.4 5.5-2.167 6-3Z" fill="#8C8D90"/><path fill-rule="evenodd" clip-rule="evenodd" d="M41.364 207.761c-1.5-7.5 2-10.5 4-12 4.833-3.667 15.8-9.8 21-5 5.2 4.8-9.834 17.667-18 23.5-4.4-1.2-6.5-4.833-7-6.5Zm67-45.5c-4.5-3.833-11.8-12.7-5-17.5 6.8-4.8 46.834-32.667 66-46 1.667-1.333 5.9-2.5 9.5 3.5 3.334-3.333 11.7-10.1 18.5-10.5 6.8-.4 13.2-1.167 15.55-1.5l4.297-.5c1.2 0 4.306.3 7.127 1.5 1.859.167 6.273.3 9.052-.5 1.791 1.667 4.632 6 1.673 10-2.247 0-7.287.4-9.47 2-1.117 1-3.74 3.1-5.29 3.5-1.098.167-3.507.5-4.366.5-2.857.167-9.773.8-14.573 2-4.8 1.2-10.336 6.167-12.505 8.5.907 1.307 1.611 2.343 2.005 3 1.5 2.5-.5 7-5.5 9.5-4 2-43.666 30.5-61 43-2.5 2.333-6 1.1-16-10.5Zm9-14.5c-2 3 3.5 12 7 11 1-3-2.5-12-7-11Zm25.5-18.5c-2 3 3.5 12 7 11 1-3-2.5-12-7-11Z" fill="#8C8D90"/><path d="M212.02 151.761c-9.2.4-10.5 6.833-10 10 0 6.5 6 9.5 11.5 8 4.4-1.2 11.421-2.5 14.382-3h4.922c1.444 0 4.223-2 5.432-3 1.788-1.6 7.23-2.667 9.728-3 .845 0 2.436-1 2.036-5-.4-4-2.94-5-4.16-5-5.327.8-9.54-.333-10.98-1-2.911-.8-5.12-1-5.86-1-1.6 1.2-3.373 1.833-4.059 2-.48.167-3.741.6-12.941 1ZM224.019 212.761c-9.2.8-11.166 7-11 10 0 4.5 5 8 10 8 4 0 12-1.667 15.5-2.5 2 0 5.639-.667 7.208-1 .966 0 3.294-1.667 4.338-2.5 1.718-2 7.521-2.833 10.208-3 .749-.167 2.146-1.5 1.746-5.5-.4-4-2.581-4.667-3.622-4.5-4.498.4-8.86-.5-10.479-1-2.082-.8-4.8-.667-5.899-.5-.8 0-3.496.667-4.744 1-.585.167-4.056.7-13.256 1.5ZM353.02 301.761c-4-2-3.5.5-4 3-.272 1.36-1.876 4.053-4.007 5.5-1.127 1.316-2.62 3.201-4.236 5.454a99.9 99.9 0 0 0-3.488 5.197c-3.087 4.932-6.019 10.639-7.269 15.849-3 12.5 14 14 17 6 1.63-4.347 3.26-9.581 4.891-14.978.661-2.191 1.323-4.409 1.985-6.605.708-2.35 1.416-4.675 2.124-6.917.5-2 4-7.5 4-9.5s-3-1-7-3ZM324.02 290.761c-.5-2-6.5-4-9-4-1.738 0-3.234 7.973-6 10.819-2.167 2.06-6.6 6.381-7 7.181-.5 1-8.5 13.5-8 20s11 11 16 5 8-16 8-16c.8-2 2-4.734 2.5-5.851.5-2.351-.5-6.149-.5-7.149s4.5-8 4-10ZM279.02 273.261c-3-.5-1.5 4.5-4.5 9.5-1.129 1.881-2.375 2.509-3.5 2.508-.667.497-2.2 1.892-3 3.492-.833 1-2.6 3.2-3 4-4.833 7-12 22-2 26s16.994-11.667 19.241-20c.592-1.6 1.419-4.053 1.759-5.079 0-.773.022-2.043.087-3.421.073-1.547.201-3.231.412-4.5.499-3 4.001-7 3.501-8.5-.5-1.5-6-3.5-9-4ZM158.02 365.761c-4 5.6-1 10.333 1 12 10.5 7 13.115-.438 19-7.5 7.5-9 6.5-8.5 10-13.631 1-3.369 3.5-7.587 5-9.565 1-1.195 1.5-2.304-2-5.304-2.8-2.4-5.281-.667-6.171.5-2.537 3.2-7.089 4.667-9.048 5-4.26 3.833-13.781 12.9-17.781 18.5Z" fill="#8C8D90"/><path d="M26.019 421.761c.166 2 1.6 6 6 6m-6-6c-.496-1.586-1.393-4.259-2.29-6.5m2.29 6.5c3.167-3 11.6-9 20-9 10.5 0 17 3 29-10s15.5-27.5 10-47c-1.833-6.5-5.61-11.333-10-15.185m-43 87.185c-.667.833-2 3-2 5m2-5c5.333 2.333 16 9.2 16 18 0 2.365-.192 4.734-.5 7m-17.5-20c-1-.667-3.4-.8-5 4-2 6-4 21-4 35s2.5 31.5 7 40c3.6 6.8 12.166 11.5 16 13 .333.5 1.2 2 2 4h24c.5-2 2.2-6 5-6s4.5 4 5 6h24c.5-1.667 2.2-5 5-5s5.166 3.333 6 5h29c.333-1.667 1.8-5 5-5s4.666 3.333 5 5h35c4.833-9.167 16-28.4 22-32 6-3.6 23 1 31 3l35 9c.5 2.167 2 6.8 4 8 2.5 1.5 11.5 5.5 17 4 1.333-1.333 4.6-4 7-4 3 0 9 2.5 10 4 .8 1.2 1.666 5.833 2 8h20c.5-1.667 2.4-5 6-5h8c1.5 0 4.6 1 5 5h25c.166-1.667 1-5 3-5h12c.666 0 2.6 1 5 5h30c.166-2 1.4-6.2 5-7 4.5-1 6.5-1 10-1 2.8 0 5.833 5.333 7 8l31-7c.166-2.667 1.2-8.2 4-9 3.5-1 8.5-3 13-3s6 6 8 6 18.5-5 19-6-.5-10.5 2-12 6.5-5 9-5 6.5 4 9 4c11.166-3.5 36-16.6 46-41s4.166-36.833 0-40m-564 17c3.667 2.167 10.322 5.606 11 13 .481 5.239-.019 9.739-4 21-3.435 9.718 2.56 24.647 6 30 4.5 7 12.001 14 22 14h33c8.334-.167 30.001-2.4 50.001-10 25-9.5 50.5-18.5 60-20s28.998-.5 33.999 0c5.001.5 27.501 4.5 78.001 23 4.666 0 16.2-.4 25-2 11-2 29-9 43-9s11.5 3 30 4 39 .5 49-1 36.5-6.5 51-15c12.532-7.346 19.088-11.705 27.093-20.5m48.906-44.5c1.166-10.833-4.8-35.2-38-46-5-1.667-17.4-5-27-5-12 0-28.5-.5-34-2s-19.5-3.5-21-5m120 58c-3.167 1.167-10.799 4.6-15.999 9-6.5 5.5-19 19-29 31a137.015 137.015 0 0 1-3.907 4.5m-71.094-102.5c-1.5-1.5-15-13-16-13s-3 3-3.5 3m19.5 10c-9.201 11.6-22.074 10.833-27.36 9m7.86-19c-.5 0-7.5-9-21.5-11m21.5 11c0 5.019-2.974 11.962-7.86 19m-13.64-30c-1-5.167-6.6-14-21-8m21 8a21.058 21.058 0 0 0-2.877-1m-18.123-7c-2.167-3.167-9-9.6-19-10m19 10c-3.582.978-8.717 5.423-12.999 9.759m-6.001-19.759c.166-5.333-3-14.6-17-9m17 9c2.5 3 7.201 11.151 6.001 19.759m-6.001-19.759c-2.717-1.539-5.41-2.117-7.999-2.01m-9.001-6.99c-1-1.5-4.2-4.6-9-5m9 5c-4.801.4-13.333 9.5-16.999 14m7.999-19c-2-7.667-9.6-20.6-24-11m24 11c.799 11.6-7 11.167-10.999 9.5m-13.001-20.5c-1.5-2.333-6.2-6.8-13-6m13 6c-2.833 3.833-7.599 12.4-3.999 16 2.051 2.052 4.207 1.713 5.992.5m-14.993-22.5c-1.667-6.667-8.4-17.8-22-9m22 9c2.399 20.8-5.667 17.333-9.999 13m9.999-13c-9.601-4.737-14-2.64-14.999-1m-7.001-8c-1.5-2-6.6-5.8-15-5m15 5c-3.167 4.167-8.299 13.7-3.499 18.5 1.829 1.829 3.286 1.567 4.5.319m-16.001-23.819c-.167-2-2.4-7.2-10-12m10 12c2.391 7.164 3.958 20.494-8.912 16.5m-1.088-28.5c-.334-2.167-.5-7 1.5-9m-1.5 9c-7.667 2.333-21.399 10-14.999 22 .618.706 1.732 1.506 3 1.508m13.499-32.508c2.5-2.5 15-13.5.5-16m-.5 16c-14.801 14-21.833 26.813-23.499 31.47m23.499-31.47a1424.632 1424.632 0 0 0-23.025 14.5m23.525-30.5c-.667-10.5-2.7-34.1-5.5-44.5m5.5 44.5c-4.001 6-6.333 7.167-6.999 7m6.999-7c-14.129-1.009-21.703-9.161-24.746-15m19.246-29.5c2.666-2.667 5.9-9.9-2.5-17.5m2.5 17.5c-15.187 4.781-20.223 12.972-21.122 19.5m18.622-37c.666-8-.6-28-11-44m11 44c-3.601 7.2-6.833 9-7.999 9m7.999-9c-16.497 1.269-25.277-7.023-29.035-14m18.035-30c3.166-3 7-10.6-3-17m3 17c-14.515 5.443-19.276 13.895-20.159 20m17.159-37c.833-8.833.2-29-9-39m9 39c-2.001 4.8-4.833 7.333-5.999 8m5.999-8c-8.124-.42-23.216-3.665-28.301-13m19.301-26c1.5-3.333 2.4-10.4-6-12m6 12c-8.264 0-19.9 2.108-20.974 16m14.974-28c-.334-13.167-5-43.8-21-61-18.667-1.5-59.6-1.8-74 9-14.4 10.8-4.999 27.5-10 60-15.667 4-57.6 12-100 12-5.667.5-15.8 7.2-11 30m216-50c-8.847 1.633-23.518 9.536-24.026 28.5m-191.974 21.5c6 28.5 11.5 35 13 59m-13-59c-.333-8.333 2.8-25 18-25 19 0 24 0 33-1s38.001-4.5 50.001-7.5 45-11 50-11.5 19.5-3.5 28 8c4.539 6.142 5.371 9.717 5.846 14m-171.847 82c-.667 2.333-1.6 8.4 0 14 .666 2.833 1.6 8.8 0 10m0-24c1-1 4-5.8 8-17 5-14 2-23 1-37s6.5-20 11-23 22.5-6.5 41.001-7c18.5-.5 39-6 45-7s39.5-9.5 41-9.5 5 0 13 5.5c5.552 3.817 7.01 9.32 7.549 13.5m-167.55 105.5c-2 1.5-5.5 4.5-4 12 .5 1.667 2.6 5.3 7 6.5m-3-18.5c4.833-3.667 15.8-9.8 21-5m-18 23.5c0 2.911.576 8.957 2.606 14.5m-2.606-14.5c8.167-5.833 23.2-18.7 18-23.5m-18 23.5C47.346 211.674 46.1 206.2 46.5 205m-3.481 104.761c3.6-.4 5.5-2.167 6-3 2.5-6 7.6-22 8-38 .142-5.691-.133-11.13-.615-16m-13.385 57c-3.6.4-2.834 4.833-2 7m2-7c2.999 1.5 4.5 6 9 14 2.61 4.641 11.447 8.104 19.48 14m-28.48-28c6.22 1.964 17.587 5.215 27.5 7.225m-29.5-.225c-1-.5-3.6-.8-6 2m6-2c3.344 6.392 6.768 15.535 8.667 26m-14.667-24c-.667-1.333-2.9-3.4-6.5-1l-1.5 5m8-4c-.992 3.638-3.034 11.912-5.344 23m-2.656-19c1.5-5.167 1.8-15.6-9-16-3.334 0-9.8 2.8-9 14 1 14-8.5 45-8 55s10.5 10 15 4c1.073-1.43 1.64-1.89 1.867-1.733m9.133-55.267-9.133 55.267m-1.866 6.733c-.834 1.167-3.6 3.4-8 3-1 6.833-.4 21.4 10 25 .833-1 2.8-2.6 4-1 .486.648 1.097 1.974 1.709 3.5m-7.71-30.5c1.054-2.574 2.403-6.364 1.867-6.733m-1.866 6.733c1.833.5 6.4-3.6 10-24a632.01 632.01 0 0 1 3.655-19m288.345-28c.5.5 4 1.5 7 2 1.395.232 6.574 2.519 12.269 5.151m-19.269-7.151c.8-2 2-4.734 2.5-5.851m-2.5 5.851s-3 10-8 16-15.5 1.5-16-5 7.5-19 8-20c.4-.8 4.833-5.121 7-7.181m-8.305 9.42c-2.666-1.333-11.095-5.639-16.695-7.239a36.76 36.76 0 0 0-1.76-1m-17.24-6c.4-.8 2.166-3 3-4m-3 4c-4.834 7-12 22-2 26s16.993-11.667 19.24-20m-17.24-6c-1.389-1.042-4.032-2.855-6.322-4m-20.178-60.5c-1 15.5-12.5 18-16.5 18.5s-21 1.5-25 11c-2.384 5.66-2.992 8.125-2.248 13m43.748-42.5c2 0 5.638-.667 7.207-1m-7.207 1c-3.5.833-11.5 2.5-15.5 2.5-5 0-10-3.5-10-8-.167-3 1.8-9.2 11-10 9.2-.8 12.67-1.333 13.256-1.5m-189.757 241.5c-.836 6.166-.519 6.239-3.5 14-2.651 6.905-2.019 16.239 5 27 7.536 11.553 16 11 24 11 6.4 0 19.334-.667 25-1 8.834-.667 31.001-3.6 49.001-10 22.5-8 49.5-18.5 59-20s30-1 37 1 32 6 43 10 23.5 9 29 9 16.5-2 23-20.5c.408-1.162.816-2.327 1.23-3.5m-291.73-17c3.833 1.167 15.1 3 29.5 1 18-2.5 38-9 56-12s24-5 47-5 55.5 4.5 63 6 53.5 11.5 67 16c10.8 3.6 23.987 8.833 29.23 11m0 0c6.184-17.512 13.747-36.729 43.27-70 25.2-28.4 14.166-43.833 5.5-48-4.5-1.333-15-5-21-9-7.5-5-7.5-11.5-13-14a195.34 195.34 0 0 1-2.11-.978m-12.66 141.978c1.826.827 4.508 1.921 7.77 3.085m198.093-12.585c-15.407 7.5-41.093 11.5-57.094 14.5-16.001 3-51.499 5.5-56.999 6s-35 .5-54-1c-10.765-.85-22.087-4.09-30-6.915m0 0c2.666-11.528 12.2-37.485 25-49.085 16-14.5 26.5-23 46-32 11.344-5.236 21.842-15.21 28.639-25m-217.639-218c-1.6-9.277-5.563-30.22-9.062-42.5m9.062 42.5c-1.6 1.2-3.373 1.833-4.059 2m4.059-2c.74 0 2.949.2 5.86 1m7.14 60.5-9.196-43.5m9.196 43.5c-.8 0-3.496.667-4.744 1m4.744-1c1.098-.167 3.817-.3 5.898.5m-53.146 60c4.201-13.2 19.916-17.5 27.248-18 5.166-.5 16.7-3.6 21.5-12 2.066-3.617 2.539-8.537 2.207-13.5m-50.955 43.5c.258 1.695.68 3.681 1.248 6.194m1.325 5.806c.214.943.439 1.941.675 3 1.24 5.582 4.211 9.241 7.84 11.632m-8.515-14.632c-.503-2.217-.947-4.128-1.325-5.806m1.325 5.806c1.868 2.646 6.926 6.535 15.59 8.251m55.085-2.251c-1.2-2-4.5-3.5-6-4-.327-.193-.661-.37-1-.53m7 4.53c.8-1.6 2.333-2.995 3-3.492m32.994 17.231c-3.999-3.2-12.994-6.072-16.494-6.739-.771-.675-2.003-1.382-3.5-2.079m75 30.079c1.219 1.721 3.388 4.33 6.196 7m-6.196-7a37.095 37.095 0 0 0-1.835-1 82.916 82.916 0 0 0-3.289-1.583m92.763 45.583c-2.8-1.147-6.071-2.484-9.639-3.939m-241-85.867c2.333 9.269 1.4 31.006-21 43.806-22.4 12.8-44 .667-52-7-2.518-1.819-7.572-8.756-10.551-23m-61.844-62c.643 1.755 1.431 3.461 2.394 5 .966 3.221 2.514 10.179 3.385 19m-5.779-24c.885 1.6 5.632 4 7.895 5 19.5 8 49.5 22.5 52.5 48 .385 3.278.879 6.273 1.449 9m0 0c-3.05 17.5-15.95 28-28.45 28-3.451 0-8.273-.715-13.5-1.775m-46.79 98.275c26.99-20.569 30.1-49.677 25.957-72.5m353.834 6.519c-3.728-1.49-7.28-2.902-10.5-4.171m10.5 4.171a5162.529 5162.529 0 0 1 24.5 9.881m-24.5-9.881c.813-1.357 1.936-2.928 3.327-4.519m-13.827.348a108 108 0 0 1 6-6.589m-6 6.589c-1.036-.408-2.038-.801-3-1.178m40.122-8.17c2.792 2.374 8.078 11.11 6.878 27.061m-6.878-27.061a18.688 18.688 0 0 0-6.122-.605m13 27.666c-2.841-1.158-5.87-2.39-9-3.661m-4-24.005c-7.223.488-13.259 5.127-17.173 9.605m17.173-9.605c2.109 3.665 5.385 11.494 5.08 18.605m-1.08 5.4c.669-1.69 1-3.52 1.08-5.4m-22.253-9c4.611-.333 15.518 1 22.253 9m-63.884-23c3.72 3.536 8.562 7.177 13.804 9 2.18.758 6.075 2.243 11 4.17m-24.804-13.17a35.688 35.688 0 0 1 2.804-3.849m0 0c3.949-4.751 10.111-9.877 17-10.161m-17 10.161c4.892-.05 16.359 1.849 23.088 9.849m-1.088 7.17c.463-1.85.896-4.369 1.088-7.17m-6.088-20.01c5.575 4.543 6.56 13.127 6.088 20.01m-35.088-22.5c.5-2 4-7.5 4-9.5s-3-1-7-3-3.5.5-4 3c-.273 1.36-1.877 4.053-4.008 5.5m11.008 4a550.438 550.438 0 0 0-2.124 6.917m-8.884-10.917c-1.127 1.316-2.619 3.201-4.235 5.454m-25.757-28.954c2.5 0 8.5 2 9 4s-4 9-4 10m-5-14c-1.738 0-3.234 7.973-6 10.819m11 3.181c0 1 1 4.798.5 7.149m0 0c.53.28 1.033.564 1.5.851a610.687 610.687 0 0 1 18.757 6.954m-56.757-22.033c-.34 1.026-1.167 3.479-1.76 5.079m1.76-5.079c0-.773.022-2.043.087-3.421m-13.087-4.992c1.125.001 2.371-.627 3.5-2.508 3-5 1.5-10 4.5-9.5s8.5 2.5 9 4-3.002 5.5-3.501 8.5c-.212 1.269-.339 2.953-.412 4.5m-27.087-168.5c-18.8-.4-28.5-10.833-31-16a61.236 61.236 0 0 1-.772-3m31.772 19c-7.79 4.236-20.959 14.838-22.14 28m34.14 34c-7.622-1.046-23.283-6.487-30.764-20m30.764 20c-6.908 4.145-18.993 14.474-21.102 27m30.102 33c-7.5-1.442-22.088-7.128-27.955-19m27.955 19c-14.528 8.483-40.97 26.088-65.085 47.251m45.763-2.251c-6.657 15.2-27.226 44.333-36.678 57-15.473 13.753-22.577 16.423-34 10.869m70.678-67.869 2.322-4.53m-35 7.528c2.496-.16 4.5.502 8-.998 3.941-2.898 11.687-7.182 19-7.774m-27 8.772-11 9.223m11-9.223c6.41-5.425 21.38-15.433 35.474-24.498m-46.474 33.721c5.789 1.181 11.205.779 13 .779 4 0 8-2 14-7 2.563-2.136 4.943-3.816 7.063-5m-34.063 11.221c-13.1 10.733-34.605 31.855-30.171 41.279m64.234-52.5c-1.521 4.333-7.763 16.7-20.563 31.5-14.843 17.161-19.359 30.02-35.5 25.804m56.063-57.304c.979-2.016 3.137-6.193 3.937-6.774m0 0c2.649-4.575 8.054-14.126 8.474-15.726m-195.475-76.5 42.001-28.5m-42 28.5L60.5 194m47.52-31.739c-4.5-3.833-11.8-12.7-5-17.5 6.8-4.8 46.833-32.667 66-46 1.666-1.333 5.9-2.5 9.5 3.5m-70.5 60c10 11.6 13.5 12.833 16 10.5 17.333-12.5 57-41 61-43 5-2.5 7-7 5.5-9.5-.395-.657-1.099-1.693-2.005-3m-9.995-15c3.333-3.333 11.7-10.1 18.5-10.5 6.8-.4 13.199-1.167 15.549-1.5m-34.049 12c3.317 5.53 7.451 11.331 9.995 15m24.054-27 4.297-.5m0 0c1.2 0 4.306.3 7.127 1.5m0 0c1.86.167 6.273.3 9.052-.5m0 0c1.791 1.667 4.632 6 1.673 10m0 0c-2.247 0-7.287.4-9.47 2m0 0c-1.117 1-3.74 3.1-5.29 3.5m0 0c-1.098.167-3.507.5-4.365.5m0 0a4225.89 4225.89 0 0 0 6.427 28l2.941 16m-9.368-44c-2.858.167-9.773.8-14.573 2-4.8 1.2-10.337 6.167-12.505 8.5m36.446 33.5c-.48.167-3.741.6-12.941 1-9.2.4-10.5 6.833-10 10 0 6.5 6 9.5 11.5 8 4.4-1.2 11.421-2.5 14.382-3m6.978-17c1.44.667 5.653 1.8 10.98 1m0 0c1.22 0 3.76 1 4.16 5 .4 4-1.191 5-2.036 5m0 0c-2.498.333-7.94 1.4-9.728 3m0 0c-1.209 1-3.988 3-5.432 3m0 0h-4.922m0 0c1.519 8.271 2.769 15.081 3.118 17 .67 3.687 4.262 15.466 6.256 27.5m10.642-.5c1.619.5 5.981 1.4 10.479 1m0 0c1.041-.167 3.223.5 3.623 4.5.4 4-.998 5.333-1.747 5.5m0 0c-2.687.167-8.49 1-10.208 3m0 0c-1.043.833-3.372 2.5-4.338 2.5m-69.926 120c-3.837-6.293-1.724-13.398.719-17.5 7.941-11.07 18.223-22.055 29.34-32.368m-30.059 49.868c-4.26 3.833-13.781 12.9-17.781 18.5-4 5.6-1 10.333 1 12 10.5 7 13.115-.438 19-7.5 7.5-9 6.5-8.5 10-13.631m-12.219-9.369c1.959-.333 6.511-1.8 9.048-5m0 0c.89-1.167 3.371-2.9 6.171-.5 3.5 3 3 4.109 2 5.304m0 0c-1.5 1.978-4 6.196-5 9.565M29.675 341.761l20.011 1m0 0c3.195.276 8.353.496 13.334.243m12-2.428c-.667-4.788-2.5-16.209-4.5-23.59m4.5 23.59a51.557 51.557 0 0 0-3.52-2.815m3.52 2.815c-.667 1.562-1.8 5.685-1 9.685 1 2.667 2.8 11 2 23-.8 12-3 14-8 14-3.5.333-10.2-2-9-14 1.5-15 1-20.5 3-22.5 1.6-1.6 1.333-5.838 1-7.757m7.5-26.018c-3.91-19.908-12.208-60.625-14.116-64.225m6.615 90.243c-.333-1.248-.5-3.943 1.5-4.743 2.5-1 6.309-1 6.98-.5m265.79-16.849c-3.087 4.932-6.019 10.639-7.269 15.849-3 12.5 14 14 17 6 1.63-4.347 3.26-9.581 4.89-14.978m-14.621-6.871a99.9 99.9 0 0 1 3.488-5.197m11.133 12.068c.662-2.191 1.324-4.409 1.986-6.605M205.86 297.393a350.337 350.337 0 0 1 7.075-6.381M142.52 129.261c-2 3 3.5 12 7 11 1-3-2.5-12-7-11Zm-25.5 18.5c-2 3 3.5 12 7 11 1-3-2.5-12-7-11Zm60-40c.5 0 6 7.5 6 8 0 .341-4.123 3.374-7.094 5.5.407 3.5-.906 3-1.906 2.5-1-.5-7-6.5-7-10 0-2.8 2.333-1.961 3.5-1.192 2.63-2.077 6.169-4.808 6.5-4.808Z" stroke="#000" stroke-width="2" stroke-linejoin="round"/><circle cx="155" cy="285" r="27" fill="#8C8D90" stroke="#000" stroke-width="2"/><circle cx="71" cy="479" r="12.25" fill="#8C8D90" stroke="#000" stroke-width="1.5"/><circle cx="67" cy="380" r="9" fill="#8C8D90" stroke="#000" stroke-width="2"/><circle cx="266" cy="311" r="9" fill="#8C8D90" stroke="#000" stroke-width="2"/><circle cx="165" cy="372" r="9" fill="#8C8D90" stroke="#000" stroke-width="2"/><circle cx="303" cy="324" r="9" fill="#8C8D90" stroke="#000" stroke-width="2"/><circle cx="338" cy="339" r="9" fill="#8C8D90" stroke="#000" stroke-width="2"/><circle cx="221" cy="222" r="9" fill="#8C8D90" stroke="#000" stroke-width="2"/><circle cx="211" cy="161" r="9" fill="#8C8D90" stroke="#000" stroke-width="2"/><circle cx="186" cy="107" r="9" fill="#8C8D90" stroke="#000" stroke-width="2"/><circle cx="152" cy="464" r="12.25" fill="#8C8D90" stroke="#000" stroke-width="1.5"/><circle cx="228" cy="457" r="12.25" fill="#8C8D90" stroke="#000" stroke-width="1.5"/><circle cx="312" cy="477" r="12.25" fill="#8C8D90" stroke="#000" stroke-width="1.5"/><circle cx="155" cy="285" r="13" fill="#8C8D90" stroke="#000" stroke-width="2"/><circle cx="71" cy="479" r="8.25" fill="#8C8D90" stroke="#000" stroke-width="1.5"/><circle cx="67" cy="380" r="4" fill="#8C8D90" stroke="#000" stroke-width="2"/><circle cx="266" cy="311" r="4" fill="#8C8D90" stroke="#000" stroke-width="2"/><circle cx="165" cy="372" r="4" fill="#8C8D90" stroke="#000" stroke-width="2"/><circle cx="303" cy="324" r="4" fill="#8C8D90" stroke="#000" stroke-width="2"/><circle cx="338" cy="339" r="4" fill="#8C8D90" stroke="#000" stroke-width="2"/><circle cx="221" cy="222" r="4" fill="#8C8D90" stroke="#000" stroke-width="2"/><circle cx="211" cy="161" r="4" fill="#8C8D90" stroke="#000" stroke-width="2"/><circle cx="186" cy="107" r="4" fill="#8C8D90" stroke="#000" stroke-width="2"/><circle cx="152" cy="464" r="8.25" fill="#8C8D90" stroke="#000" stroke-width="1.5"/><circle cx="228" cy="457" r="8.25" fill="#8C8D90" stroke="#000" stroke-width="1.5"/><circle cx="312" cy="477" r="8.25" fill="#8C8D90" stroke="#000" stroke-width="1.5"/><circle cx="47" cy="205" r="2" fill="#000"/><circle cx="60" cy="194" r="2" fill="#000"/></svg>