<svg viewBox="0 0 190 185" fill="none" xmlns="http://www.w3.org/2000/svg">
<g filter="url(#filter0_d_711_408)">
<path fill-rule="evenodd" clip-rule="evenodd" d="M68.6256 19.9196C87.5394 13.1834 108.678 16.2902 125.376 27.4238C143.116 39.2519 158.58 57.8147 157.38 79.0972C156.254 99.0717 136.528 110.913 120.028 122.247C106.446 131.577 91.1268 139.063 74.9992 135.685C59.2123 132.379 47.8507 119.778 40.2796 105.546C32.6792 91.2584 29.5185 75.1175 34.6053 59.7517C40.3771 42.3165 51.3159 26.0844 68.6256 19.9196Z" fill="#427BFD"/>
</g>
<path fill-rule="evenodd" clip-rule="evenodd" d="M100.754 51.2673C100.877 50.8233 101.368 50.2517 101.759 50.0971C102.143 49.9453 104.438 49.9799 104.758 50.1423C105.331 50.4337 105.551 50.7893 105.833 51.8831L106.105 52.9373L106.736 53.3192C107.084 53.5292 107.463 53.7032 107.579 53.706C107.695 53.7088 108.161 53.5955 108.614 53.4542C109.551 53.1617 109.926 53.1377 110.409 53.3396C110.847 53.5225 111.207 53.9136 111.69 54.7316C112.545 56.1804 112.455 56.7343 111.164 57.9406L110.371 58.6816L110.402 59.4753L110.432 60.269L112.969 60.3206C115.788 60.378 115.956 60.4161 116.688 61.1632C117.358 61.8477 117.455 62.2317 117.458 64.2177C117.46 65.8625 117.444 66.0142 117.249 66.2049C117.021 66.4274 116.612 66.4728 116.302 66.3103C115.974 66.1392 115.875 65.6153 115.875 64.0629V62.5711L115.515 62.2201L115.156 61.8691H113.606H112.056L112.143 62.1014C112.19 62.2291 112.221 62.5775 112.212 62.8756L112.195 63.4176H113.068C113.777 63.4176 113.972 63.4527 114.114 63.6056C114.274 63.7781 114.288 64.8464 114.29 76.5258C114.293 88.2754 114.279 89.2726 114.116 89.4484C113.946 89.6323 113.248 89.6389 94.0184 89.6389C75.6295 89.6389 74.082 89.6258 73.9037 89.4681C73.7251 89.3102 73.7104 89.0749 73.7104 86.3786V83.4599L73.9888 83.246C74.3513 82.9675 74.5828 82.9759 74.9461 83.281L75.2427 83.5299L75.2765 85.8102L75.3103 88.0904H94.0074H112.705V76.5283V64.9661H111.925C111.328 64.9661 111.111 65.0062 111 65.1373C110.807 65.3652 110.077 65.6837 109.74 65.6865C109.592 65.6877 109.037 65.5559 108.507 65.3936L107.544 65.0985L106.812 65.5178L106.08 65.937L105.847 66.9465C105.655 67.7758 105.552 68.0203 105.267 68.3152C105.076 68.5127 104.79 68.7227 104.631 68.7816C104.188 68.9463 102.078 68.9184 101.735 68.7433C101.141 68.44 100.881 68.0436 100.642 67.0776C100.517 66.5692 100.4 66.0983 100.383 66.031C100.366 65.9637 100.013 65.7258 99.5992 65.5023L98.8458 65.096L97.876 65.4015C96.722 65.7652 96.2834 65.7423 95.6168 65.2832C95.1903 64.9895 95.09 64.9661 94.2611 64.9661C93.7688 64.9661 93.3681 65.001 93.3706 65.0435C93.3731 65.0861 93.4342 65.3986 93.5065 65.7378L93.6377 66.3545L94.3629 66.7615C95.0537 67.1492 95.1086 67.1628 95.5215 67.0495C97.0608 66.6269 97.2531 66.5907 97.6112 66.6564C98.2739 66.7778 98.6484 67.1231 99.2482 68.1658C100.101 69.6475 99.9918 70.294 98.7019 71.4071L98.0157 71.9993V72.8575V73.7158L98.7069 74.3086C99.9347 75.3617 100.084 76.0143 99.3908 77.3C98.8047 78.3871 98.5734 78.6639 98.0405 78.9158C97.4944 79.1741 97.082 79.1448 95.9368 78.7662L95.1788 78.5156L94.4249 78.9223C94.0104 79.146 93.6536 79.384 93.6322 79.4513C93.6109 79.5186 93.5159 79.9304 93.4212 80.3665C93.229 81.2522 92.9518 81.7266 92.4231 82.0746C92.1007 82.2869 91.9433 82.3093 90.7769 82.3093C89.6134 82.3093 89.453 82.2866 89.1379 82.0771C88.5961 81.7169 88.4199 81.4065 88.1563 80.3479L87.9119 79.3672L87.195 78.9363C86.4812 78.5071 86.4764 78.506 86.0457 78.6544C83.9277 79.3844 83.2979 79.201 82.3373 77.5741C81.4701 76.1053 81.5412 75.6171 82.7968 74.4199L83.6438 73.6123V72.853V72.0939L82.8553 71.3569C81.5829 70.1676 81.4809 69.5986 82.2934 68.2204C83.246 66.6048 83.7908 66.3695 85.4099 66.8746C85.8625 67.0158 86.328 67.1292 86.4442 67.1264C86.5605 67.1236 86.9408 66.9489 87.2894 66.7381C87.8725 66.3856 87.933 66.3139 88.0454 65.8412C88.1126 65.5586 88.1721 65.2462 88.1777 65.1468C88.1872 64.9765 87.8144 64.9661 81.7442 64.9661H75.3006L75.2716 72.8725L75.2427 80.7788L74.9461 81.0279C74.5768 81.3382 74.325 81.3427 73.9871 81.0447L73.7238 80.8125L73.6906 72.3326C73.6586 64.1144 73.6638 63.8461 73.8588 63.6352L74.0602 63.4176H84.1708H94.2816L94.2346 62.8646C94.2082 62.5534 94.2407 62.2149 94.3089 62.0903L94.4301 61.8691H83.637H72.8438L72.4845 62.2201L72.1252 62.5711V76.5283V90.4854L72.4845 90.8364L72.8438 91.1874H94H115.156L115.515 90.8364L115.875 90.4854V79.8155C115.875 73.2891 115.914 69.0112 115.976 68.7993C116.159 68.1765 116.779 67.9674 117.229 68.3768L117.46 68.5873L117.463 78.3131C117.465 83.6622 117.482 88.3872 117.501 88.813C117.534 89.5614 117.44 90.5791 117.294 91.0584L117.224 91.2906H118.767H120.31L120.655 91.592L121 91.8933V93.6309C121 95.6241 120.907 95.9479 120.089 96.8152C119.529 97.4092 118.853 97.7534 117.974 97.8927C117.05 98.0391 111.144 98.0343 110.71 97.8868C110.185 97.708 109.996 97.1357 110.318 96.7043C110.46 96.5145 110.663 96.5011 114.202 96.4482C118.112 96.3898 118.303 96.3672 118.821 95.9034C119.294 95.4799 119.463 94.9412 119.465 93.8457L119.468 92.8392H109.598H99.7291L99.6137 93.4789C99.4794 94.2236 99.1181 94.7273 98.4856 95.0514C98.0848 95.2568 97.9099 95.2651 94 95.2651C90.0901 95.2651 89.9152 95.2568 89.5144 95.0514C88.8819 94.7273 88.5206 94.2236 88.3863 93.4789L88.2709 92.8392H78.4016H68.5323L68.5346 93.8457C68.5372 94.9412 68.7058 95.4799 69.1788 95.9034C69.2301 95.9494 69.2693 95.9911 69.3118 96.0289C69.7524 96.4207 70.5586 96.4014 88.9804 96.4262L107.896 96.4518L108.081 96.6699C108.324 96.9559 108.316 97.4014 108.064 97.7055L107.862 97.9492L89.3332 97.9775C76.8359 97.9967 70.5696 97.9708 70.0832 97.898C69.1621 97.7602 68.4835 97.4219 67.911 96.8152C67.0927 95.9479 67 95.6241 67 93.6309V91.8933L67.3451 91.592L67.6903 91.2906H69.2209C70.0998 91.2906 70.7515 91.2496 70.7515 91.1941C70.7515 91.1411 70.7096 90.99 70.6585 90.8586C70.6073 90.7272 70.5479 84.3017 70.5264 76.5799L70.4873 62.5401L70.7304 62.024C71.0485 61.3489 71.5253 60.869 72.1781 60.567L72.7065 60.3227L84.3571 60.3216L96.0078 60.3206V59.4519V58.5831L95.3129 57.9871C93.9023 56.7772 93.8681 56.0726 95.1268 54.1461C95.382 53.7557 95.6134 53.5409 95.9313 53.3999C96.5213 53.1383 96.8468 53.1475 97.8571 53.454C98.3221 53.5951 98.7739 53.7104 98.8611 53.71C98.9482 53.7098 99.3245 53.5361 99.6973 53.3242C100.369 52.9419 100.376 52.9333 100.505 52.3196C100.576 51.9791 100.688 51.5056 100.754 51.2673ZM104.412 52.7073C104.315 52.2672 104.212 51.8257 104.183 51.7264C104.138 51.5728 103.998 51.5458 103.246 51.5458C102.759 51.5458 102.34 51.5805 102.314 51.6232C102.288 51.6658 102.183 52.0722 102.082 52.5265C101.785 53.857 101.66 54.0132 100.267 54.7906C99.2257 55.3715 98.7811 55.4082 97.6009 55.0105C97.1693 54.865 96.7633 54.746 96.6987 54.746C96.5667 54.746 95.7948 56.005 95.7995 56.2125C95.8012 56.286 96.1097 56.6016 96.4851 56.9139C97.4423 57.7102 97.593 58.0521 97.593 59.4274C97.593 60.1318 97.5402 60.6569 97.4479 60.873C97.3681 61.0595 96.9643 61.511 96.5507 61.8762C96.137 62.2414 95.7981 62.6037 95.7975 62.6814C95.7964 62.8345 96.4921 63.9982 96.637 64.0857C96.6856 64.1151 97.1928 63.9985 97.7639 63.8268C98.4633 63.6164 98.9068 63.5359 99.1223 63.5801C99.5156 63.6607 100.864 64.3727 101.296 64.7274C101.727 65.0814 101.822 65.2802 102.079 66.3598L102.3 67.2889L103.213 67.3186L104.125 67.3482L104.301 66.5443C104.598 65.1934 104.802 64.8918 105.836 64.2779C106.33 63.9845 106.95 63.6918 107.214 63.6274C107.648 63.5218 107.792 63.5412 108.689 63.8253C109.237 63.9985 109.72 64.1402 109.763 64.1402C109.806 64.1402 110.041 63.807 110.285 63.3997L110.727 62.6594L109.877 61.8771C108.902 60.98 108.796 60.7412 108.796 59.4431C108.796 58.1438 108.901 57.9067 109.882 57.0046L110.737 56.218L110.289 55.4819C110.043 55.0772 109.802 54.746 109.754 54.746C109.706 54.746 109.22 54.8795 108.675 55.0427C108.078 55.2217 107.551 55.3198 107.348 55.2899C106.824 55.2131 105.076 54.2084 104.816 53.834C104.691 53.6544 104.509 53.1474 104.412 52.7073ZM98.9641 58.7951C99.2468 57.2091 100.402 55.9005 101.956 55.4063C102.242 55.315 102.759 55.2756 103.405 55.2954C104.241 55.321 104.509 55.3733 105.011 55.6085C105.936 56.0429 106.614 56.7015 107.076 57.6135C107.456 58.3661 107.474 58.4452 107.474 59.4431C107.474 60.4395 107.456 60.521 107.079 61.2662C106.604 62.2059 105.992 62.7911 105.009 63.2457C104.356 63.548 104.22 63.5725 103.194 63.5725C102.159 63.5725 102.038 63.5502 101.389 63.2404C99.6799 62.4232 98.6529 60.5407 98.9641 58.7951ZM93.7436 68.2136C92.38 67.4533 92.2269 67.2437 91.8602 65.6371L91.7189 65.0177L90.8071 64.988C90.32 64.9721 90.0859 64.9408 89.9471 65.0412C89.79 65.1549 89.755 65.4372 89.6134 66.1017C89.3769 67.2106 89.1393 67.5032 87.9523 68.1455C86.7546 68.7937 86.4133 68.8289 85.1805 68.4318C84.7178 68.2828 84.2842 68.1815 84.2169 68.2067C84.1495 68.232 83.9148 68.5664 83.6953 68.9499L83.2961 69.6471L84.1489 70.4294C84.6693 70.9069 85.0357 71.3324 85.0888 71.5214C85.2009 71.919 85.2023 73.8039 85.091 74.1951C85.0417 74.368 84.6455 74.83 84.1523 75.2896L83.299 76.085L83.6914 76.7702C83.9072 77.1471 84.1262 77.4812 84.1782 77.5126C84.2302 77.544 84.7417 77.4244 85.3149 77.247C86.5604 76.8613 86.7231 76.8846 88.0822 77.6443C89.1082 78.2178 89.3907 78.5525 89.5635 79.3994C89.6295 79.7223 89.7297 80.1626 89.7862 80.3776L89.889 80.7687L90.804 80.7389L91.7189 80.7092L91.8613 80.0898C92.1762 78.7217 92.2284 78.5951 92.6197 78.2497C93.0817 77.8419 94.4493 77.0932 94.9012 77.0005C95.1167 76.9563 95.5602 77.0368 96.2595 77.2472C96.8307 77.4189 97.3397 77.5343 97.3905 77.5036C97.525 77.4224 98.2272 76.2294 98.2261 76.0839C98.2255 76.016 97.9214 75.705 97.5501 75.3927C96.5275 74.5326 96.4305 74.3139 96.4305 72.8701C96.4305 71.4132 96.4898 71.2755 97.5283 70.3218L98.2798 69.6314L98.0157 69.1524C97.8704 68.889 97.6531 68.5527 97.5328 68.4052L97.3141 68.1369L96.4362 68.4226C95.1933 68.8269 94.7873 68.7955 93.7436 68.2136ZM88.2354 76.2348C85.4746 74.1964 86.1175 70.0593 89.3786 68.8786C89.8146 68.7207 90.1454 68.6849 90.9438 68.7091C91.8337 68.7363 92.0392 68.78 92.644 69.0709C94.3229 69.8784 95.3054 71.665 95.0535 73.4529C94.8658 74.7852 93.9019 76.0603 92.634 76.6538C91.2561 77.2986 89.4422 77.1259 88.2354 76.2348ZM93.2646 71.7367C92.9772 71.1566 92.2494 70.5145 91.6955 70.3524C89.8438 69.8104 88.0868 71.0329 88.0868 72.8635C88.0868 73.9147 88.6229 74.7615 89.5849 75.2298C90.9687 75.9035 92.7378 75.2542 93.3392 73.8517C93.5789 73.2927 93.5439 72.3002 93.2646 71.7367ZM97.7446 93.6676C97.9648 93.5857 98.0157 93.4986 98.0157 93.203V92.8392H94H89.9843V93.203C89.9843 93.4986 90.0352 93.5857 90.2554 93.6676C90.4116 93.7256 91.9988 93.7683 94 93.7683C96.0012 93.7683 97.5884 93.7256 97.7446 93.6676ZM105.897 59.9499C106.138 58.6974 105.447 57.469 104.222 56.9687C103.785 56.7903 102.789 56.7766 102.261 56.9417C101.715 57.1123 100.913 57.8789 100.693 58.4395C100.504 58.9229 100.445 59.9652 100.594 60.2003C100.883 61.3245 101.919 61.8501 102.401 61.9723C102.517 62.0212 102.898 62.061 103.247 62.061C103.595 62.061 103.976 62.0212 104.092 61.9723C104.612 61.862 105.687 61.3771 105.826 60.3206L105.897 59.9499Z" fill="white"/>
<defs>
<filter id="filter0_d_711_408" x="0.126587" y="0.38562" width="189.319" height="184.125" filterUnits="userSpaceOnUse" color-interpolation-filters="sRGB">
<feFlood flood-opacity="0" result="BackgroundImageFix"/>
<feColorMatrix in="SourceAlpha" type="matrix" values="0 0 0 0 0 0 0 0 0 0 0 0 0 0 0 0 0 0 127 0" result="hardAlpha"/>
<feOffset dy="16"/>
<feGaussianBlur stdDeviation="16"/>
<feComposite in2="hardAlpha" operator="out"/>
<feColorMatrix type="matrix" values="0 0 0 0 0.464167 0 0 0 0 0.680601 0 0 0 0 1 0 0 0 0.24 0"/>
<feBlend mode="normal" in2="BackgroundImageFix" result="effect1_dropShadow_711_408"/>
<feBlend mode="normal" in="SourceGraphic" in2="effect1_dropShadow_711_408" result="shape"/>
</filter>
</defs>
</svg>
