<svg width="855" height="813" viewBox="0 0 855 813" fill="none" xmlns="http://www.w3.org/2000/svg">
<path fill-rule="evenodd" clip-rule="evenodd" d="M587.105 73.2978C671.484 105.196 775.004 114.039 824.005 189.812C873.059 265.668 847.49 364.863 833.389 454.144C820.596 535.144 801.995 617.292 746.899 678.021C693.348 737.046 614.327 759.7 537.402 780.39C459.855 801.248 377.471 827.482 303.041 797.404C228.898 767.442 195.844 686.238 147.231 622.717C92.898 551.721 6.33362 494.087 2.52177 404.72C-1.36646 313.563 69.3677 238.927 127.874 168.907C185.903 99.4604 247.634 23.8364 336.184 5.40076C423.164 -12.7081 504.022 41.8901 587.105 73.2978Z" stroke="#0067FF" stroke-opacity="0.12" stroke-width="3" stroke-linecap="round" stroke-linejoin="round" stroke-dasharray="12 0"/>
</svg>
