<svg viewBox="0 0 188 182" fill="none" xmlns="http://www.w3.org/2000/svg">
<g filter="url(#filter0_d_711_414)">
<path fill-rule="evenodd" clip-rule="evenodd" d="M83.4872 16.1949C103.5 14.5836 123.114 23.0555 136.362 38.1316C150.436 54.148 160.569 76.0809 153.901 96.3275C147.644 115.33 125.525 121.663 106.654 128.34C91.1194 133.837 74.3853 137.102 59.6814 129.666C45.288 122.386 37.575 107.274 33.9454 91.5669C30.3019 75.7994 31.4264 59.3904 40.3168 45.8647C50.4045 30.5175 65.1717 17.6696 83.4872 16.1949Z" fill="#427BFD"/>
</g>
<path fill-rule="evenodd" clip-rule="evenodd" d="M89.8244 48.1007C89.6629 48.1583 89.4742 48.346 89.398 48.5248C89.2786 48.8055 89.2889 48.8816 89.4799 49.1318C89.7437 49.4772 90.2847 49.561 90.6689 49.3162C91.0488 49.0739 91.0373 48.5005 90.6464 48.2012C90.3292 47.9583 90.2504 47.9488 89.8244 48.1007ZM97.4996 48.1148C96.7969 48.4676 97.0541 49.384 97.8747 49.4514C98.3947 49.4941 98.7009 49.2447 98.7009 48.779C98.7009 48.2083 98.0406 47.8433 97.4996 48.1148ZM82.1753 50.421C81.7959 50.7903 81.7798 50.9455 82.0824 51.3197C82.5287 51.872 83.4964 51.5512 83.4964 50.8509C83.4964 50.4626 83.1539 50.1098 82.777 50.1098C82.6112 50.1098 82.3633 50.238 82.1753 50.421ZM104.767 50.3711C104.476 50.6545 104.436 50.8616 104.611 51.1802C104.763 51.4562 105.313 51.7213 105.558 51.6366C106.282 51.3857 106.36 50.6009 105.694 50.2655C105.263 50.0484 105.077 50.0696 104.767 50.3711ZM91.6089 54.1671C90.3744 54.3287 88.4696 54.829 87.1688 55.3333C80.6437 57.8628 76.1152 63.9961 75.7672 70.7748C75.7018 72.0515 75.7098 72.128 75.9329 72.3452C76.062 72.4708 76.2906 72.5735 76.441 72.5735C76.728 72.5735 77.1508 72.2419 77.1538 72.0146C77.1622 71.3659 77.4027 69.2175 77.541 68.5561C77.9581 66.5608 78.8509 64.5198 80.1168 62.6674C80.9672 61.423 83.0772 59.3346 84.3638 58.4639C86.2144 57.2116 88.5225 56.2539 90.8252 55.7828C92.1457 55.5127 95.8286 55.5156 97.2171 55.7879C103.818 57.0822 108.906 61.9277 110.4 68.3427C110.66 69.4567 110.766 69.5926 111.38 69.5926C111.617 69.5926 111.766 69.5136 111.897 69.319C112.06 69.0774 112.065 68.9631 111.947 68.3374C111.733 67.208 111.089 65.3775 110.459 64.1097C107.95 59.061 103.304 55.5542 97.5524 54.3679C96.2791 54.1052 92.9425 53.9926 91.6089 54.1671ZM75.8941 54.2783C75.3256 54.5809 75.2284 55.1782 75.6901 55.5316C76.0632 55.8173 76.305 55.8102 76.6719 55.503C77.3898 54.902 76.7159 53.8409 75.8941 54.2783ZM111.232 54.4985C110.987 54.8388 111.022 55.1909 111.33 55.4909C111.695 55.8466 112.179 55.8386 112.475 55.4718C112.773 55.1034 112.762 54.8424 112.434 54.5232C112.078 54.1764 111.472 54.164 111.232 54.4985ZM92.8486 59.0793C89.877 62.0606 87.8289 66.0584 87.2624 69.9835C86.9259 72.3146 87.1804 75.0797 87.9026 76.9423C88.911 79.5425 90.2592 81.0583 93.0599 82.7408C93.2199 82.8368 93.2343 83.3146 93.2071 87.6142L93.177 92.3811L90.2783 90.0788C88.684 88.8124 87.381 87.7452 87.3828 87.7072C87.3846 87.6692 87.4516 87.2164 87.5317 86.7009C87.7531 85.2755 87.5101 83.6892 86.8465 82.2289C86.5152 81.4997 86.2113 81.1971 85.8104 81.1971C85.1722 81.1971 84.9583 81.8225 85.3446 82.5595C85.7542 83.3409 86.0266 84.3459 86.0889 85.3058C86.1239 85.845 86.1059 86.3536 86.0481 86.454C85.9602 86.6069 85.4688 86.2559 82.7936 84.1285C79.4438 81.4649 79.2739 81.3676 78.7928 81.8358C78.5048 82.1162 78.5155 82.5075 78.8202 82.8287C78.9556 82.9715 80.3831 84.1291 81.9923 85.401C83.6017 86.673 84.9184 87.7503 84.9184 87.795C84.9184 87.9083 84.2225 88.0085 83.4417 88.0077C79.6937 88.0038 75.945 84.6484 74.5848 80.08C74.2728 79.0321 73.9799 77.5348 73.9799 76.9879V76.6394L74.6635 76.6875C76.7572 76.8351 78.9608 77.3874 80.5347 78.1588C81.4392 78.6021 81.7907 78.6104 82.1071 78.1963C82.2984 77.9457 82.3085 77.8703 82.1884 77.5881C82.0793 77.3318 81.8462 77.169 81.051 76.7936C78.983 75.8176 77.0452 75.3614 74.5693 75.2679C72.953 75.2069 72.9108 75.2109 72.6669 75.4484C72.4287 75.6802 72.4202 75.7443 72.4792 76.8738C72.583 78.8651 73.0853 80.8053 73.9707 82.6343C74.6818 84.1037 75.4014 85.1326 76.4864 86.2316C78.0287 87.7937 79.5128 88.7144 81.2768 89.2033C82.3891 89.5116 84.4172 89.5331 85.4106 89.2472C85.7716 89.1433 86.1654 89.0363 86.2857 89.0093C86.4477 88.9731 87.3941 89.6729 89.9331 91.7061C91.8187 93.2162 93.48 94.5449 93.6246 94.6587C93.83 94.8203 93.9474 94.8436 94.1613 94.7652C94.312 94.7099 95.9819 93.384 97.8726 91.8187L101.31 88.9727L101.728 89.1164C103.536 89.7372 106.073 89.5393 107.925 88.6332C110.228 87.5063 112.346 85.3421 113.577 82.858C114.467 81.0607 115.052 78.8873 115.178 76.9094C115.249 75.8066 115.242 75.7521 114.997 75.4987C114.756 75.249 114.679 75.2351 113.531 75.2358C105.798 75.2398 99.3113 80.7081 100.104 86.5551C100.177 87.0923 100.248 87.612 100.262 87.7102C100.278 87.827 99.3508 88.6643 97.579 90.1322C96.0896 91.3661 94.8466 92.3757 94.817 92.3757C94.7873 92.3757 94.7636 90.2319 94.7644 87.6115L94.7657 82.8472L95.4148 82.5002C97.1676 81.5633 98.7301 79.9376 99.6864 78.0564C102.506 72.5088 100.613 64.4666 95.2076 59.0335C94.0937 57.9138 94.0086 57.9154 92.8486 59.0793ZM70.8344 59.9157C70.6993 59.9642 70.5056 60.1736 70.4041 60.3809C70.2266 60.743 70.2283 60.7694 70.4433 61.0497C70.6204 61.2806 70.7562 61.3416 71.0927 61.3416C71.4705 61.3416 71.5423 61.2979 71.7323 60.9528C71.907 60.6358 71.9237 60.5155 71.8232 60.3008C71.6757 59.9856 71.1782 59.7919 70.8344 59.9157ZM116.446 60.0702C115.93 60.4215 116.325 61.5013 116.968 61.5013C117.238 61.5013 117.734 61.0525 117.734 60.8089C117.734 60.7154 117.662 60.5036 117.574 60.3379C117.33 59.8786 116.882 59.7724 116.446 60.0702ZM95.9096 62.1933C96.8338 63.45 97.6263 64.8498 98.2144 66.2643C100.091 70.7789 99.8369 75.5848 97.556 78.6959C97.0384 79.4018 95.6659 80.7016 95.1052 81.0168L94.7631 81.2091V78.9659V76.7226L96.021 74.7909C96.7129 73.7285 97.2789 72.7471 97.2789 72.6099C97.2789 72.2704 96.9077 71.9347 96.5323 71.9347C96.1631 71.9347 95.9418 72.1541 95.2963 73.1591L94.8178 73.9043L94.7631 68.7305C94.7026 63.0032 94.7305 63.2048 93.9974 63.2048C93.3158 63.2048 93.2928 63.284 93.2317 65.8513L93.177 68.1464L92.7051 67.441C92.4456 67.0531 92.1586 66.7077 92.0673 66.6736C91.5373 66.4757 90.9346 66.8001 90.9346 67.2831C90.9346 67.4202 91.4425 68.2531 92.0831 69.1667L93.2317 70.8045V75.9476C93.2317 78.7762 93.1992 81.0906 93.1596 81.0906C93.0169 81.0906 91.9276 80.2354 91.3776 79.6916C89.613 77.9468 88.7731 75.7881 88.6702 72.7332C88.5723 69.826 89.0681 67.7489 90.551 64.8549C91.3945 63.2086 92.3232 61.8483 93.4157 60.659L94.0427 59.9764L94.6238 60.6058C94.9434 60.952 95.5221 61.6664 95.9096 62.1933ZM67.3153 66.9986C67.1906 67.1528 67.0886 67.408 67.0886 67.5656C67.0886 67.9082 67.4958 68.315 67.839 68.315C68.1959 68.315 68.62 67.8551 68.62 67.4681C68.62 66.7665 67.7546 66.455 67.3153 66.9986ZM119.847 66.8262C119.081 67.1235 119.352 68.315 120.186 68.315C120.627 68.315 120.906 68.0377 120.906 67.5998C120.906 67.0271 120.359 66.6276 119.847 66.8262ZM111.173 71.22C110.754 71.4262 110.64 71.8691 110.914 72.2277C111.209 72.6135 111.659 72.6641 112.003 72.3502C112.338 72.0432 112.336 71.6751 111.996 71.3444C111.693 71.0492 111.56 71.0292 111.173 71.22ZM66.2325 74.4168C65.9166 74.7442 65.9234 75.2393 66.2479 75.536C66.5763 75.8362 66.9897 75.8304 67.2883 75.5211C67.6038 75.1941 67.5914 74.7568 67.2576 74.4318C66.9207 74.1038 66.5401 74.0983 66.2325 74.4168ZM120.708 74.494C120.225 74.9319 120.605 75.8739 121.265 75.8739C121.628 75.8739 122 75.4531 122 75.042C122 74.3671 121.215 74.0342 120.708 74.494ZM113.687 76.928C113.687 77.4197 113.231 79.6229 112.969 80.3986C111.683 84.2057 108.92 87.061 105.761 87.8483C104.843 88.0768 102.73 88.0506 102.755 87.8111C102.759 87.7745 103.991 86.7385 105.492 85.5088C108.683 82.8963 108.901 82.6922 108.901 82.3192C108.901 81.9439 108.579 81.6229 108.202 81.6229C107.88 81.6229 107.674 81.7814 103.515 85.2219C102.523 86.0426 101.674 86.6916 101.628 86.6641C101.48 86.575 101.54 84.773 101.713 84.1205C102.378 81.6155 104.541 79.3308 107.513 77.9942C109.152 77.2574 111.265 76.7585 112.839 76.7371C113.603 76.7268 113.687 76.7455 113.687 76.928ZM83.5131 79.0412C83.1368 79.3511 83.1026 79.7588 83.4263 80.0739C83.773 80.4114 84.1514 80.4206 84.4618 80.099C84.788 79.7611 84.7677 79.3482 84.4114 79.0756C84.0593 78.806 83.8103 78.7964 83.5131 79.0412ZM67.4714 81.7501C67.1643 81.9196 67.0922 82.0516 67.0902 82.448C67.0882 82.8853 67.4194 83.2199 67.8543 83.2199C68.233 83.2199 68.62 82.8943 68.62 82.5758C68.62 82.2743 68.3367 81.7689 68.1228 81.689C67.8751 81.5965 67.7241 81.6107 67.4714 81.7501ZM119.643 81.9907C119.125 82.495 119.399 83.3263 120.084 83.3263C120.352 83.3263 120.515 83.2498 120.679 83.0458C120.98 82.6737 120.966 82.31 120.638 81.9907C120.297 81.6591 119.984 81.6591 119.643 81.9907ZM70.4795 88.756C69.847 89.3716 70.7365 90.4703 71.4498 89.9544C71.8267 89.6818 71.8776 89.2097 71.5708 88.8302C71.2881 88.4803 70.797 88.447 70.4795 88.756ZM116.362 88.9109C115.854 89.4049 116.157 90.1754 116.859 90.1754C117.31 90.1754 117.625 89.8309 117.625 89.3358C117.625 88.6829 116.86 88.4257 116.362 88.9109ZM75.5113 94.505C75.2156 94.7928 75.2358 95.2047 75.561 95.5212C76.0639 96.0107 76.9333 95.7348 76.9333 95.0857C76.9333 94.4402 75.9784 94.0503 75.5113 94.505ZM111.538 94.3977C111.253 94.5095 110.952 94.9076 110.952 95.1723C110.952 95.4427 111.439 95.889 111.734 95.889C112.061 95.889 112.593 95.3795 112.593 95.0657C112.593 94.7943 112.145 94.2878 111.914 94.2988C111.836 94.3025 111.667 94.347 111.538 94.3977ZM82.2087 98.4686C81.9413 98.5941 81.8156 98.9105 81.8739 99.3116C81.925 99.6628 82.5455 99.9574 82.9326 99.8141C83.2945 99.6803 83.3833 99.5418 83.3854 99.1079C83.3867 98.8292 83.3166 98.7186 83.0315 98.5494C82.6308 98.3117 82.5585 98.3046 82.2087 98.4686ZM104.711 98.6404C104.194 99.0482 104.533 99.9346 105.207 99.9346C105.342 99.9346 105.583 99.8353 105.742 99.7139C106.091 99.4465 106.136 98.8899 105.83 98.6203C105.565 98.3867 105.021 98.3965 104.711 98.6404ZM89.4656 100.741C89.1966 101.003 89.2052 101.467 89.4847 101.771C89.7015 102.007 90.4184 102.019 90.6534 101.79C90.9224 101.528 90.9138 101.064 90.6343 100.76C90.4175 100.524 89.7006 100.512 89.4656 100.741ZM97.2088 100.845C96.7292 101.312 97.06 102 97.7642 102C98.2586 102 98.5915 101.704 98.5915 101.265C98.5915 100.579 97.7461 100.322 97.2088 100.845Z" fill="white"/>
<defs>
<filter id="filter0_d_711_414" x="0" y="0" width="188" height="182" filterUnits="userSpaceOnUse" color-interpolation-filters="sRGB">
<feFlood flood-opacity="0" result="BackgroundImageFix"/>
<feColorMatrix in="SourceAlpha" type="matrix" values="0 0 0 0 0 0 0 0 0 0 0 0 0 0 0 0 0 0 127 0" result="hardAlpha"/>
<feOffset dy="16"/>
<feGaussianBlur stdDeviation="16"/>
<feComposite in2="hardAlpha" operator="out"/>
<feColorMatrix type="matrix" values="0 0 0 0 0.464167 0 0 0 0 0.680601 0 0 0 0 1 0 0 0 0.24 0"/>
<feBlend mode="normal" in2="BackgroundImageFix" result="effect1_dropShadow_711_414"/>
<feBlend mode="normal" in="SourceGraphic" in2="effect1_dropShadow_711_414" result="shape"/>
</filter>
</defs>
</svg>
