<svg viewBox="0 0 220 61" fill="none" xmlns="http://www.w3.org/2000/svg">
<path fill-rule="evenodd" clip-rule="evenodd" d="M96.8453 0.264501C97.1862 0.421342 97.4462 0.881884 97.4462 1.32856C97.4462 1.50481 97.2229 3.21676 96.9501 5.13312C96.2185 10.2713 95.03 18.9419 95.03 19.1418C95.03 19.2635 95.2893 19.137 95.8984 18.7182C97.0758 17.9084 98.6434 17.1451 99.6581 16.8874C101.657 16.3797 105.233 16.3171 107.276 16.7539C110.056 17.3485 112.601 18.9356 114.183 21.0608C115.75 23.1669 116.489 25.3405 116.626 28.2502C116.896 33.9712 114.546 39.6766 110.517 43.0832C108.896 44.4536 106.916 45.5484 104.949 46.1622C102.72 46.8573 98.9119 46.9858 96.3933 46.4507C92.4456 45.6121 89.233 42.6599 87.8984 38.6447C87.2696 36.7531 86.9986 33.233 87.2218 29.8585C87.3523 27.885 87.4848 27.0368 89.7505 13.6642C92.1001 -0.20424 91.9121 0.777291 92.2841 0.436988L92.6174 0.131958H94.5873C95.8808 0.131958 96.6561 0.177429 96.8453 0.264501ZM209.884 0.305108C210.363 0.643858 210.489 1.07233 210.351 1.89126C210.23 2.61434 209.214 8.32928 207.273 19.2102C206.734 22.23 206.095 25.83 205.852 27.2103C204.987 32.1215 203.353 36.9085 201.607 39.6422C199.926 42.2761 196.456 44.8576 193.065 45.9981C189.571 47.1733 185.054 47.0587 181.992 45.7173C178.462 44.1708 176.1 41.1819 175.245 37.1792C175.001 36.0333 174.967 32.7369 175.186 31.3559C175.691 28.17 176.938 25.1001 178.677 22.7626C180.963 19.69 184.534 17.4421 188.28 16.7179C189.609 16.4609 191.826 16.3846 193.419 16.541C196.572 16.8508 198.157 17.6225 200.291 19.8877C200.815 20.4436 201.263 20.8797 201.286 20.8566C201.308 20.8335 201.75 18.4695 202.267 15.6033C205.182 -0.563061 204.914 0.776514 205.29 0.436988L205.628 0.131958H207.634C209.273 0.131958 209.684 0.163574 209.884 0.305108ZM216.168 0.402596C216.168 0.506972 216.025 0.57419 215.756 0.596706L215.344 0.631098L215.313 1.87895C215.285 3.02797 215.265 3.1268 215.07 3.1268C214.874 3.1268 214.855 3.02797 214.826 1.87895L214.795 0.631098L214.383 0.596706C214.114 0.57419 213.971 0.506972 213.971 0.402596C213.971 0.274262 214.187 0.242878 215.07 0.242878C215.952 0.242878 216.168 0.274262 216.168 0.402596ZM217.742 0.547908C217.825 0.71573 218.011 1.1898 218.155 1.60165C218.299 2.01349 218.448 2.35036 218.486 2.35036C218.524 2.35036 218.728 1.88871 218.938 1.32435C219.3 0.355684 219.339 0.298338 219.639 0.298338H219.957L219.988 1.71257C220.017 3.06202 220.008 3.1268 219.799 3.1268C219.597 3.1268 219.578 3.04129 219.549 1.99653L219.518 0.86614L219.07 1.9688C218.813 2.6026 218.559 3.07134 218.473 3.07134C218.386 3.07134 218.159 2.64386 217.932 2.05376C217.717 1.49406 217.504 0.999137 217.458 0.953771C217.413 0.908516 217.376 1.37892 217.376 1.99908C217.376 2.92759 217.347 3.1268 217.211 3.1268C217.073 3.1268 217.047 2.89265 217.047 1.68484V0.242878H217.318C217.505 0.242878 217.638 0.338602 217.742 0.547908ZM134.654 16.5552C137.536 16.874 139.646 17.7685 141.157 19.3117C142.092 20.2667 142.585 21.0485 142.992 22.2233C143.234 22.9223 143.282 23.2794 143.326 24.7562C143.374 26.3546 143.35 26.6471 142.975 28.9157C142.163 33.8345 141.675 35.6987 140.663 37.7368C138.841 41.409 136.698 43.8463 134.202 45.088C132.266 46.0507 130.538 46.4458 127.543 46.6103C124.334 46.7867 122.386 46.506 120.565 45.6045C117.695 44.1842 116.396 41.8357 116.592 38.4206C116.674 36.9872 116.87 36.1978 117.448 34.9825C118.437 32.9015 120.93 30.9438 123.969 29.8619C127.027 28.7731 129.714 28.3783 135.742 28.1318C137.221 28.0713 137.549 28.0271 137.691 27.8691C137.922 27.6109 138.07 26.0218 137.959 24.9838C137.853 23.9902 137.38 22.9392 136.812 22.4355C135.563 21.3284 133.193 20.801 130.783 21.0941C128.855 21.3287 127.134 21.9363 125.284 23.0359C124.178 23.6934 123.638 23.8057 123.172 23.476C122.894 23.2787 121.765 21.4064 121.66 20.9666C121.518 20.3755 121.854 19.9647 123.082 19.2255C124.61 18.3065 125.871 17.7313 127.35 17.2794C129.761 16.5422 132.28 16.2926 134.654 16.5552ZM166.594 16.7007C169.951 17.4343 172.08 19.4131 173.079 22.7267C173.345 23.612 173.372 23.8672 173.371 25.4772C173.369 27.1761 173.338 27.4295 172.633 31.4114C172.227 33.6991 171.527 37.6673 171.076 40.2295C170.078 45.9004 170.202 45.3524 169.824 45.7343L169.509 46.0528L167.551 46.0524C165.829 46.0521 165.552 46.0269 165.255 45.8438C164.663 45.4794 164.605 45.1435 164.871 43.6466C164.999 42.9263 165.5 40.041 165.984 37.2347C166.468 34.4284 167.019 31.3088 167.207 30.3022C167.786 27.2222 167.684 25.3041 166.856 23.6466C166.044 22.0229 164.656 21.3211 162.226 21.3055C161.581 21.3014 160.771 21.3574 160.425 21.4299C157.468 22.05 154.982 24.4962 153.686 28.0627C153.226 29.3287 153.005 30.3994 152.036 36.07C150.428 45.4775 150.445 45.3975 150.057 45.7478L149.72 46.0528H147.734H145.748L145.374 45.6757C145.092 45.3903 145.001 45.2041 145.001 44.9098C145.001 44.329 148.675 25.8038 148.941 25.0426C149.845 22.4582 152.528 19.7197 155.585 18.2612C157.241 17.4715 159.557 16.8356 161.804 16.554C162.941 16.4116 165.65 16.4945 166.594 16.7007ZM189.261 21.8126C185.059 22.7226 182.041 26.1495 181.198 30.9677C180.55 34.6677 181.232 37.5934 183.205 39.5869C184.384 40.7769 185.878 41.3719 187.945 41.4733C193.134 41.7281 197.535 37.8836 198.765 32.0215C199.039 30.7183 199.015 28.4118 198.715 27.2519C198.044 24.6501 196.298 22.7711 193.818 21.9792C192.834 21.6649 190.36 21.5745 189.261 21.8126ZM101.455 21.9455C97.5318 22.7927 94.3217 26.4298 93.4205 31.0481C93.1589 32.3886 93.162 34.7471 93.4267 35.7927C93.7754 37.1706 94.4077 38.3363 95.2882 39.2245C96.1857 40.1297 96.9081 40.5815 98.1601 41.0203C98.9676 41.3034 99.1675 41.328 100.631 41.3236C101.897 41.3197 102.397 41.271 103.067 41.0858C105.373 40.4486 107.441 38.8304 108.845 36.5644C109.989 34.7168 110.743 31.4389 110.59 28.9712C110.357 25.2134 108.298 22.5185 105.207 21.9263C104.129 21.7198 102.461 21.7283 101.455 21.9455ZM132.865 32.3133C128.03 32.6059 124.983 33.5485 123.266 35.283C122.05 36.511 121.715 38.8058 122.542 40.2389C123.096 41.1979 124.21 41.9287 125.518 42.1912C126.553 42.3987 128.653 42.3381 129.68 42.0712C131.107 41.7004 132.676 40.8392 133.704 39.862C135.483 38.172 136.33 36.5434 136.873 33.771C137.002 33.1138 137.132 32.4888 137.163 32.382C137.213 32.2037 137.103 32.1892 135.81 32.204C135.036 32.2129 133.711 32.2621 132.865 32.3133Z" fill="#3E4263"/>
<path d="M50.3643 0.772944C50.2487 0.573177 50.0333 0.348 49.8856 0.272464C49.5051 0.0779101 45.4559 0.0986599 44.5391 0.299869C43.1679 0.600795 41.8898 1.51166 41.0742 2.76938C40.3981 3.81181 40.2951 4.13581 39.902 6.45615C39.7109 7.58376 39.2142 10.4281 38.798 12.7768C38.3818 15.1255 37.938 17.6712 37.8118 18.4337C37.6856 19.1963 37.1925 22.0414 36.716 24.7562C34.16 39.3178 33.2945 44.3637 33.2781 44.7992C33.2608 45.2613 33.4994 45.6996 33.8752 45.8959C34.2851 46.1099 41.784 46.1249 42.1933 45.9125C42.718 45.6402 42.8489 45.2892 43.1959 43.2244C43.3805 42.1263 43.8982 39.1564 44.3464 36.6246C44.7946 34.0929 45.3825 30.7486 45.6528 29.193C46.5381 24.0993 47.4691 18.7909 48.2985 14.1079C48.747 11.5761 49.1919 9.03049 49.2873 8.45093C49.3827 7.87138 49.7113 5.9884 50.0175 4.2667L50.5742 1.13609L50.3643 0.772944Z" fill="#8FE82D"/>
<path d="M33.5917 3.74183C33.4772 3.46508 33.3063 3.29027 33.0409 3.17824C32.7131 3.03992 31.3675 3.01795 23.9488 3.02993C19.1599 3.0377 14.9437 3.08329 14.5796 3.13143C10.6871 3.64554 7.45433 6.28267 6.15817 10.0014C5.95444 10.5856 5.18643 14.7115 3.97923 21.7059C3.67391 23.475 3.08326 26.8442 2.66658 29.193C2.25002 31.5417 1.80577 34.0873 1.67947 34.8499C1.55306 35.6125 1.10366 38.1919 0.680497 40.582C-0.0432553 44.6713 -0.0791643 44.9505 0.0722854 45.3164C0.378699 46.0573 0.427561 46.0644 4.98401 46.029L9.05471 45.9974L9.35322 45.6598C9.62801 45.3491 9.70543 45.0187 10.3281 41.5003C10.7002 39.3983 11.1824 36.6302 11.3995 35.349C11.6167 34.0679 11.9522 32.1462 12.1452 31.0786L12.496 29.1375L20.2757 29.0821L28.0554 29.0266L28.309 28.7288C28.578 28.4129 28.6017 28.3035 29.2872 24.2016C29.68 21.851 29.6701 21.5516 29.1853 21.1235L28.9026 20.874H22.0961C14.7817 20.874 14.7704 20.8732 14.3774 20.3064C14.1548 19.9855 14.1515 19.5129 14.3639 18.3915C14.4551 17.9106 14.7272 16.3718 14.9687 14.9719C15.2103 13.572 15.4584 12.3312 15.5203 12.2147C15.8131 11.6621 15.7274 11.6676 23.9159 11.6676C32.1459 11.6676 32.1023 11.6705 32.4658 11.0946C32.5557 10.9522 32.8831 9.32987 33.1934 7.48937C33.7264 4.32815 33.7485 4.12073 33.5917 3.74183Z" fill="#8FE82D"/>
<path d="M62.5704 16.3579C62.4832 16.2228 62.3007 16.0481 62.1647 15.9697C61.8605 15.7942 53.8881 15.723 53.3306 15.8909C52.8838 16.0254 52.5275 16.4817 52.5275 16.9197C52.5275 17.2399 52.8302 18.2865 54.7295 24.5343C55.1467 25.907 55.7791 28.0034 56.1348 29.193C57.5871 34.0507 58.9056 38.4174 59.2831 39.6195C59.5033 40.321 59.7529 41.2195 59.8377 41.616C60.0377 42.5519 60.0379 44.4793 59.838 45.5345C59.4094 47.7969 57.8582 50.1732 55.994 51.4229C55.6615 51.6458 54.6179 52.1574 53.6751 52.5598C50.3602 53.9744 49.5228 54.8896 49.5362 57.0827C49.5436 58.3193 49.8382 59.0835 50.5601 59.7389C51.3808 60.4842 51.9233 60.6263 53.6714 60.5539C55.1912 60.4909 56.4553 60.2709 57.4455 59.8966C58.9334 59.3345 61.6582 57.1247 63.3693 55.0928C65.0749 53.0674 67.0851 49.8166 70.3996 43.7235C71.2459 42.1678 72.5198 39.8468 73.2305 38.5657C73.9413 37.2846 74.8807 35.5875 75.3179 34.7944C75.7551 34.0014 77.6082 30.6571 79.4358 27.3628C81.2633 24.0685 83.0295 20.8744 83.3605 20.2648C83.6916 19.6553 84.1905 18.7572 84.4692 18.2691C85.1074 17.1516 85.1442 16.6772 84.6286 16.2118C84.4146 16.0188 84.099 15.8709 83.8073 15.8272C83.5468 15.7882 81.7004 15.7722 79.7043 15.7916C76.3914 15.824 76.0479 15.8451 75.7648 16.0325C75.5409 16.1808 75.2252 16.7215 74.6312 17.9736C74.1784 18.9283 72.905 21.606 71.8014 23.9243C70.6978 26.2425 69.1924 29.412 68.456 30.9677C67.7195 32.5234 67.0391 33.8835 66.9439 33.9903C66.7332 34.2265 66.222 34.2443 66.0391 34.0218C65.9656 33.9323 65.6623 32.5222 65.3651 30.8883C65.0678 29.2543 64.6051 26.7694 64.3367 25.3662C64.0683 23.9631 63.5967 21.4175 63.2888 19.7093C62.9808 18.0011 62.6576 16.493 62.5704 16.3579Z" fill="#8FE82D"/>
</svg>
