<svg viewBox="0 0 64 64" fill="none" xmlns="http://www.w3.org/2000/svg">
<path fill-rule="evenodd" clip-rule="evenodd" d="M19.5813 5.13129C18.9977 5.34998 18.4881 5.72627 18.1846 6.16269C17.7164 6.83584 17.616 7.39475 17.616 9.32812V11.1047L15.3849 11.1058C13.2634 11.1067 13.1277 11.119 12.6229 11.3552C12.331 11.4917 11.9202 11.8054 11.71 12.0522C11.0705 12.8027 11.0014 13.1635 11.0014 15.7509C11.0014 17.9057 11.0141 18.0549 11.219 18.3167C11.52 18.7012 12.0577 18.7012 12.3586 18.3167C12.5631 18.0557 12.5763 17.9048 12.5763 15.8324C12.5763 12.601 12.4945 12.6871 15.5634 12.6871H17.616V13.4591C17.616 14.9285 18.168 15.9451 19.2376 16.4454C20.2472 16.9178 21.6002 16.7162 22.3768 15.9775C22.9374 15.4445 23.2066 14.7416 23.2632 13.6629L23.3144 12.6871H26.2399H29.1655V13.4591C29.1655 14.464 29.383 15.1721 29.866 15.739C31.19 17.2931 33.778 16.9044 34.5841 15.0304C34.677 14.8143 34.7775 14.2014 34.8082 13.6629L34.8638 12.6871H37.775H40.6862L40.7418 13.6629C40.7725 14.2014 40.873 14.8143 40.9659 15.0304C41.7721 16.9044 44.3601 17.2931 45.6841 15.739C46.167 15.1721 46.3846 14.464 46.3846 13.4591V12.6871H48.4372C50.0665 12.6871 50.5533 12.7201 50.7978 12.8471C51.468 13.1954 51.4243 11.976 51.4243 30.3336V47.041L51.6673 47.2704C51.9901 47.5751 52.4784 47.5686 52.771 47.2557L52.9992 47.0115V30.2373C52.9992 11.6023 53.0515 12.9453 52.2906 12.0522C52.0804 11.8054 51.6696 11.4917 51.3777 11.3552C50.8731 11.1191 50.7369 11.1067 48.6239 11.1058L46.401 11.1047L46.3665 9.12673C46.3281 6.9214 46.2323 6.5373 45.5494 5.85117C44.9528 5.25166 44.4379 5.04373 43.5497 5.04373C42.6616 5.04373 42.1467 5.25166 41.55 5.85117C40.8671 6.5373 40.7714 6.9214 40.7329 9.12673L40.6985 11.1047H37.775H34.8515L34.8171 9.12673C34.7787 6.9214 34.6829 6.5373 34 5.85117C33.4034 5.25166 32.8885 5.04373 32.0003 5.04373C31.1122 5.04373 30.5973 5.25166 30.0006 5.85117C29.3177 6.5373 29.2219 6.9214 29.1835 9.12673L29.1491 11.1047H26.2256H23.3021L23.2677 9.12673C23.2293 6.9214 23.1335 6.5373 22.4506 5.85117C21.7179 5.11494 20.4642 4.80036 19.5813 5.13129ZM20.9727 6.70345C21.1153 6.77603 21.3398 6.99598 21.4714 7.1922C21.7078 7.54465 21.7108 7.59044 21.7108 10.8072C21.7108 14.3331 21.6763 14.5881 21.1514 14.9337C20.7673 15.1866 20.0232 15.1679 19.6801 14.8968C19.2169 14.5307 19.1755 14.1527 19.2107 10.612L19.2435 7.32364L19.5059 7.04008C19.9402 6.57085 20.4719 6.44879 20.9727 6.70345ZM32.5221 6.70345C32.6647 6.77603 32.8892 6.99598 33.0209 7.1922C33.2572 7.54465 33.2602 7.59044 33.2602 10.8072C33.2602 14.3331 33.2257 14.5881 32.7008 14.9337C32.3545 15.1617 31.5965 15.1658 31.2776 14.9414C30.7778 14.5897 30.7404 14.3021 30.7404 10.8072C30.7404 7.59044 30.7434 7.54465 30.9798 7.1922C31.3725 6.60671 31.9635 6.41946 32.5221 6.70345ZM44.0715 6.70345C44.2141 6.77603 44.4386 6.99598 44.5703 7.1922C44.8066 7.54465 44.8097 7.59044 44.8097 10.8072C44.8097 14.3021 44.7723 14.5897 44.2724 14.9414C43.9535 15.1658 43.1956 15.1617 42.8492 14.9337C42.3243 14.5881 42.2898 14.3331 42.2898 10.8072C42.2898 7.59044 42.2928 7.54465 42.5292 7.1922C42.922 6.60671 43.5129 6.41946 44.0715 6.70345ZM11.4544 20.8085C11.3283 20.8608 11.1747 20.9982 11.1132 21.1137C11.0354 21.2599 11.0014 26.6891 11.0014 38.9819C11.0014 58.9165 10.9287 57.2477 11.8363 58.1596C12.7457 59.0733 10.949 58.9985 32.0003 58.9985C53.0516 58.9985 51.255 59.0733 52.1643 58.1596C52.9632 57.3568 52.9992 57.1532 52.9992 53.4344C52.9992 51.5451 52.957 50.1495 52.8964 50.0357C52.6536 49.5799 51.6719 49.6117 51.4926 50.0813C51.455 50.1795 51.4243 51.6587 51.4243 53.3685C51.4243 55.9408 51.3968 56.5305 51.265 56.7866C50.9175 57.4619 52.3192 57.4161 32.0003 57.4161C15.6789 57.4161 13.4747 57.3973 13.2028 57.2561C12.5317 56.9073 12.5763 58.2181 12.5763 38.8662C12.5763 22.2475 12.5659 21.2431 12.3926 21.0372C12.1726 20.776 11.7697 20.6778 11.4544 20.8085ZM24.1755 20.9111C24.0585 20.9582 23.0004 22.1663 21.824 23.5957C20.6478 25.025 19.6602 26.1693 19.6295 26.1385C19.5989 26.1077 19.3341 25.7151 19.0411 25.2661C18.5519 24.516 18.4769 24.4469 18.1208 24.4172C17.6506 24.3779 17.3011 24.6737 17.3011 25.1109C17.3011 25.291 17.6284 25.9414 18.1546 26.8066C19.082 28.3318 19.3178 28.5386 19.8357 28.2808C20.0727 28.1628 21.6667 26.2999 24.5131 22.8144C25.2961 21.8557 25.3895 21.5763 25.0521 21.2027C24.7681 20.8881 24.4746 20.7906 24.1755 20.9111ZM27.7999 23.8624C25.5955 24.5361 25.2791 27.4389 27.2996 28.4506L27.8418 28.722H36.6022C43.1991 28.722 45.4695 28.6902 45.7949 28.5931C46.3632 28.4235 47.1374 27.6456 47.3062 27.0747C47.6055 26.0621 47.2797 24.9021 46.536 24.3323C45.7845 23.7564 45.9034 23.7631 36.6296 23.7729C31.918 23.7779 27.9446 23.8182 27.7999 23.8624ZM45.3678 25.469C45.9224 25.7658 46.0352 26.4454 45.6018 26.8807L45.3442 27.1396H36.6866H28.0292L27.748 26.804C27.53 26.5435 27.4809 26.398 27.5293 26.1547C27.6032 25.7837 27.7662 25.566 28.0593 25.4467C28.4138 25.3023 45.0966 25.3239 45.3678 25.469ZM24.1755 31.3549C24.0585 31.402 23.0004 32.6101 21.824 34.0395C20.6478 35.4688 19.6602 36.6131 19.6295 36.5823C19.5989 36.5515 19.3341 36.1589 19.0411 35.7099C18.5519 34.9598 18.4769 34.8907 18.1208 34.861C17.6506 34.8217 17.3011 35.1176 17.3011 35.5547C17.3011 35.7348 17.6284 36.3852 18.1546 37.2504C19.0826 38.7767 19.3169 38.9818 19.8384 38.7246C20.0668 38.6119 22.0001 36.3455 24.7734 32.9392C25.2958 32.2977 25.3621 31.9898 25.0521 31.6465C24.7681 31.3319 24.4746 31.2344 24.1755 31.3549ZM28.063 34.278C27.155 34.4893 26.5677 34.9035 26.232 35.5691C25.6033 36.816 26.1051 38.3662 27.3239 38.9418C27.7959 39.1648 27.8417 39.1658 36.6977 39.1635C45.1432 39.1613 45.6185 39.1512 46.0171 38.9654C46.8942 38.5565 47.4363 37.6951 47.4322 36.7165C47.4282 35.7615 46.9429 34.9818 46.0566 34.5067L45.5971 34.2604L36.9351 34.2448C32.1709 34.2363 28.1785 34.2511 28.063 34.278ZM45.6063 36.1388C45.9373 36.5256 45.9356 36.9892 45.6018 37.3245L45.3442 37.5835H36.6773C28.1877 37.5835 28.0063 37.5792 27.8032 37.3751C27.5281 37.0987 27.4492 36.7436 27.5839 36.3878C27.8134 35.7813 27.6025 35.7943 36.8654 35.8196L45.3529 35.8428L45.6063 36.1388ZM24.1457 41.8751C24.0701 41.9055 23.059 43.0767 21.8988 44.4777C20.7386 45.8788 19.7565 47.0629 19.7161 47.1091C19.6759 47.1555 19.4133 46.8144 19.1327 46.3513C18.482 45.2778 18.1157 45.0779 17.5777 45.5031C17.1218 45.8634 17.204 46.2129 18.0837 47.6535C19.009 49.169 19.1527 49.3199 19.6273 49.2742C19.9459 49.2436 20.2148 48.9572 22.5308 46.1811C23.9346 44.4985 25.1288 43.0087 25.1846 42.8705C25.4314 42.2589 24.7691 41.6244 24.1457 41.8751ZM27.328 44.9711C26.4234 45.4144 25.8192 46.5511 25.9657 47.5335C26.1174 48.5494 26.9191 49.393 27.9343 49.6047C28.3218 49.6855 31.1073 49.7122 37.0448 49.6917L45.5971 49.6624L46.0566 49.4161C46.9429 48.941 47.4282 48.1613 47.4322 47.2063C47.4363 46.2278 46.8942 45.3663 46.0171 44.9574C45.6182 44.7714 45.1475 44.7617 36.6726 44.7635C28.0389 44.7653 27.7344 44.7721 27.328 44.9711ZM45.6018 46.5983C45.9356 46.9336 45.9373 47.3972 45.6063 47.784L45.3529 48.08L36.8926 48.1082C29.6444 48.1324 28.3796 48.1142 28.0633 47.9815C27.4574 47.7271 27.3297 47.0234 27.8032 46.5477C28.0063 46.3436 28.1877 46.3394 36.6773 46.3394H45.3442L45.6018 46.5983Z" fill="#427BFD" />
</svg>
