<svg viewBox="0 0 1920 1095" fill="none" xmlns="http://www.w3.org/2000/svg">
<path fill-rule="evenodd" clip-rule="evenodd" d="M1920 1095V0.000244141L1856 0.000238546L1536 0.00021057L1152 0.000177L768 0.00014343L384 0.000109859L64.0001 8.1884e-05L9.57279e-05 7.62889e-05L2.01822e-05 864.143L64 873.762L384 921.857L384.001 921.857C512 941.095 640 960.333 768 941.095C841.143 930.102 914.286 906.545 987.428 882.988C1042.29 865.321 1097.14 847.653 1152 835.286C1280 806.429 1408 806.429 1536 854.524C1664 902.619 1792 998.81 1856 1046.9L1920 1095Z" fill="#F8FBFE"/>
</svg>
