<svg viewBox="0 0 64 64" fill="none" xmlns="http://www.w3.org/2000/svg">
<path fill-rule="evenodd" clip-rule="evenodd" d="M21.0567 6.1081C20.9295 6.16001 20.7396 6.33596 20.6346 6.49907C20.465 6.76257 20.447 7.01654 20.4719 8.77875C20.4873 9.86946 20.5681 11.713 20.6516 12.8756C20.7724 14.5606 20.7805 15.4508 20.6915 17.2642C20.4496 22.1899 20.6088 22.7544 23.1756 26.0676C23.9508 27.0683 24.5692 27.9352 24.5498 27.9941C24.5303 28.0529 24.1305 29.4682 23.661 31.139C23.0828 33.1971 22.8281 34.2714 22.8711 34.4701C22.9721 34.9367 23.3945 35.2671 23.8902 35.2671C24.6104 35.2671 24.7835 34.9618 25.4954 32.4357C25.8355 31.229 26.1474 30.2044 26.1885 30.1589C26.2622 30.0773 30.1496 35.0365 30.546 35.7178L30.7502 36.069L27.8267 43.1892C26.2188 47.1052 24.897 50.3084 24.8895 50.3073C24.6536 50.2742 20.9662 48.7948 20.9428 48.7239C20.9243 48.6673 21.2474 47.4245 21.6608 45.9622C22.4811 43.0617 22.4962 42.8756 21.946 42.459C21.782 42.3349 21.4945 42.2394 21.2844 42.2394C20.5746 42.2394 20.4712 42.4527 19.4458 46.0378C18.9338 47.8279 18.2247 50.0986 17.8701 51.0838C17.325 52.5982 17.2252 52.9841 17.2252 53.5795C17.2252 54.2 17.2033 54.2771 17.0406 54.228C16.939 54.1975 16.1911 54.0203 15.3785 53.8343C13.5948 53.4259 9.77007 52.3207 7.8861 51.6692C6.1371 51.0644 6.10491 51.0574 5.66761 51.1798C5.07022 51.3471 4.82234 52.0361 5.13723 52.6537C5.30892 52.9904 5.61221 53.1389 7.65932 53.8887C17.0412 57.3248 27.884 58.6642 38.4361 57.6906C44.2096 57.1579 51.0782 55.6942 56.2746 53.8892C58.2981 53.1863 58.683 53.0025 58.8608 52.6537C59.1816 52.0246 58.9286 51.3506 58.3009 51.1619C57.94 51.0535 57.7554 51.095 56.1647 51.643C54.088 52.3584 50.9886 53.2672 48.9019 53.7726C47.5468 54.1008 47.3842 54.1206 47.3298 53.9632C46.9964 52.9968 46.4404 52.3189 45.6924 51.9667C45.4174 51.8372 44.3393 51.4735 43.2965 51.1584L41.4006 50.5857L41.3473 50.0461C41.318 49.7494 41.2664 45.7009 41.2327 41.0495C41.1654 31.7429 41.1651 31.7387 40.5083 30.3518C40.3123 29.938 39.0018 27.8911 37.5958 25.8031C36.19 23.7151 34.9482 21.8247 34.8363 21.6022C34.3973 20.7294 34.2918 19.9795 34.3738 18.3128C34.4463 16.8393 34.4691 16.7187 34.7997 16.0524C35.8054 14.0259 36.7063 10.147 36.776 7.54451C36.8004 6.63071 36.7989 6.62515 36.4558 6.31327L36.1112 6L28.6996 6.00674C24.6232 6.01049 21.184 6.05608 21.0567 6.1081ZM34.6372 8.24832C34.6372 8.53151 34.2961 10.6087 34.112 11.4473C33.7503 13.0941 32.9798 15.3067 32.7654 15.3141C32.5096 15.3231 22.9637 13.9842 22.9033 13.931C22.8362 13.8717 22.6858 11.7509 22.5669 9.18406L22.5185 8.14054H28.5778C32.5735 8.14054 34.6372 8.17725 34.6372 8.24832ZM27.5107 16.76C29.8922 17.0858 31.936 17.3727 32.0525 17.3976C32.2531 17.4406 32.2644 17.529 32.2678 19.0796C32.271 20.5678 32.2972 20.7939 32.5555 21.5725C32.9055 22.6266 33.0433 22.853 36.0976 27.3922C37.6227 29.6588 38.6453 31.2852 38.7835 31.6637C38.9902 32.23 39.012 32.5716 39.0794 36.2887C39.163 40.8911 39.2071 50.4193 39.1452 50.4821C39.076 50.5522 35.3606 51.2926 35.3141 51.2455C35.2904 51.2214 34.7988 47.9065 34.2219 43.8791C33.1328 36.2763 33.0264 35.7434 32.3839 34.6659C32.1964 34.3517 30.1649 31.659 27.8694 28.6822C25.5739 25.7053 23.5682 23.0805 23.4124 22.8492C22.7439 21.8566 22.6346 20.9631 22.7822 17.6927C22.84 16.4112 22.8774 16.1676 23.0158 16.1676C23.1066 16.1676 25.1292 16.4342 27.5107 16.76ZM16.8753 19.0132C16.5277 19.3659 16.4365 19.9611 16.5256 21.2964C16.6408 23.0242 17.0797 24.4762 17.8732 25.7553C18.4738 26.7236 19.1761 26.9417 19.766 26.3434C20.2092 25.8939 20.1741 25.4923 19.6082 24.5383C18.8535 23.2656 18.5995 21.9884 18.5973 19.4535C18.5972 19.3477 18.4714 19.143 18.3179 18.9987C17.922 18.6266 17.2499 18.6334 16.8753 19.0132ZM42.8565 27.673C42.7048 27.7565 42.5186 27.9774 42.4425 28.1637C42.2901 28.5368 42.2989 28.5796 42.8553 30.1881C43.1865 31.1455 43.3959 32.3747 43.3959 33.3614C43.3959 33.8699 43.4381 33.9934 43.7044 34.2634C44.3261 34.8939 45.2959 34.5566 45.4635 33.6514C45.5557 33.1532 45.3667 31.2379 45.1377 30.3487C44.532 27.9977 43.808 27.1485 42.8565 27.673ZM22.2197 37.622C21.808 37.8037 21.6574 38.0727 21.6574 38.6267C21.6574 38.9706 21.7197 39.1055 21.9821 39.3294C22.1897 39.5068 22.4339 39.6065 22.6599 39.6065C22.8858 39.6065 23.13 39.5068 23.3377 39.3294C23.6 39.1055 23.6624 38.9706 23.6624 38.6267C23.6624 38.0637 23.5099 37.801 23.0769 37.6174C22.6477 37.4356 22.6421 37.4356 22.2197 37.622ZM32.6295 48.0356C33.2114 52.3477 33.6874 55.8997 33.6874 55.9288C33.6874 55.9579 33.0517 55.9817 32.2748 55.9817H30.8622L30.7918 55.5057C30.6848 54.782 30.151 53.8009 29.5821 53.2821C29.3042 53.0287 28.5717 52.4849 27.9544 52.0737C27.337 51.6625 26.831 51.2949 26.8301 51.2569C26.828 51.1784 31.3512 40.1463 31.4531 39.9811C31.5354 39.8479 31.3953 38.8886 32.6295 48.0356ZM22.6222 51.7341C24.919 52.5979 25.0349 52.6558 26.5906 53.7196C28.1441 54.7816 28.511 55.1205 28.6705 55.6412C28.7465 55.8893 28.7459 55.8894 27.972 55.8214C24.0128 55.4731 20.69 55.0212 20.1001 54.7507C19.6853 54.5605 19.3367 54.017 19.3362 53.5596C19.3358 53.2424 20.1247 50.8444 20.2295 50.8444C20.2443 50.8444 21.3209 51.2448 22.6222 51.7341ZM42.7522 53.2295C44.5784 53.7937 44.9375 53.9391 45.1195 54.1873C45.2375 54.3481 45.3093 54.5048 45.2792 54.5354C45.097 54.7202 36.6956 55.8313 36.2802 55.7256C35.8728 55.6219 35.7088 55.2637 35.63 54.3057L35.5583 53.4342L36.1266 53.3177C36.4393 53.2536 37.4547 53.0369 38.3834 52.8362C39.312 52.6354 40.1905 52.4922 40.3356 52.5177C40.4807 52.5433 41.5682 52.8637 42.7522 53.2295Z" fill="#427BFD"/>
</svg>
