<svg viewBox="0 0 64 64" fill="none" xmlns="http://www.w3.org/2000/svg">
<path fill-rule="evenodd" clip-rule="evenodd" d="M18.5384 12.0847C18.2665 12.222 18.4778 11.8954 13.5352 19.8201C11.2578 23.4715 9.38803 26.4673 9.38001 26.4774C9.37199 26.4876 9.16882 26.4435 8.92852 26.3794C8.56521 26.2826 8.44728 26.292 8.22912 26.4347C7.92531 26.6336 5.10506 31.8475 5.02087 32.3659C4.98132 32.6089 5.03111 32.7638 5.21603 32.9731C5.35401 33.1294 12.953 37.4041 22.3424 42.6074L39.2207 51.9608L46.183 51.991C50.5093 52.0098 53.4847 51.9801 54.0417 51.9126C56.4133 51.6253 58.4726 49.7227 58.8867 47.4364C58.9495 47.0899 59 45.5194 59 43.913C59 41.6012 58.9655 40.8749 58.8296 40.3231C58.3268 38.2809 56.7726 36.6428 54.7804 36.0557C54.4008 35.9438 52.7084 35.7765 49.8845 35.5719C47.5107 35.3998 45.5599 35.247 45.5494 35.2322C45.5387 35.2176 43.7425 32.2262 41.5579 28.5848L37.5857 21.9641L37.5846 21.1029C37.583 19.7538 37.1421 18.9797 36.1088 18.5117C35.2477 18.1217 35.0473 18.1702 30.8571 19.7816C28.7269 20.6008 26.9042 21.2931 26.8066 21.32C26.6531 21.3623 26.6702 21.2329 26.9361 20.3482C27.3589 18.9416 27.4083 18.459 27.2088 17.6813C27.0045 16.885 26.6746 16.3474 26.0581 15.8068C25.5235 15.3381 19.4394 12.0475 19.0261 12.0037C18.8774 11.9879 18.658 12.0244 18.5384 12.0847ZM22.022 15.5996C23.4763 16.3792 24.7932 17.1498 24.9482 17.3121C25.2708 17.6499 25.4544 18.0745 25.4544 18.4831C25.4544 18.8792 24.6977 21.4535 24.5812 21.4535C24.5287 21.4535 22.8989 20.5019 20.9596 19.3389L17.4335 17.2245L17.6726 16.8341C17.8043 16.6194 18.22 15.9349 18.5967 15.313C18.9734 14.6911 19.3032 14.1823 19.3296 14.1823C19.3558 14.1823 20.5675 14.8202 22.022 15.5996ZM20.6122 21.3016C22.8891 22.6671 24.8821 23.8103 25.0412 23.8421C25.2548 23.8848 26.59 23.4145 30.1446 22.0444C32.7923 21.0238 35.0655 20.1889 35.1962 20.1889C35.5767 20.1889 35.6868 20.3938 35.6868 21.1016V21.7614L33.9751 23.0564C33.0336 23.7687 32.1956 24.4732 32.1128 24.6221C32.0221 24.7852 31.9899 25.0029 32.0317 25.1695C32.115 25.5008 41.5095 37.7346 41.8 37.8899C42.1314 38.067 42.4161 38.0198 43.8308 37.5534L45.1792 37.1089L49.4212 37.4067C51.7544 37.5706 53.9243 37.7726 54.2433 37.8556C55.4313 38.1647 56.4389 39.0831 56.8789 40.2578C57.0738 40.778 57.1012 41.078 57.1012 42.6914V44.5315H48.8672H40.6331L37.5007 42.7308C35.7779 41.7404 34.3493 40.9113 34.3262 40.8886C34.3031 40.8658 34.7885 40.3256 35.4049 39.6883C36.0212 39.051 36.5559 38.409 36.5929 38.2618C36.6744 37.9369 36.4664 37.3951 36.2068 37.2564C36.1025 37.2006 35.8604 37.155 35.6688 37.155C35.363 37.155 35.1527 37.3222 33.9469 38.5243L32.5733 39.8936L30.8533 38.9046C29.9073 38.3607 29.134 37.8839 29.1348 37.8451C29.1356 37.8062 29.9099 37.1597 30.8556 36.4083C31.8013 35.6568 32.6619 34.9017 32.7683 34.7302C33.1261 34.1533 32.7949 33.5148 32.0773 33.3984C31.7323 33.3425 31.5942 33.433 29.6116 35.0146C28.4565 35.9361 27.4545 36.7248 27.3849 36.7674C27.3114 36.8123 26.631 36.4819 25.762 35.9796L24.2656 35.1145L24.6226 34.8262C24.819 34.6676 25.9053 33.7634 27.0367 32.8167C29.0662 31.1188 29.0942 31.0897 29.1261 30.649C29.1679 30.0727 28.8152 29.6731 28.2647 29.6731C27.9457 29.6731 27.5727 29.9462 25.2434 31.886C23.7818 33.1032 22.5647 34.099 22.5387 34.099C22.5126 34.099 22.1848 33.9229 21.8104 33.7077L21.1293 33.3164L21.1331 32.6803C21.1352 32.3304 21.1807 31.2622 21.2341 30.3065C21.3431 28.3543 21.2554 27.3952 20.871 26.3373C20.286 24.7274 19.3672 23.6999 16.9276 21.9277C16.05 21.2901 15.3309 20.7324 15.3297 20.6881C15.3277 20.6184 16.4034 18.8336 16.4538 18.823C16.4642 18.8208 18.3354 19.9362 20.6122 21.3016ZM16.1121 23.6554C18.3211 25.3233 18.8818 26.0083 19.288 27.536C19.5118 28.3771 19.3974 32.2482 19.1516 32.154C19.0668 32.1215 17.1997 31.064 15.0026 29.8038C12.4594 28.3452 11.0251 27.4642 11.0553 27.3791C11.1227 27.1892 14.2101 22.3059 14.2661 22.3007C14.2915 22.2984 15.1222 22.908 16.1121 23.6554ZM40.0018 29.6019C41.98 32.8954 43.5986 35.6059 43.5986 35.625C43.5986 35.6442 43.3752 35.7358 43.1022 35.8288C42.7042 35.9643 42.5814 35.9715 42.4826 35.865C42.1353 35.4912 34.316 25.255 34.3194 25.1785C34.323 25.099 36.3465 23.5506 36.3881 23.5956C36.3974 23.6056 38.0235 26.3084 40.0018 29.6019ZM24.6105 37.4841L40.0647 46.3757L48.5963 46.4044L57.1281 46.4332L57.0744 46.909C56.9542 47.974 56.0965 49.1808 55.0969 49.6913C54.3154 50.0905 53.798 50.1166 46.6912 50.1166H39.7728L23.5678 41.1475C14.6551 36.2145 7.32476 32.1431 7.27814 32.1003C7.19216 32.0211 9.00436 28.5081 9.10289 28.5629C9.13222 28.5792 16.1107 32.5937 24.6105 37.4841ZM5.29778 39.2545C4.95389 39.598 4.91486 39.8666 5.14451 40.3102C5.3884 40.7813 5.75244 40.8433 8.2787 40.8433C10.9366 40.8433 11.2177 40.7834 11.4188 40.1749C11.5204 39.8672 11.5124 39.7454 11.3725 39.4752C11.2795 39.2953 11.0837 39.1027 10.9377 39.0473C10.7917 38.9919 9.53223 38.9464 8.13914 38.9464H5.60613L5.29778 39.2545ZM5.29778 44.8396C4.95241 45.1847 4.91486 45.4516 5.14831 45.9026C5.25411 46.1072 5.43882 46.248 5.70212 46.3249C5.97408 46.4043 8.00854 46.4302 12.2334 46.4079L18.3697 46.3757L18.6419 46.1202C18.9417 45.8389 19.0107 45.2456 18.7788 44.9439C18.4669 44.5381 18.3578 44.5315 11.8978 44.5315H5.60613L5.29778 44.8396ZM5.29778 50.4247C4.95241 50.7698 4.91486 51.0367 5.14831 51.4877C5.25432 51.6927 5.4384 51.8327 5.70212 51.9092C5.97872 51.9895 9.46799 52.0144 17.3496 51.9923L28.6021 51.9608L28.8743 51.7053C29.2564 51.3466 29.2533 50.7323 28.8674 50.375L28.5883 50.1166H17.0972H5.60613L5.29778 50.4247Z" fill="#427BFD"/>
</svg>
