<svg viewBox="0 0 64 64" fill="none" xmlns="http://www.w3.org/2000/svg">
<path fill-rule="evenodd" clip-rule="evenodd" d="M38.7542 9.26733C38.877 8.82333 39.3678 8.25172 39.759 8.09708C40.143 7.94533 42.4382 7.97991 42.7577 8.1423C43.3311 8.43372 43.5507 8.78926 43.833 9.88312L44.105 10.9373L44.7364 11.3192C45.0837 11.5292 45.463 11.7032 45.5793 11.706C45.6955 11.7088 46.161 11.5955 46.6136 11.4542C47.5515 11.1617 47.9264 11.1377 48.4095 11.3396C48.8469 11.5225 49.2067 11.9136 49.6897 12.7316C50.5454 14.1804 50.4546 14.7343 49.1639 15.9406L48.371 16.6816L48.4017 17.4753L48.4325 18.269L50.9687 18.3206C53.7877 18.378 53.956 18.4161 54.6877 19.1632C55.3582 19.8477 55.455 20.2317 55.4576 22.2177C55.4597 23.8625 55.4437 24.0142 55.2485 24.2049C55.0208 24.4274 54.6124 24.4728 54.3016 24.3103C53.9743 24.1392 53.8748 23.6153 53.8748 22.0629V20.5711L53.5155 20.2201L53.1562 19.8691H51.6062H50.0562L50.1426 20.1014C50.1901 20.2291 50.2215 20.5775 50.2122 20.8756L50.1954 21.4176H51.0676C51.7771 21.4176 51.9724 21.4527 52.114 21.6056C52.2738 21.7781 52.2884 22.8464 52.2905 34.5258C52.2926 46.2754 52.2792 47.2726 52.1163 47.4484C51.946 47.6323 51.2477 47.6389 32.0184 47.6389C13.6295 47.6389 12.082 47.6258 11.9037 47.4681C11.7251 47.3102 11.7104 47.0749 11.7104 44.3786V41.4599L11.9888 41.246C12.3513 40.9675 12.5828 40.9759 12.9461 41.281L13.2427 41.5299L13.2765 43.8102L13.3103 46.0904H32.0074H50.7045V34.5283V22.9661H49.9248C49.3276 22.9661 49.1113 23.0062 49.0002 23.1373C48.8071 23.3652 48.0767 23.6837 47.7404 23.6865C47.5922 23.6877 47.0374 23.5559 46.5073 23.3936L45.5438 23.0985L44.8117 23.5178L44.0798 23.937L43.8467 24.9465C43.6553 25.7758 43.5518 26.0203 43.267 26.3152C43.0763 26.5127 42.7903 26.7227 42.6313 26.7816C42.1881 26.9463 40.0784 26.9184 39.7354 26.7433C39.1411 26.44 38.8809 26.0436 38.6422 25.0776C38.5166 24.5692 38.4 24.0983 38.3831 24.031C38.3662 23.9637 38.0134 23.7258 37.5992 23.5023L36.8458 23.096L35.876 23.4015C34.722 23.7652 34.2834 23.7423 33.6168 23.2832C33.1903 22.9895 33.09 22.9661 32.2611 22.9661C31.7688 22.9661 31.3681 23.001 31.3706 23.0435C31.3731 23.0861 31.4342 23.3986 31.5065 23.7378L31.6377 24.3545L32.3629 24.7615C33.0537 25.1492 33.1086 25.1628 33.5215 25.0495C35.0608 24.6269 35.2531 24.5907 35.6112 24.6564C36.2739 24.7778 36.6484 25.1231 37.2482 26.1658C38.1007 27.6475 37.9918 28.294 36.7019 29.4071L36.0157 29.9993V30.8575V31.7158L36.7069 32.3086C37.9347 33.3617 38.0839 34.0143 37.3908 35.3C36.8047 36.3871 36.5734 36.6639 36.0405 36.9158C35.4944 37.1741 35.082 37.1448 33.9368 36.7662L33.1788 36.5156L32.4249 36.9223C32.0104 37.146 31.6536 37.384 31.6322 37.4513C31.6109 37.5186 31.5159 37.9304 31.4212 38.3665C31.229 39.2522 30.9518 39.7266 30.4231 40.0746C30.1007 40.2869 29.9433 40.3093 28.7769 40.3093C27.6134 40.3093 27.453 40.2866 27.1379 40.0771C26.5961 39.7169 26.4199 39.4065 26.1563 38.3479L25.9119 37.3672L25.195 36.9363C24.4812 36.5071 24.4764 36.506 24.0457 36.6544C21.9277 37.3844 21.2979 37.201 20.3373 35.5741C19.4701 34.1053 19.5412 33.6171 20.7968 32.4199L21.6438 31.6123V30.853V30.0939L20.8553 29.3569C19.5829 28.1676 19.4809 27.5986 20.2934 26.2204C21.246 24.6048 21.7908 24.3695 23.4099 24.8746C23.8625 25.0158 24.328 25.1292 24.4442 25.1264C24.5605 25.1236 24.9408 24.9489 25.2894 24.7381C25.8725 24.3856 25.933 24.3139 26.0454 23.8412C26.1126 23.5586 26.1721 23.2462 26.1777 23.1468C26.1872 22.9765 25.8144 22.9661 19.7442 22.9661H13.3006L13.2716 30.8725L13.2427 38.7788L12.9461 39.0279C12.5768 39.3382 12.325 39.3427 11.9871 39.0447L11.7238 38.8125L11.6906 30.3326C11.6586 22.1144 11.6638 21.8461 11.8588 21.6352L12.0602 21.4176H22.1708H32.2816L32.2346 20.8646C32.2082 20.5534 32.2407 20.2149 32.3089 20.0903L32.4301 19.8691H21.637H10.8438L10.4845 20.2201L10.1252 20.5711V34.5283V48.4854L10.4845 48.8364L10.8438 49.1874H32H53.1562L53.5155 48.8364L53.8748 48.4854V37.8155C53.8748 31.2891 53.9143 27.0112 53.9764 26.7993C54.1593 26.1765 54.7788 25.9674 55.2286 26.3768L55.4599 26.5873L55.4633 36.3131C55.4652 41.6622 55.4821 46.3872 55.5009 46.813C55.5339 47.5614 55.4403 48.5791 55.2945 49.0584L55.2239 49.2906H56.7669H58.3097L58.6549 49.592L59 49.8933V51.6309C59 53.6241 58.9073 53.9479 58.089 54.8152C57.5286 55.4092 56.8529 55.7534 55.9737 55.8927C55.0497 56.0391 49.1436 56.0343 48.7102 55.8868C48.1853 55.708 47.9955 55.1357 48.3181 54.7043C48.4601 54.5145 48.6633 54.5011 52.2017 54.4482C56.1116 54.3898 56.3034 54.3672 56.8212 53.9034C57.2942 53.4799 57.4628 52.9412 57.4654 51.8457L57.4677 50.8392H47.5984H37.7291L37.6137 51.4789C37.4794 52.2236 37.1181 52.7273 36.4856 53.0514C36.0848 53.2568 35.9099 53.2651 32 53.2651C28.0901 53.2651 27.9152 53.2568 27.5144 53.0514C26.8819 52.7273 26.5206 52.2236 26.3863 51.4789L26.2709 50.8392H16.4016H6.53229L6.53461 51.8457C6.53715 52.9412 6.70581 53.4799 7.17881 53.9034C7.23012 53.9494 7.26927 53.9911 7.31184 54.0289C7.7524 54.4207 8.55857 54.4014 26.9804 54.4262L45.8963 54.4518L46.0812 54.6699C46.3236 54.9559 46.3162 55.4014 46.0641 55.7055L45.8621 55.9492L27.3332 55.9775C14.8359 55.9967 8.5696 55.9708 8.08318 55.898C7.16211 55.7602 6.48347 55.4219 5.91103 54.8152C5.09268 53.9479 5 53.6241 5 51.6309V49.8933L5.34514 49.592L5.69027 49.2906H7.22087C8.09977 49.2906 8.75147 49.2496 8.75147 49.1941C8.75147 49.1411 8.70962 48.99 8.65847 48.8586C8.60733 48.7272 8.54794 42.3017 8.52638 34.5799L8.48728 20.5401L8.73044 20.024C9.04852 19.3489 9.52533 18.869 10.1781 18.567L10.7065 18.3227L22.3571 18.3216L34.0078 18.3206V17.4519V16.5831L33.3129 15.9871C31.9023 14.7772 31.8681 14.0726 33.1268 12.1461C33.382 11.7557 33.6134 11.5409 33.9313 11.3999C34.5213 11.1383 34.8468 11.1475 35.8571 11.454C36.3221 11.5951 36.7739 11.7104 36.8611 11.71C36.9482 11.7098 37.3245 11.5361 37.6973 11.3242C38.3691 10.9419 38.3761 10.9333 38.5046 10.3196C38.576 9.97913 38.6883 9.5056 38.7542 9.26733ZM42.4124 10.7073C42.3153 10.2672 42.2121 9.82572 42.1832 9.72641C42.1385 9.5728 41.9979 9.54576 41.2457 9.54576C40.759 9.54576 40.3396 9.58055 40.3136 9.62318C40.2876 9.66582 40.1833 10.0722 40.0819 10.5265C39.7851 11.857 39.6599 12.0132 38.2669 12.7906C37.2257 13.3715 36.7811 13.4082 35.6009 13.0105C35.1693 12.865 34.7633 12.746 34.6987 12.746C34.5667 12.746 33.7948 14.005 33.7995 14.2125C33.8012 14.286 34.1097 14.6016 34.4851 14.9139C35.4423 15.7102 35.593 16.0521 35.593 17.4274C35.593 18.1318 35.5402 18.6569 35.4479 18.873C35.3681 19.0595 34.9643 19.511 34.5507 19.8762C34.137 20.2414 33.7981 20.6037 33.7975 20.6814C33.7964 20.8345 34.4921 21.9982 34.637 22.0857C34.6856 22.1151 35.1928 21.9985 35.7639 21.8268C36.4633 21.6164 36.9068 21.5359 37.1223 21.5801C37.5156 21.6607 38.8643 22.3727 39.2959 22.7274C39.7265 23.0814 39.8219 23.2802 40.0791 24.3598L40.3004 25.2889L41.2127 25.3186L42.1249 25.3482L42.3012 24.5443C42.5975 23.1934 42.8017 22.8918 43.8356 22.2779C44.3296 21.9845 44.9501 21.6918 45.2144 21.6274C45.6477 21.5218 45.7922 21.5412 46.6895 21.8253C47.2366 21.9985 47.7197 22.1402 47.763 22.1402C47.8065 22.1402 48.0412 21.807 48.2846 21.3997L48.7273 20.6594L47.877 19.8771C46.9018 18.98 46.7957 18.7412 46.7957 17.4431C46.7957 16.1438 46.9014 15.9067 47.8818 15.0046L48.737 14.218L48.2894 13.4819C48.0433 13.0772 47.8022 12.746 47.7538 12.746C47.7055 12.746 47.2202 12.8795 46.6754 13.0427C46.0778 13.2217 45.5511 13.3198 45.3476 13.2899C44.8236 13.2131 43.0763 12.2084 42.816 11.834C42.6911 11.6544 42.5094 11.1474 42.4124 10.7073ZM36.9641 16.7951C37.2468 15.2091 38.4021 13.9005 39.9559 13.4063C40.2425 13.315 40.759 13.2756 41.4051 13.2954C42.2414 13.321 42.5094 13.3733 43.0105 13.6085C43.9359 14.0429 44.6142 14.7015 45.0756 15.6135C45.4564 16.3661 45.4736 16.4452 45.4736 17.4431C45.4736 18.4395 45.4559 18.521 45.0789 19.2662C44.6036 20.2059 43.9917 20.7911 43.0092 21.2457C42.3562 21.548 42.2203 21.5725 41.1937 21.5725C40.1586 21.5725 40.0375 21.5502 39.3894 21.2404C37.6799 20.4232 36.6529 18.5407 36.9641 16.7951ZM31.7436 26.2136C30.38 25.4533 30.2269 25.2437 29.8602 23.6371L29.7189 23.0177L28.8071 22.988C28.32 22.9721 28.0859 22.9408 27.9471 23.0412C27.79 23.1549 27.755 23.4372 27.6134 24.1017C27.3769 25.2106 27.1393 25.5032 25.9523 26.1455C24.7546 26.7937 24.4133 26.8289 23.1805 26.4318C22.7178 26.2828 22.2842 26.1815 22.2169 26.2067C22.1495 26.232 21.9148 26.5664 21.6953 26.9499L21.2961 27.6471L22.1489 28.4294C22.6693 28.9069 23.0357 29.3324 23.0888 29.5214C23.2009 29.919 23.2023 31.8039 23.091 32.1951C23.0417 32.368 22.6455 32.83 22.1523 33.2896L21.299 34.085L21.6914 34.7702C21.9072 35.1471 22.1262 35.4812 22.1782 35.5126C22.2302 35.544 22.7417 35.4244 23.3149 35.247C24.5604 34.8613 24.7231 34.8846 26.0822 35.6443C27.1082 36.2178 27.3907 36.5525 27.5635 37.3994C27.6295 37.7223 27.7297 38.1626 27.7862 38.3776L27.889 38.7687L28.804 38.7389L29.7189 38.7092L29.8613 38.0898C30.1762 36.7217 30.2284 36.5951 30.6197 36.2497C31.0817 35.8419 32.4493 35.0932 32.9012 35.0005C33.1167 34.9563 33.5602 35.0368 34.2595 35.2472C34.8307 35.4189 35.3397 35.5343 35.3905 35.5036C35.525 35.4224 36.2272 34.2294 36.2261 34.0839C36.2255 34.016 35.9214 33.705 35.5501 33.3927C34.5275 32.5326 34.4305 32.3139 34.4305 30.8701C34.4305 29.4132 34.4898 29.2755 35.5283 28.3218L36.2798 27.6314L36.0157 27.1524C35.8704 26.889 35.6531 26.5527 35.5328 26.4052L35.3141 26.1369L34.4362 26.4226C33.1933 26.8269 32.7873 26.7955 31.7436 26.2136ZM26.2354 34.2348C23.4746 32.1964 24.1175 28.0593 27.3786 26.8786C27.8146 26.7207 28.1454 26.6849 28.9438 26.7091C29.8337 26.7363 30.0392 26.78 30.644 27.0709C32.3229 27.8784 33.3054 29.665 33.0535 31.4529C32.8658 32.7852 31.9019 34.0603 30.634 34.6538C29.2561 35.2986 27.4422 35.1259 26.2354 34.2348ZM31.2646 29.7367C30.9772 29.1566 30.2494 28.5145 29.6955 28.3524C27.8438 27.8104 26.0868 29.0329 26.0868 30.8635C26.0868 31.9147 26.6229 32.7615 27.5849 33.2298C28.9687 33.9035 30.7378 33.2542 31.3392 31.8517C31.5789 31.2927 31.5439 30.3002 31.2646 29.7367ZM35.7446 51.6676C35.9648 51.5857 36.0157 51.4986 36.0157 51.203V50.8392H32H27.9843V51.203C27.9843 51.4986 28.0352 51.5857 28.2554 51.6676C28.4116 51.7256 29.9988 51.7683 32 51.7683C34.0012 51.7683 35.5884 51.7256 35.7446 51.6676ZM43.8972 17.9499C44.1377 16.6974 43.4474 15.469 42.2217 14.9687C41.7848 14.7903 40.789 14.7766 40.2609 14.9417C39.7151 15.1123 38.9127 15.8789 38.6933 16.4395C38.5039 16.9229 38.4451 17.9652 38.5939 18.2003C38.8828 19.3245 39.9191 19.8501 40.4012 19.9723C40.5174 20.0212 40.8978 20.061 41.2466 20.061C41.5953 20.061 41.9757 20.0212 42.092 19.9723C42.612 19.862 43.6868 19.3771 43.826 18.3206L43.8972 17.9499Z" fill="#427BFD"/>
</svg>
