<svg viewBox="0 0 64 64" fill="none" xmlns="http://www.w3.org/2000/svg">
<path fill-rule="evenodd" clip-rule="evenodd" d="M9.61022 5.26728L9.34263 5.53445V10.4931V15.4516H8.73824C8.24776 15.4516 8.08503 15.5003 7.87564 15.7094L7.61765 15.9671L7.56675 25.2084C7.52653 32.4986 7.47889 34.8518 7.34112 36.3548C7.11637 38.8048 6.79221 41.3325 6.44746 43.3226C6.16472 44.9548 6.13137 45.1176 5.46878 48.1043C4.99312 50.2481 4.90701 51.2011 5.08707 52.3284C5.61538 55.6356 8.11434 58.2201 11.389 58.8458C12.0019 58.963 13.2475 58.9999 16.5733 58.9993C21.729 58.9986 22.3351 58.934 24.7111 58.1326C26.7735 57.4369 27.8213 57.2581 29.834 57.2581C31.8467 57.2581 32.8945 57.4369 34.957 58.1326C37.1047 58.8572 38.1239 58.9986 41.2018 58.9993L43.6865 59L43.954 58.7327C44.1011 58.5857 44.2216 58.3914 44.2216 58.3008C44.2216 58.1561 44.9483 58.1324 50.1891 58.1054L56.1567 58.0746L56.8376 57.7605C57.6484 57.3864 58.2938 56.7287 58.7007 55.8618C59.0844 55.0442 59.1016 53.6801 58.7384 52.8715C58.418 52.1583 57.5181 51.2345 56.8742 50.9578C56.5852 50.8336 54.2171 50.259 51.6118 49.6808L46.8748 48.6296L46.7744 48.2948C46.6859 47.9998 45.7227 47.3569 38.6627 42.8817C31.5691 38.385 30.5502 37.7047 29.768 36.943C29.0587 36.2524 28.7948 35.9001 28.4308 35.1573C27.646 33.5564 27.6581 33.7245 27.6559 24.3469L27.6541 15.9861L27.3865 15.7189C27.1669 15.4994 27.011 15.4516 26.5145 15.4516H25.9101V10.4931V5.53445L25.6425 5.26728L25.3751 5H17.6264H9.87769L9.61022 5.26728ZM24.1662 11.0968V15.4516H17.6264H11.0866V11.0968V6.74194H17.6264H24.1662V11.0968ZM25.9101 19.371V21.5484H17.6264H9.34263V19.371V17.1935H17.6264H25.9101V19.371ZM12.8305 25.0323V26.7742H11.0866H9.34263V25.0323V23.2903H11.0866H12.8305V25.0323ZM25.9101 25.0323V26.7742H20.2423H14.5745V25.0323V23.2903H20.2423H25.9101V25.0323ZM25.9382 30.9929C25.9755 32.8845 26.0321 33.637 26.1774 34.1774C26.4211 35.0839 27.0888 36.4831 27.5901 37.1376C27.8051 37.4185 27.9811 37.6869 27.9811 37.734C27.9811 37.7813 26.5341 39.2681 24.7657 41.0381C21.8007 44.0056 21.5503 44.2855 21.5503 44.6302C21.5503 44.9713 21.7443 45.198 23.7604 47.2118C25.7778 49.2268 26.0032 49.4194 26.3455 49.4194C26.6922 49.4194 26.998 49.1432 30.4298 45.7306L34.1394 42.0418L34.7934 42.4713C35.153 42.7077 35.7602 43.0985 36.1425 43.34L36.8378 43.7791L33.9898 46.6312C31.374 49.2508 31.142 49.5136 31.142 49.8566C31.142 50.197 31.3372 50.425 33.3521 52.4376C35.3689 54.452 35.595 54.6452 35.9368 54.6452C36.2828 54.6452 36.5744 54.3834 39.7488 51.2233L43.1861 47.8014L43.9218 48.2821C44.3264 48.5464 44.6576 48.7809 44.6576 48.8031C44.6576 48.8255 44.415 49.304 44.1186 49.8664C43.0945 51.8097 42.4776 54.2559 42.4776 56.3738V57.2581H40.5845C38.2599 57.2581 37.3141 57.1052 35.1747 56.3835C33.2271 55.7266 31.9375 55.5174 29.834 55.5174C27.7305 55.5174 26.4409 55.7266 24.4933 56.3835C22.264 57.1355 21.447 57.2581 18.6642 57.2581H16.3517L16.2853 55.9788C16.2032 54.3985 15.9213 53.2672 15.2765 51.9288C14.3406 49.9865 12.9212 48.4266 11.1411 47.3839C10.39 46.9441 9.08703 46.4209 8.32732 46.2544C7.75041 46.1279 7.69907 46.0933 7.7552 45.8699C7.94954 45.0967 8.60091 40.9145 8.78784 39.2399C9.12464 36.2238 9.2333 34.5924 9.30829 31.4284L9.3774 28.5161H17.6334H25.8894L25.9382 30.9929ZM31.1798 40.1764L32.5802 41.0685L31.0982 42.5488L29.6161 44.0292L28.282 42.6967L26.948 41.3642L28.1417 40.1682C29.2624 39.0453 29.3491 38.9816 29.5575 39.1281C29.6796 39.214 30.4096 39.6857 31.1798 40.1764ZM27.055 43.9762L28.3602 45.2832L27.353 46.2892L26.3459 47.2951L25.0122 45.9629L23.6785 44.6308L24.6558 43.6501C25.1934 43.1107 25.6594 42.6694 25.6916 42.6694C25.7237 42.6694 26.3373 43.2575 27.055 43.9762ZM40.4612 46.0771C40.9408 46.3783 41.394 46.6791 41.4684 46.7457C41.5725 46.8388 41.3276 47.1416 40.4051 48.0601L39.2064 49.2537L37.8734 47.9221L36.5402 46.5906L37.4553 45.6719L38.3702 44.7533L38.9797 45.1415C39.315 45.355 39.9816 45.776 40.4612 46.0771ZM9.39309 48.4378C12.4257 49.7363 14.5745 53.0652 14.5745 56.465V57.2859L13.0758 57.2294C11.9201 57.1858 11.4218 57.1183 10.8988 56.9343C9.09532 56.3 7.65634 54.8466 7.03604 53.0328C6.69074 52.0232 6.68889 50.5123 7.03114 49.0927C7.16836 48.5239 7.30058 47.9997 7.3251 47.9278C7.37644 47.7775 8.49518 48.0534 9.39309 48.4378ZM36.6467 49.202L37.9519 50.509L36.9447 51.515L35.9376 52.5209L34.6039 51.1887L33.2702 49.8566L34.2475 48.8759C34.7851 48.3365 35.2511 47.8952 35.2833 47.8952C35.3155 47.8952 35.929 48.4833 36.6467 49.202ZM56.3133 52.6443C57.6865 53.4545 57.5349 55.5098 56.0522 56.1824C55.643 56.3682 55.2058 56.3825 49.9016 56.3847L44.1916 56.3871L44.2678 55.4493C44.3948 53.8862 45.0673 51.6436 45.7371 50.5495L45.9449 50.2101L50.9598 51.3272C53.7542 51.9497 56.1246 52.533 56.3133 52.6443Z" fill="#427BFD"/>
</svg>
