<svg viewBox="0 0 188 182" fill="none" xmlns="http://www.w3.org/2000/svg">
<g filter="url(#filter0_d_711_432)">
<path fill-rule="evenodd" clip-rule="evenodd" d="M104.513 133.805C84.5 135.416 64.886 126.944 51.6384 111.868C37.5645 95.852 27.431 73.9191 34.0986 53.6725C40.3565 34.6701 62.4747 28.3373 81.3458 21.6602C96.8806 16.1635 113.615 12.8979 128.319 20.3345C142.712 27.614 150.425 42.7261 154.055 58.4331C157.698 74.2006 156.574 90.6096 147.683 104.135C137.596 119.483 122.828 132.33 104.513 133.805Z" fill="#427BFD"/>
</g>
<path fill-rule="evenodd" clip-rule="evenodd" d="M93.3084 48.1015C92.5608 48.3142 91.9018 48.7574 91.3543 49.4158C88.8841 52.3863 86.6814 53.9822 83.8051 54.8856C83.1246 55.0994 82.3319 55.4265 82.0435 55.6125C80.7874 56.4231 80.0035 57.8447 80 59.318C79.9961 60.9964 80.8634 64.0193 81.9502 66.1151C82.6302 67.4265 82.6327 67.4344 82.5102 67.9098C82.1593 69.2723 82.2057 70.8872 82.6332 72.1816C83.0934 73.5751 84.2517 75.1115 85.383 75.8286L85.9657 76.198L85.9707 79.811L85.9757 83.4238L85.573 83.6307C85.0099 83.9199 84.2383 84.7387 83.931 85.3733C83.5827 86.0923 83.4591 86.8252 83.4591 88.1698V89.2939L82.9516 89.6753C81.6925 90.6215 80.6903 92.5673 80.2488 94.9232C79.5755 98.5153 81.7549 101.461 85.4514 101.956C86.1321 102.047 87.1779 101.848 88.2887 101.416C89.7698 100.841 90.2789 100.833 92.3721 101.357C95.1153 102.043 96.4124 102.138 98.9783 101.841C102.407 101.444 104.728 100.71 105.855 99.6634C106.117 99.4203 106.466 98.931 106.659 98.537C106.967 97.9065 107 97.7491 107 96.8857C107 96.0209 106.968 95.8655 106.657 95.2294C106.012 93.9122 104.699 93.0198 103.382 93.0049C103.065 93.0013 102.259 93.0367 101.591 93.0833C100.173 93.1826 99.6241 93.0872 98.4795 92.5424C97.6081 92.1276 96.5936 91.2306 95.9762 90.3292L95.5703 89.7365L95.5089 88.0337C95.4593 86.6568 95.4055 86.2234 95.2281 85.7699C94.914 84.9671 94.2736 84.1721 93.5967 83.7448L93.0114 83.3754V79.7867V76.198L93.5952 75.8286C94.7319 75.1095 95.8224 73.6757 96.3132 72.2553C96.9661 70.3655 96.8404 68.3128 95.9667 66.5987L95.7622 66.1975L96.3364 65.2387C97.4071 63.4512 98.1141 61.4871 98.502 59.2235C98.6418 58.4072 98.6427 58.256 98.5091 57.9961C98.3463 57.679 98.1583 57.5685 97.7821 57.5685C97.3807 57.5685 97.1139 57.9759 96.9868 58.7825C96.6603 60.8552 95.6767 63.5822 94.9138 64.53L94.7053 64.7891L94.1717 64.3064C93.5216 63.718 92.243 63.0346 91.3235 62.784C90.4877 62.5563 88.6815 62.5257 87.8632 62.7255C87.546 62.803 86.8382 63.0818 86.2903 63.3451C85.4438 63.752 85.1549 63.9637 84.3675 64.7548L83.4408 65.6857L83.0319 64.8075C82.4869 63.6365 82.0474 62.2559 81.7862 60.8932C81.531 59.5623 81.5208 59.1505 81.7259 58.4585C82.03 57.4324 82.7903 56.8059 84.1934 56.425C87.058 55.6472 89.8723 53.6867 92.1912 50.8535C93.0377 49.8191 93.6312 49.4944 94.5367 49.5699C95.2689 49.631 96.0126 50.0921 96.3393 50.6872C96.6337 51.2239 96.9308 52.6503 97.0885 54.2854C97.1524 54.9468 97.2511 55.5756 97.308 55.6826C97.5447 56.1281 98.4022 56.0399 98.6373 55.5461C98.9141 54.9647 98.3485 51.2109 97.8178 50.1077C97.4279 49.2971 96.6658 48.5851 95.8537 48.2725C95.1276 47.9932 93.9641 47.915 93.3084 48.1015ZM90.642 64.2721C92.0986 64.5812 93.3885 65.464 94.2149 66.7172C95.6922 68.9575 95.3816 71.9549 93.4732 73.8759C92.3895 74.9667 91.0679 75.5119 89.5078 75.5119C87.9278 75.5119 86.6134 74.9745 85.5131 73.8784C84.4131 72.7828 83.8534 71.4141 83.8539 69.8212C83.8544 68.2395 84.3711 66.9971 85.5071 65.8457C86.92 64.4138 88.7163 63.8633 90.642 64.2721ZM88.2826 66.718C87.5497 66.9873 86.5896 68.0186 86.3499 68.7944C85.8479 70.4191 86.5574 72.1028 88.056 72.8436C88.8356 73.229 90.0581 73.2583 90.812 72.9099C91.4766 72.6028 92.1244 71.9883 92.4569 71.3494C92.6973 70.8876 92.7354 70.686 92.7372 69.865C92.7388 69.0829 92.6964 68.8276 92.4967 68.4197C92.1913 67.7954 91.5693 67.1456 90.9871 66.8423C90.3875 66.53 88.9716 66.465 88.2826 66.718ZM90.388 68.3635C91.4391 69.0765 91.5159 70.4928 90.5438 71.2392C89.7726 71.8313 88.6262 71.6491 88.0555 70.8438C87.7207 70.3711 87.7072 69.3353 88.0301 68.8964C88.6108 68.1075 89.6608 67.8701 90.388 68.3635ZM89.4885 77.0424C90.1806 77.0424 90.9009 77.0078 91.0892 76.9656L91.4316 76.8887L91.4038 79.9737L91.376 83.0587H89.4885H87.601L87.5733 79.9737L87.5455 76.8887L87.8878 76.9656C88.0762 77.0078 88.7964 77.0424 89.4885 77.0424ZM92.3493 84.8585C92.8441 85.0662 93.3761 85.5776 93.6612 86.1197C93.8386 86.457 93.8917 86.7794 93.9252 87.7231L93.9673 88.9042L91.8496 88.9369L89.7321 88.9695L89.4792 89.2657C89.1694 89.6286 89.1608 89.8598 89.4437 90.2219L89.661 90.5L91.9341 90.5029L94.2072 90.5058L94.6266 91.145C95.3097 92.1858 96.6276 93.3686 97.715 93.9165C99.0708 94.5997 99.9509 94.7708 101.591 94.6703C103.555 94.5497 103.731 94.561 104.232 94.8401C105.48 95.5349 105.853 97.134 105.023 98.2318C104.346 99.1264 102.344 99.8093 99.2102 100.214C96.5853 100.554 95.2874 100.475 92.8042 99.8283C90.4524 99.2153 89.5035 99.2356 87.6844 99.9377C86.5721 100.367 85.9039 100.467 85.1369 100.319C83.2758 99.9597 81.8598 98.4018 81.7137 96.5526C81.5633 94.646 82.7525 91.7054 84.0328 90.8187C84.4893 90.5025 84.5043 90.5 85.916 90.5C87.1991 90.5 87.3596 90.4792 87.5486 90.2889C87.813 90.0228 87.8179 89.5419 87.5595 89.2207C87.3766 88.9934 87.2664 88.9704 86.1837 88.9331L85.0065 88.8925L85.0534 87.7172C85.1057 86.4061 85.2626 85.9629 85.8879 85.36C86.5333 84.7378 86.7191 84.7034 89.4657 84.6989C91.488 84.6955 92.0331 84.7257 92.3493 84.8585Z" fill="white"/>
<defs>
<filter id="filter0_d_711_432" x="3.05176e-05" y="0" width="188" height="182" filterUnits="userSpaceOnUse" color-interpolation-filters="sRGB">
<feFlood flood-opacity="0" result="BackgroundImageFix"/>
<feColorMatrix in="SourceAlpha" type="matrix" values="0 0 0 0 0 0 0 0 0 0 0 0 0 0 0 0 0 0 127 0" result="hardAlpha"/>
<feOffset dy="16"/>
<feGaussianBlur stdDeviation="16"/>
<feComposite in2="hardAlpha" operator="out"/>
<feColorMatrix type="matrix" values="0 0 0 0 0.464167 0 0 0 0 0.680601 0 0 0 0 1 0 0 0 0.24 0"/>
<feBlend mode="normal" in2="BackgroundImageFix" result="effect1_dropShadow_711_432"/>
<feBlend mode="normal" in="SourceGraphic" in2="effect1_dropShadow_711_432" result="shape"/>
</filter>
</defs>
</svg>
