<svg viewBox="0 0 220 63" fill="none" xmlns="http://www.w3.org/2000/svg">
<path d="M12.935 24.1844C10.517 24.1844 8.34086 23.6866 6.40649 22.6909C4.50056 21.6668 3.00712 20.2587 1.92615 18.4666C0.845173 16.6745 0.304688 14.6405 0.304688 12.3648C0.304688 10.0891 0.845173 8.05514 1.92615 6.263C3.00712 4.47086 4.50056 3.07698 6.40649 2.08134C8.34086 1.05727 10.517 0.545227 12.935 0.545227C15.353 0.545227 17.5149 1.05727 19.4208 2.08134C21.3267 3.07698 22.8202 4.47086 23.9012 6.263C24.9821 8.05514 25.5226 10.0891 25.5226 12.3648C25.5226 14.6405 24.9821 16.6745 23.9012 18.4666C22.8202 20.2587 21.3267 21.6668 19.4208 22.6909C17.5149 23.6866 15.353 24.1844 12.935 24.1844ZM12.935 18.7226C14.6418 18.7226 16.0357 18.1537 17.1166 17.0158C18.2261 15.8495 18.7808 14.2992 18.7808 12.3648C18.7808 10.4304 18.2261 8.89431 17.1166 7.75645C16.0357 6.59013 14.6418 6.00698 12.935 6.00698C11.2282 6.00698 9.82008 6.59013 8.71067 7.75645C7.60125 8.89431 7.04654 10.4304 7.04654 12.3648C7.04654 14.2992 7.60125 15.8495 8.71067 17.0158C9.82008 18.1537 11.2282 18.7226 12.935 18.7226Z" fill="#427BFD"/>
<path d="M42.2609 0.545227C44.3944 0.545227 46.3288 1.04304 48.064 2.03867C49.8277 3.00586 51.2074 4.38552 52.203 6.17766C53.1986 7.94135 53.6964 10.0037 53.6964 12.3648C53.6964 14.7259 53.1986 16.8025 52.203 18.5946C51.2074 20.3583 49.8277 21.738 48.064 22.7336C46.3288 23.7008 44.3944 24.1844 42.2609 24.1844C39.3309 24.1844 37.0267 23.2599 35.3484 21.4108V32.121H28.6919V0.886585H35.0497V3.53212C36.6996 1.54086 39.1033 0.545227 42.2609 0.545227ZM41.1088 18.7226C42.8156 18.7226 44.2095 18.1537 45.2905 17.0158C46.3999 15.8495 46.9546 14.2992 46.9546 12.3648C46.9546 10.4304 46.3999 8.89431 45.2905 7.75645C44.2095 6.59013 42.8156 6.00698 41.1088 6.00698C39.402 6.00698 37.9939 6.59013 36.8845 7.75645C35.8035 8.89431 35.263 10.4304 35.263 12.3648C35.263 14.2992 35.8035 15.8495 36.8845 17.0158C37.9939 18.1537 39.402 18.7226 41.1088 18.7226Z" fill="#427BFD"/>
<path d="M79.3594 12.4501C79.3594 12.5355 79.3167 13.1329 79.2314 14.2423H61.8647C62.1777 15.6646 62.9173 16.7882 64.0836 17.6132C65.2499 18.4382 66.7007 18.8506 68.4359 18.8506C69.6307 18.8506 70.6832 18.68 71.5935 18.3386C72.5322 17.9688 73.3998 17.3999 74.1964 16.6318L77.738 20.4721C75.576 22.9469 72.4184 24.1844 68.2652 24.1844C65.6766 24.1844 63.3866 23.6866 61.3954 22.6909C59.4041 21.6668 57.868 20.2587 56.787 18.4666C55.706 16.6745 55.1656 14.6405 55.1656 12.3648C55.1656 10.1175 55.6918 8.09781 56.7443 6.30567C57.8253 4.48508 59.2903 3.07698 61.1394 2.08134C63.0168 1.05727 65.1077 0.545227 67.4118 0.545227C69.6591 0.545227 71.693 1.02882 73.5136 1.996C75.3342 2.96319 76.7565 4.35707 77.7806 6.17766C78.8332 7.9698 79.3594 10.0606 79.3594 12.4501ZM67.4545 5.58028C65.9468 5.58028 64.681 6.00698 63.6569 6.86038C62.6328 7.71378 62.007 8.88009 61.7794 10.3593H73.0869C72.8594 8.90854 72.2335 7.75645 71.2095 6.90305C70.1854 6.0212 68.9337 5.58028 67.4545 5.58028Z" fill="#427BFD"/>
<path d="M96.4641 0.545227C99.3087 0.545227 101.599 1.39863 103.334 3.10542C105.098 4.81222 105.979 7.34397 105.979 10.7007V23.843H99.3229V11.7248C99.3229 9.90417 98.9247 8.55295 98.1282 7.67111C97.3317 6.76081 96.1796 6.30567 94.6719 6.30567C92.9936 6.30567 91.6566 6.83193 90.6609 7.88446C89.6653 8.90853 89.1675 10.4447 89.1675 12.4928V23.843H82.511V0.886585H88.8688V3.57479C89.7506 2.60761 90.8458 1.868 92.1544 1.35596C93.4629 0.81547 94.8995 0.545227 96.4641 0.545227Z" fill="#427BFD"/>
<path d="M1.96113 40.0078H8.50948V62.5912H1.96113V40.0078ZM5.2353 36.8595C4.03197 36.8595 3.05252 36.5097 2.29694 35.8101C1.54136 35.1105 1.16357 34.243 1.16357 33.2076C1.16357 32.1721 1.54136 31.3046 2.29694 30.605C3.05252 29.9054 4.03197 29.5556 5.2353 29.5556C6.43863 29.5556 7.41809 29.8914 8.17366 30.563C8.92924 31.2347 9.30703 32.0742 9.30703 33.0816C9.30703 34.173 8.92924 35.0825 8.17366 35.8101C7.41809 36.5097 6.43863 36.8595 5.2353 36.8595Z" fill="#57F0D1"/>
<path d="M27.0539 39.672C29.8524 39.672 32.1051 40.5115 33.8122 42.1906C35.5472 43.8696 36.4147 46.3602 36.4147 49.6624V62.5912H29.8664V50.6698C29.8664 48.8788 29.4746 47.5496 28.691 46.6821C27.9075 45.7866 26.7741 45.3388 25.2909 45.3388C23.6399 45.3388 22.3246 45.8565 21.3451 46.8919C20.3657 47.8994 19.8759 49.4105 19.8759 51.4254V62.5912H13.3276V40.0078H19.5821V42.6523C20.4496 41.7008 21.527 40.9732 22.8143 40.4695C24.1016 39.9378 25.5148 39.672 27.0539 39.672Z" fill="#57F0D1"/>
<path d="M54.8175 39.672C57.616 39.672 59.8687 40.5115 61.5758 42.1906C63.3108 43.8696 64.1783 46.3602 64.1783 49.6624V62.5912H57.63V50.6698C57.63 48.8788 57.2382 47.5496 56.4546 46.6821C55.6711 45.7866 54.5377 45.3388 53.0545 45.3388C51.4034 45.3388 50.0882 45.8565 49.1087 46.8919C48.1293 47.8994 47.6395 49.4105 47.6395 51.4254V62.5912H41.0912V40.0078H47.3457V42.6523C48.2132 41.7008 49.2906 40.9732 50.5779 40.4695C51.8652 39.9378 53.2784 39.672 54.8175 39.672Z" fill="#57F0D1"/>
<path d="M79.8467 62.927C77.468 62.927 75.3272 62.4373 73.4243 61.4578C71.5494 60.4504 70.0802 59.0651 69.0168 57.3021C67.9534 55.5391 67.4217 53.5382 67.4217 51.2995C67.4217 49.0607 67.9534 47.0598 69.0168 45.2968C70.0802 43.5338 71.5494 42.1626 73.4243 41.1831C75.3272 40.1757 77.468 39.672 79.8467 39.672C82.2254 39.672 84.3522 40.1757 86.2272 41.1831C88.1021 42.1626 89.5713 43.5338 90.6347 45.2968C91.6981 47.0598 92.2298 49.0607 92.2298 51.2995C92.2298 53.5382 91.6981 55.5391 90.6347 57.3021C89.5713 59.0651 88.1021 60.4504 86.2272 61.4578C84.3522 62.4373 82.2254 62.927 79.8467 62.927ZM79.8467 57.554C81.5258 57.554 82.897 56.9943 83.9604 55.8749C85.0518 54.7276 85.5975 53.2024 85.5975 51.2995C85.5975 49.3965 85.0518 47.8854 83.9604 46.766C82.897 45.6186 81.5258 45.045 79.8467 45.045C78.1677 45.045 76.7824 45.6186 75.691 46.766C74.5997 47.8854 74.054 49.3965 74.054 51.2995C74.054 53.2024 74.5997 54.7276 75.691 55.8749C76.7824 56.9943 78.1677 57.554 79.8467 57.554Z" fill="#57F0D1"/>
<path d="M117.148 40.0078L107.619 62.5912H100.861L91.3745 40.0078H98.1328L104.387 55.3712L110.852 40.0078H117.148Z" fill="#57F0D1"/>
<path d="M126.932 39.672C130.43 39.672 133.117 40.5115 134.992 42.1906C136.866 43.8416 137.804 46.3462 137.804 49.7044V62.5912H131.675V59.7787C130.444 61.8776 128.149 62.927 124.791 62.927C123.056 62.927 121.545 62.6332 120.258 62.0455C118.998 61.4578 118.033 60.6463 117.361 59.6108C116.69 58.5754 116.354 57.4001 116.354 56.0848C116.354 53.986 117.137 52.3349 118.705 51.1316C120.3 49.9282 122.748 49.3266 126.05 49.3266H131.256C131.256 47.8994 130.822 46.808 129.954 46.0524C129.087 45.2688 127.786 44.8771 126.05 44.8771C124.847 44.8771 123.658 45.0729 122.482 45.4647C121.335 45.8285 120.356 46.3322 119.544 46.9759L117.193 42.4004C118.425 41.5329 119.894 40.8613 121.601 40.3856C123.336 39.9098 125.113 39.672 126.932 39.672ZM126.428 58.5194C127.548 58.5194 128.541 58.2676 129.409 57.7639C130.276 57.2322 130.892 56.4626 131.256 55.4552V53.1464H126.764C124.078 53.1464 122.734 54.028 122.734 55.791C122.734 56.6305 123.056 57.3021 123.7 57.8058C124.371 58.2816 125.281 58.5194 126.428 58.5194Z" fill="#57F0D1"/>
<path d="M157.037 61.4998C156.393 61.9755 155.596 62.3393 154.644 62.5912C153.721 62.8151 152.741 62.927 151.706 62.927C149.02 62.927 146.935 62.2414 145.452 60.8701C143.996 59.4989 143.269 57.484 143.269 54.8255V45.5487H139.785V40.5115H143.269V35.0126H149.817V40.5115H155.442V45.5487H149.817V54.7416C149.817 55.693 150.055 56.4346 150.531 56.9663C151.034 57.47 151.734 57.7219 152.63 57.7219C153.665 57.7219 154.546 57.4421 155.274 56.8824L157.037 61.4998Z" fill="#57F0D1"/>
<path d="M169.503 62.927C167.124 62.927 164.983 62.4373 163.08 61.4578C161.205 60.4504 159.736 59.0651 158.673 57.3021C157.609 55.5391 157.078 53.5382 157.078 51.2995C157.078 49.0607 157.609 47.0598 158.673 45.2968C159.736 43.5338 161.205 42.1626 163.08 41.1831C164.983 40.1757 167.124 39.672 169.503 39.672C171.881 39.672 174.008 40.1757 175.883 41.1831C177.758 42.1626 179.227 43.5338 180.291 45.2968C181.354 47.0598 181.886 49.0607 181.886 51.2995C181.886 53.5382 181.354 55.5391 180.291 57.3021C179.227 59.0651 177.758 60.4504 175.883 61.4578C174.008 62.4373 171.881 62.927 169.503 62.927ZM169.503 57.554C171.182 57.554 172.553 56.9943 173.617 55.8749C174.708 54.7276 175.254 53.2024 175.254 51.2995C175.254 49.3965 174.708 47.8854 173.617 46.766C172.553 45.6186 171.182 45.045 169.503 45.045C167.824 45.045 166.439 45.6186 165.347 46.766C164.256 47.8854 163.71 49.3965 163.71 51.2995C163.71 53.2024 164.256 54.7276 165.347 55.8749C166.439 56.9943 167.824 57.554 169.503 57.554Z" fill="#57F0D1"/>
<path d="M191.258 42.9881C192.042 41.8967 193.091 41.0712 194.406 40.5115C195.75 39.9518 197.289 39.672 199.024 39.672V45.7166C198.296 45.6606 197.807 45.6326 197.555 45.6326C195.68 45.6326 194.211 46.1643 193.147 47.2277C192.084 48.2632 191.552 49.8303 191.552 51.9291V62.5912H185.004V40.0078H191.258V42.9881Z" fill="#57F0D1"/>
<path d="M209.338 62.927C207.463 62.927 205.63 62.7031 203.839 62.2554C202.048 61.7796 200.621 61.192 199.557 60.4924L201.74 55.791C202.748 56.4346 203.965 56.9663 205.392 57.3861C206.819 57.7779 208.219 57.9738 209.59 57.9738C212.36 57.9738 213.745 57.2881 213.745 55.9169C213.745 55.2733 213.368 54.8115 212.612 54.5317C211.857 54.2518 210.695 54.014 209.128 53.8181C207.281 53.5382 205.756 53.2164 204.553 52.8526C203.349 52.4888 202.3 51.8452 201.404 50.9217C200.537 49.9982 200.103 48.6829 200.103 46.9759C200.103 45.5487 200.509 44.2894 201.32 43.198C202.16 42.0786 203.363 41.2111 204.93 40.5954C206.526 39.9798 208.4 39.672 210.555 39.672C212.15 39.672 213.731 39.8539 215.299 40.2177C216.894 40.5535 218.209 41.0292 219.244 41.6449L217.062 46.3043C215.075 45.1849 212.906 44.6252 210.555 44.6252C209.156 44.6252 208.107 44.8211 207.407 45.2129C206.707 45.6047 206.358 46.1084 206.358 46.724C206.358 47.4236 206.735 47.9134 207.491 48.1932C208.247 48.4731 209.45 48.7389 211.101 48.9908C212.948 49.2986 214.459 49.6344 215.634 49.9982C216.81 50.334 217.831 50.9637 218.699 51.8871C219.566 52.8106 220 54.0979 220 55.749C220 57.1482 219.58 58.3935 218.741 59.4849C217.901 60.5763 216.67 61.4298 215.047 62.0455C213.452 62.6332 211.549 62.927 209.338 62.927Z" fill="#57F0D1"/>
</svg>
