<svg viewBox="0 0 64 64" fill="none" xmlns="http://www.w3.org/2000/svg">
<path fill-rule="evenodd" clip-rule="evenodd" d="M6.6865 5.13721C6.16832 5.30141 5.28584 6.21556 5.12722 6.75236C5.02839 7.08699 4.99917 12.1347 5.00002 28.794L5.00107 50.4015L5.2503 50.9288C5.54994 51.5625 5.94366 51.9501 6.58102 52.2385C7.0298 52.4416 7.26121 52.4534 10.831 52.4557L14.6064 52.458L14.8652 52.1991C15.2282 51.8362 15.2195 51.2827 14.8462 50.9892C14.5772 50.7775 14.4517 50.7706 10.8863 50.7706H7.20425L6.94543 50.5117L6.6865 50.2529V28.729V7.20511L6.94543 6.9463L7.20425 6.68739H18.9102H30.6163L30.6487 9.6667C30.6805 12.584 30.6865 12.657 30.9398 13.1716C31.2947 13.893 31.9886 14.5384 32.6921 14.8015C33.2206 14.9993 33.5058 15.0189 35.8532 15.0189H38.4332V16.8726V18.7263L38.7538 19.0469C39.0221 19.3152 39.1297 19.3569 39.413 19.3021C39.5993 19.2662 39.8375 19.1332 39.9426 19.0065C40.1178 18.7953 40.1309 18.5578 40.1008 16.133C40.0696 13.6212 40.0564 13.4714 39.8359 13.1206C39.3978 12.4241 32.8121 5.50168 32.3686 5.27167C31.9492 5.054 31.8761 5.05263 19.5012 5.03649C10.6363 5.02489 6.94943 5.05389 6.6865 5.13721ZM42.784 5.1621C42.6568 5.25121 42.5057 5.50031 42.4485 5.71577C42.2282 6.54439 41.7028 9.15985 41.7028 9.42772C41.7028 10.0394 42.5674 10.3925 43.063 9.98309C43.2789 9.80475 43.3771 9.45156 43.8117 7.28948L43.9344 6.67885L44.7398 6.70944L45.5452 6.74013L45.8652 8.24212C46.0936 9.31393 46.2457 9.80117 46.3962 9.94301C46.5123 10.0525 46.9632 10.2464 47.3982 10.3741C47.8333 10.5019 48.5861 10.8161 49.0713 11.0725C49.5564 11.3289 50.0548 11.5387 50.1788 11.5387C50.3028 11.5387 50.9887 11.159 51.7029 10.695C52.4171 10.2309 53.0359 9.85126 53.0779 9.85126C53.1728 9.85126 54.1483 10.8345 54.1483 10.9301C54.1483 10.9685 53.7687 11.5804 53.3046 12.2899C52.8405 12.9994 52.4608 13.6848 52.4608 13.8129C52.4608 13.9411 52.6706 14.4429 52.927 14.9279C53.1834 15.413 53.4977 16.1658 53.6254 16.6008C53.7531 17.0359 53.9471 17.4867 54.0566 17.6027C54.1984 17.7532 54.6857 17.9053 55.7576 18.1337L57.2597 18.4537L57.2905 19.2674C57.3075 19.7149 57.2831 20.0811 57.2364 20.0811C56.9384 20.0811 54.2021 20.7309 54.0826 20.8301C54.002 20.8971 53.8178 21.339 53.6735 21.8123C53.5291 22.2855 53.1972 23.0881 52.9359 23.5959C52.6746 24.1036 52.4608 24.6276 52.4608 24.7601C52.4608 25.3549 53.3804 25.7094 53.8424 25.2927C54.1066 25.0543 54.8863 23.5296 55.1405 22.7543L55.3186 22.2109L56.0255 22.0542C56.4143 21.9679 57.1355 21.8115 57.6281 21.7067C58.9989 21.4149 59 21.4131 59 19.3527C59 17.6384 58.923 17.209 58.5902 17.0671C58.4966 17.0272 57.7368 16.8466 56.9018 16.6658C55.9203 16.4534 55.3549 16.2813 55.3026 16.179C55.258 16.092 55.0712 15.6411 54.8874 15.1771C54.7035 14.7131 54.5033 14.2137 54.4422 14.0674C54.3428 13.8293 54.4225 13.6606 55.2066 12.4488C55.8049 11.5242 56.0819 10.9966 56.0819 10.7818C56.0819 10.5207 55.8661 10.2517 54.807 9.19265C53.7433 8.12906 53.4796 7.91782 53.2152 7.91782C52.9975 7.91782 52.4759 8.19097 51.5459 8.7921C50.3366 9.57379 50.1652 9.65478 49.9295 9.55544C49.7845 9.49438 49.215 9.25814 48.6639 9.03055L47.6619 8.61672L47.3748 7.25657C46.9799 5.38546 47.0007 5.45275 46.7442 5.21388C46.5327 5.01687 46.3768 5 44.765 5C43.362 5 42.9695 5.03206 42.784 5.1621ZM34.8925 10.8004L37.1732 13.2788L35.3123 13.3077C33.2656 13.3393 33.0571 13.2902 32.5906 12.665C32.3845 12.3888 32.3663 12.2118 32.3369 10.1866C32.3089 8.2765 32.3241 8.02529 32.4585 8.16386C32.5429 8.25087 33.6382 9.43732 34.8925 10.8004ZM44.155 12.6148C43.9219 12.866 43.8538 13.2532 43.9832 13.5904C44.084 13.853 44.5953 14.0697 45.1142 14.0697C46.7157 14.0697 48.5889 15.3232 49.3935 16.9331C50.0086 18.164 50.0879 19.7626 49.6036 21.169C49.3771 21.827 49.3695 21.9116 49.5143 22.1696C49.7131 22.5237 50.1473 22.6876 50.5304 22.5529C51.5166 22.206 51.9518 18.9698 51.2717 17.0401C50.8924 15.9634 50.4148 15.2062 49.6039 14.3953C48.382 13.1736 46.9219 12.5016 45.2888 12.4096C44.4433 12.3619 44.3788 12.3736 44.155 12.6148ZM9.8791 12.5567C9.58167 12.6208 9.21779 13.0762 9.21779 13.3842C9.21779 13.5136 9.3162 13.7445 9.43643 13.8973C9.63451 14.1493 9.72258 14.1752 10.378 14.1752C11.0334 14.1752 11.1214 14.1493 11.3195 13.8973C11.9436 13.1041 11.0777 12.2982 9.8791 12.5567ZM14.5198 12.5604C14.2238 12.6195 13.8585 13.0746 13.8585 13.3842C13.8585 13.5136 13.9569 13.7445 14.0771 13.8973L14.2957 14.1752H20.5519C26.3551 14.1752 26.8241 14.1618 27.0303 13.9906C27.3905 13.6917 27.4257 13.2102 27.114 12.8478L26.8498 12.5405L20.8024 12.5269C17.4764 12.5193 14.6491 12.5344 14.5198 12.5604ZM9.47672 16.6488C9.12836 16.9971 9.14565 17.3886 9.52608 17.769C9.77795 18.0209 9.9236 18.0773 10.3224 18.0773C10.8584 18.0773 11.3706 17.8639 11.4727 17.598C11.6042 17.2551 11.5322 16.9017 11.2792 16.6488C11.0611 16.4306 10.9195 16.3899 10.378 16.3899C9.83649 16.3899 9.69484 16.4306 9.47672 16.6488ZM14.1869 16.5745C14.0647 16.676 13.9352 16.9113 13.8992 17.0976C13.8445 17.3808 13.8861 17.4884 14.1545 17.7567L14.4751 18.0773H20.6086H26.7422L27.0628 17.7567C27.3311 17.4884 27.3728 17.3808 27.3181 17.0976C27.1746 16.3551 27.505 16.3899 20.6086 16.3899C14.8594 16.3899 14.393 16.4033 14.1869 16.5745ZM9.6305 20.3218C9.16432 20.6796 9.13046 21.4107 9.56606 21.7156C9.70423 21.8124 10.0308 21.8739 10.4062 21.8739C10.9177 21.8739 11.0636 21.8306 11.2792 21.615C11.4425 21.4519 11.5382 21.2357 11.5382 21.0302C11.5382 20.8248 11.4425 20.6086 11.2792 20.4455C11.0629 20.2291 10.9201 20.1871 10.4091 20.1899C10.073 20.1917 9.72258 20.2511 9.6305 20.3218ZM14.3142 20.3119C14.0299 20.4494 13.8156 20.9397 13.9099 21.237C13.9487 21.3592 14.0806 21.5525 14.2031 21.6666C14.4149 21.8639 14.591 21.8739 17.8383 21.8739H21.2511L21.5099 21.615C21.6732 21.4519 21.7688 21.2357 21.7688 21.0302C21.7688 20.8248 21.6732 20.6086 21.5099 20.4455L21.2511 20.1866L17.8975 20.1937C15.7792 20.1982 14.4594 20.2417 14.3142 20.3119ZM29.8449 21.2431C29.1867 21.5 28.5647 22.0932 28.2437 22.7704C28.0035 23.2768 27.9936 23.3925 27.9926 25.6935L27.9916 28.0893L23.7991 28.1191L19.6067 28.1489L19.011 28.4282C18.0591 28.8744 17.3051 29.7601 17.0068 30.7825C16.955 30.9596 16.9146 36.6548 16.916 43.5706L16.9185 56.0394L17.1459 56.6479C17.3112 57.0902 17.5509 57.4342 18.0233 57.907C18.5794 58.4634 18.779 58.5895 19.4037 58.7787L20.134 59L38.1717 58.972L56.2096 58.9439L56.9079 58.6001C57.7205 58.2001 58.2784 57.6283 58.6693 56.7946L58.9473 56.2019V43.5464V30.891L58.6667 30.2925C58.2914 29.492 57.6303 28.797 56.9056 28.4411L56.3105 28.1489L52.125 28.118L47.9395 28.0871L47.9062 25.6397L47.8728 23.1922L47.5598 22.6271C47.3876 22.3163 47.0574 21.8999 46.8261 21.7019C46.0296 21.0202 46.1578 21.0297 37.8603 21.0352C30.72 21.0398 30.34 21.0498 29.8449 21.2431ZM45.8405 23.115L46.1853 23.4596V25.7516V28.0435H45.2888H44.3923L44.3634 26.277L44.3345 24.5105H37.9033H31.4721V26.3034V28.0962H30.5756H29.6791V25.8762C29.6791 24.1011 29.7111 23.5946 29.8387 23.3479C30.1747 22.698 29.8533 22.7215 38.0357 22.7471L45.4957 22.7704L45.8405 23.115ZM42.652 27.1481V28.0984L37.9322 28.0709L33.2124 28.0435L33.1819 27.1207L33.1514 26.1979H37.9017H42.652V27.1481ZM56.2314 30.0073C56.5096 30.142 56.8062 30.4012 56.9767 30.6585L57.2597 31.086L57.2905 34.2269C57.3196 37.2033 57.3102 37.3899 57.1084 37.7854C56.8788 38.2352 56.4988 38.5525 55.8792 38.8114C55.6643 38.9011 52.6596 39.516 49.2021 40.1776C45.7445 40.8393 42.7851 41.409 42.6257 41.4437L42.3356 41.5067V39.9496C42.3356 38.6011 42.3071 38.3352 42.1231 37.9639C41.6972 37.1043 41.7555 37.1169 38.0641 37.0848C34.407 37.0528 34.3002 37.0705 33.821 37.788C33.597 38.123 33.5815 38.2553 33.5815 39.8252C33.5815 41.3745 33.5673 41.4999 33.397 41.4498C33.2955 41.4199 32.1682 41.2002 30.892 40.9615C23.0221 39.4898 20.2204 38.9261 19.8048 38.7308C19.302 38.4945 18.7469 37.9294 18.6543 37.5595C18.6219 37.43 18.6093 35.8966 18.6264 34.1519L18.6574 30.9795L18.9532 30.5922C19.1158 30.379 19.4243 30.112 19.6387 29.9989C20.0209 29.797 20.3827 29.7929 37.8989 29.7882L55.7693 29.7836L56.2314 30.0073ZM40.6271 42.149C40.5909 46.023 40.593 46.013 39.6516 46.8416C38.274 48.0541 36.1572 47.5242 35.4306 45.7852C35.2971 45.4659 35.2691 44.8206 35.2691 42.0733V38.7479H37.964H40.659L40.6271 42.149ZM26.2907 41.8048C29.8656 42.4849 32.9639 43.0733 33.1758 43.1122L33.561 43.183L33.5997 44.5775C33.6362 45.8886 33.6584 46.0131 33.9721 46.6576C35.0648 48.9031 37.6545 49.8128 39.8564 48.7247C41.5297 47.8977 42.3356 46.4302 42.3356 44.2098C42.3356 43.6419 42.3738 43.1773 42.4205 43.1773C42.5452 43.1773 53.9157 41.0024 55.1395 40.7444C55.7136 40.6233 56.4375 40.412 56.7479 40.2747L57.3125 40.025L57.3101 47.8498C57.3079 55.2133 57.2964 55.6997 57.1142 56.1007C56.8793 56.6178 56.3838 57.0535 55.8575 57.2057C55.5846 57.2846 50.1006 57.3092 37.6872 57.2875L19.9077 57.2565L19.4692 56.9664C19.228 56.8068 18.9349 56.4883 18.8177 56.2587C18.6097 55.8508 18.6047 55.6589 18.6047 47.9331V40.0251L19.1978 40.2966C19.6407 40.4994 21.4358 40.8811 26.2907 41.8048ZM37.321 44.1317C37.2112 44.253 37.1254 44.5052 37.1254 44.7065C37.1254 45.1995 37.4186 45.4975 37.9038 45.4975C38.6538 45.4975 39.0345 44.6418 38.5056 44.1448C38.1846 43.8434 37.588 43.8368 37.321 44.1317Z" fill="#427BFD"/>
</svg>
