<svg viewBox="0 0 64 64" fill="none" xmlns="http://www.w3.org/2000/svg">
<path fill-rule="evenodd" clip-rule="evenodd" d="M31.4836 5.20191C31.1504 5.5061 31.1151 5.84915 31.1539 8.4117L31.1888 10.7133L31.4913 10.9679C31.8619 11.28 32.0982 11.2887 32.468 11.0037L32.7521 10.7849V8.10329C32.7521 5.48086 32.7469 5.41706 32.5161 5.20645C32.2163 4.9329 31.7804 4.931 31.4836 5.20191ZM23.6957 9.53276C23.5762 9.64989 23.4801 9.88479 23.4801 10.0601C23.4801 10.5021 24.2183 12.2628 24.4558 12.3873C25.0145 12.6802 25.6752 12.3474 25.6694 11.7758C25.6655 11.3858 25.0141 9.76808 24.7611 9.52029C24.4955 9.26004 23.9677 9.26628 23.6957 9.53276ZM39.2462 9.50635C38.9435 9.76765 38.2245 11.6071 38.3133 11.8932C38.4804 12.4315 39.0311 12.6535 39.5389 12.3873C39.7764 12.2628 40.5146 10.5021 40.5146 10.0601C40.5146 9.43009 39.7309 9.08799 39.2462 9.50635ZM14.316 12.1733C14.1907 12.296 14.1003 12.5253 14.1003 12.7207C14.1003 13.0142 14.3302 13.2843 15.9062 14.8427C16.8995 15.8249 17.8301 16.6737 17.9745 16.7293C18.4726 16.9207 19.0598 16.471 19.0598 15.8981C19.0598 15.8028 18.2004 14.8782 17.1499 13.8434C15.4478 12.1665 15.2018 11.962 14.8859 11.962C14.6753 11.962 14.4442 12.0477 14.316 12.1733ZM46.8448 13.8434C45.7944 14.8782 44.935 15.8019 44.935 15.8961C44.935 16.4885 45.5061 16.9268 46.0202 16.7293C46.1646 16.6737 47.0953 15.8249 48.0885 14.8427C49.6645 13.2843 49.8944 13.0142 49.8944 12.7207C49.8944 12.28 49.5651 11.962 49.1089 11.962C48.793 11.962 48.5469 12.1665 46.8448 13.8434ZM30.4341 13.197C29.5561 13.2738 27.6539 13.6679 26.687 13.9733C25.5307 14.3386 22.9995 15.5364 22.5808 15.9164C22.0925 16.3598 22.2718 17.1351 22.8983 17.2892C23.1223 17.3442 23.385 17.2461 24.1137 16.8351C25.7333 15.9217 27.3767 15.3217 29.252 14.959C30.5748 14.7032 33.4029 14.7015 34.7466 14.9557C40.6225 16.0671 45.269 20.0879 46.9714 25.5342C47.8623 28.3848 47.8876 31.5239 47.0423 34.3784C46.1194 37.4953 44.1088 40.3434 41.4111 42.3552C39.8291 43.535 38.9961 44.6541 38.656 46.0565L38.523 46.6054H37.0307H35.5386L35.2125 46.9249C34.951 47.181 34.9001 47.3015 34.9559 47.5322C35.0969 48.1161 35.3228 48.1897 36.9745 48.1897H38.4776L38.4449 50.5483L38.4123 52.9068L38.1013 53.3058C37.4786 54.1051 37.5198 54.0997 31.9974 54.0997C27.4557 54.0997 27.0598 54.0853 26.6606 53.9048C26.1616 53.6792 25.807 53.3321 25.6436 52.9093C25.5755 52.7331 25.5286 51.7107 25.5286 50.4008V48.1897H29.1942C32.7162 48.1897 32.8683 48.1814 33.0755 47.9784C33.3966 47.6639 33.363 47.0986 33.007 46.8243C32.7324 46.6127 32.6021 46.6054 29.0974 46.6054H25.4717L25.3392 46.0509C24.9968 44.6182 24.1501 43.5031 22.4588 42.2576C19.0234 39.728 16.6978 35.5288 16.3772 31.2768C16.0514 26.9535 17.5053 22.8561 20.4778 19.7206C21.1291 19.0336 21.3238 18.7578 21.3238 18.5226C21.3238 18.0724 20.9995 17.7359 20.5657 17.7359C20.2526 17.7359 20.0839 17.86 19.2821 18.6807C17.3787 20.6289 15.9193 23.2372 15.2405 25.9039C14.8957 27.2581 14.8462 27.5639 14.7526 28.914C14.356 34.638 16.9643 40.2111 21.6473 43.6455C22.759 44.4609 23.2342 45.014 23.6454 45.9717C23.8261 46.3923 23.8563 46.829 23.9082 49.774C23.9648 52.986 23.9757 53.1202 24.2228 53.6576C24.5448 54.3576 25.4598 55.1961 26.1722 55.444C26.5546 55.5771 26.7379 55.7127 26.8532 55.9478C27.4228 57.1104 28.6713 58.2026 30.0234 58.7211C30.6696 58.9689 30.9059 59.0023 31.9974 58.9999C32.9995 58.9977 33.3612 58.9528 33.8841 58.7657C35.1569 58.3105 36.2743 57.3917 36.9659 56.2315C37.2805 55.7039 37.4078 55.5882 37.84 55.438C38.5345 55.1962 39.454 54.349 39.7719 53.6576C40.019 53.1202 40.0299 52.986 40.0865 49.774C40.1384 46.8357 40.169 46.3914 40.3484 45.9717C40.7635 45.0007 41.2716 44.4303 42.5631 43.4859C43.5931 42.7326 45.2097 41.0846 46.0358 39.9455C48.3969 36.69 49.4941 32.9041 49.2366 28.9011C49.0843 26.532 48.5101 24.5303 47.3468 22.3128C44.67 17.2106 39.6044 13.8403 33.696 13.2305C32.7384 13.1317 31.3452 13.1174 30.4341 13.197ZM29.8008 19.9134C29.6061 20.1042 29.5267 20.3633 29.4209 21.1544C29.2419 22.4926 29.2419 22.4926 28.7847 22.6375C28.5652 22.7069 28.2154 22.8475 28.0073 22.95L27.6291 23.136L26.6224 22.4075C25.9925 21.9517 25.5122 21.6791 25.3389 21.6791C25.1288 21.6791 24.73 22.0008 23.6863 23.0124C22.9298 23.7457 22.2816 24.4597 22.246 24.5989C22.1659 24.9118 22.2723 25.1116 23.0609 26.1288L23.6857 26.9347L23.3542 27.7131C23.1719 28.1412 23.0136 28.5023 23.0024 28.5154C22.9913 28.5286 22.4513 28.6143 21.8025 28.7058C20.1019 28.9459 20.1379 28.8911 20.1379 31.2377C20.1379 33.592 20.1031 33.539 21.809 33.7822C22.4613 33.8751 23.0012 33.9584 23.0089 33.9674C23.0165 33.9764 23.1725 34.3356 23.3557 34.7655L23.6885 35.5473L22.9308 36.5543C22.311 37.3779 22.1852 37.6106 22.2399 37.8322C22.3131 38.1289 24.8131 40.6551 25.1316 40.7541C25.4755 40.861 25.7996 40.7113 26.7162 40.0216L27.6097 39.3492L28.3749 39.6767C28.796 39.8568 29.1692 40.0426 29.2046 40.0897C29.2399 40.1367 29.3314 40.6562 29.4079 41.2442C29.6152 42.8385 29.5564 42.8031 31.9974 42.8031C34.4384 42.8031 34.3795 42.8385 34.5868 41.2442C34.6634 40.6562 34.7548 40.1367 34.7902 40.0897C34.8255 40.0426 35.1954 39.8583 35.6122 39.68L36.3701 39.3557L37.2766 40.0261C38.21 40.7164 38.5228 40.86 38.8631 40.7541C38.9715 40.7204 39.6623 40.1015 40.3983 39.3787C42.0388 37.7677 42.0279 37.8185 41.0205 36.4931L40.3046 35.5511L40.6383 34.7675C40.8218 34.3365 40.9782 33.9764 40.9859 33.9674C40.9935 33.9584 41.5335 33.8751 42.1857 33.7822C43.8908 33.5391 43.8568 33.5908 43.8568 31.246C43.8568 28.8817 43.9045 28.9551 42.2034 28.7031L40.9781 28.5216L40.6383 27.7241L40.2985 26.9266L40.9293 26.1248C41.7187 25.1214 41.8296 24.9147 41.7488 24.5989C41.7131 24.4597 41.0649 23.7457 40.3084 23.0124C39.2647 22.0008 38.8659 21.6791 38.6558 21.6791C38.4827 21.6791 38.0039 21.9505 37.378 22.4034L36.3771 23.1278L35.8313 22.8954C35.5313 22.7676 35.1621 22.6134 35.011 22.5526C34.7549 22.4499 34.7267 22.3654 34.5944 21.3045C34.3852 19.628 34.4556 19.6723 31.9974 19.6723C30.1101 19.6723 30.0389 19.6801 29.8008 19.9134ZM11.6285 21.4293C11.1557 22.018 11.4905 22.4678 12.7527 22.9398C13.7618 23.3172 14.128 23.3418 14.4238 23.0521C14.695 22.7864 14.7099 22.1933 14.4507 21.9762C14.155 21.7283 12.5742 21.1498 12.1945 21.1504C11.9532 21.1507 11.7858 21.2332 11.6285 21.4293ZM50.5301 21.5036C49.4712 21.9348 49.3553 22.0362 49.3553 22.531C49.3553 22.9867 49.6402 23.2634 50.1095 23.2634C50.5587 23.2634 52.0854 22.6447 52.3471 22.3567C52.6486 22.0251 52.6534 21.7869 52.3662 21.4293C52.0655 21.0546 51.5847 21.0742 50.5301 21.5036ZM33.0694 22.1807C33.2525 23.5476 33.3645 23.7361 34.1204 23.9504C34.4648 24.0481 35.0767 24.29 35.4803 24.4878C35.8838 24.6857 36.3283 24.8477 36.4682 24.8477C36.6102 24.8477 37.1078 24.5678 37.5949 24.2139C38.0748 23.8654 38.505 23.5802 38.551 23.5802C38.5971 23.5802 38.9205 23.8632 39.2699 24.2091L39.9052 24.838L39.3077 25.6085C38.3699 26.8181 38.3889 26.7212 38.8801 27.7826C39.1143 28.2888 39.3879 28.9528 39.488 29.2583C39.5882 29.5638 39.753 29.8572 39.8543 29.9103C39.9556 29.9635 40.4489 30.0604 40.9504 30.1257C42.3553 30.3087 42.2526 30.2158 42.2168 31.2707L42.1857 32.1847L41.0895 32.3449C39.8512 32.5258 39.6458 32.6483 39.4444 33.3253C39.3712 33.5713 39.1184 34.1866 38.8828 34.6927C38.3892 35.7526 38.3697 35.651 39.2997 36.8738L39.891 37.6513L39.2628 38.2732C38.9174 38.6152 38.5847 38.8938 38.5234 38.8924C38.4623 38.8909 38.0279 38.6057 37.5582 38.2586C36.6024 37.5526 36.3802 37.5064 35.7264 37.8784C35.4841 38.0162 34.9703 38.2351 34.5849 38.3646C33.5395 38.7159 33.4144 38.7922 33.2992 39.1491C33.2177 39.4018 32.9677 40.9284 32.9677 41.1735C32.9677 41.2549 31.027 41.2209 31.0251 41.1395C31.0193 40.9019 30.7118 39.1319 30.6498 38.9795C30.6097 38.8807 30.3506 38.7185 30.0742 38.619C29.1428 38.284 28.2795 37.9208 28.0653 37.7737C27.6684 37.5014 27.3221 37.6044 26.4366 38.2586C25.9668 38.6057 25.5324 38.8909 25.4713 38.8924C25.4101 38.8938 25.0774 38.6152 24.7319 38.2732L24.1037 37.6513L24.7009 36.8738C25.5727 35.7387 25.5857 35.6789 25.1526 34.7937C24.9532 34.3859 24.7046 33.7874 24.6006 33.4638C24.324 32.604 24.1515 32.4896 22.8871 32.3269L21.809 32.1882L21.7778 31.2671C21.7422 30.2103 21.6053 30.3294 23.0934 30.1222C23.5626 30.0568 24.0354 29.9489 24.1443 29.8823C24.2531 29.8157 24.4472 29.4517 24.5755 29.0736C24.7038 28.6954 24.9678 28.0606 25.1621 27.663C25.5829 26.8019 25.5748 26.7661 24.7051 25.6342L24.0917 24.8358L24.7259 24.208C25.0747 23.8627 25.3977 23.5802 25.4437 23.5802C25.4897 23.5802 25.9199 23.8654 26.3998 24.2139C26.8869 24.5678 27.3846 24.8477 27.5266 24.8477C27.6664 24.8477 28.1109 24.6872 28.5145 24.4912C28.918 24.2951 29.4422 24.0779 29.6794 24.0085C30.3004 23.8268 30.5748 23.6797 30.6536 23.4861C30.7129 23.3408 31.0195 21.5657 31.0251 21.3358C31.0262 21.2923 31.4587 21.2566 31.9863 21.2566H32.9454L33.0694 22.1807ZM30.7157 26.2821C26.7908 27.3161 25.4629 32.0542 28.3149 34.8482C30.3612 36.8528 33.6342 36.8522 35.6815 34.8466C37.2499 33.31 37.6539 30.9813 36.6918 29.0219C35.6309 26.8611 33.0351 25.671 30.7157 26.2821ZM33.4223 27.9916C34.6878 28.5413 35.572 29.8459 35.5804 31.1759C35.587 32.201 35.3256 32.8691 34.6296 33.6056C33.8283 34.4535 33.2008 34.7189 31.9974 34.7189C30.794 34.7189 30.1665 34.4535 29.3651 33.6056C28.6866 32.8876 28.4016 32.187 28.4016 31.2377C28.4016 29.7016 29.4313 28.333 30.9542 27.8452C31.5801 27.6446 32.7885 27.7163 33.4223 27.9916ZM7.44986 28.7536C6.96546 28.9504 6.85236 29.5129 7.20815 29.956L7.43154 30.2343H10.1651H12.8988L13.1221 29.956C13.4007 29.6091 13.4066 29.2752 13.1397 28.9522C12.9344 28.7036 12.9247 28.7027 10.3096 28.6804C8.86632 28.668 7.57946 28.701 7.44986 28.7536ZM51.1143 28.7536C50.6299 28.9504 50.5168 29.5129 50.8726 29.956L51.096 30.2343H53.8296H56.5632L56.7866 29.956C57.0652 29.6091 57.071 29.2752 56.8042 28.9522C56.5989 28.7036 56.5892 28.7027 53.9741 28.6804C52.5308 28.668 51.2439 28.701 51.1143 28.7536ZM35.3396 55.7798C35.3396 55.9804 34.2174 56.8823 33.6381 57.1473C33.106 57.3907 32.8814 57.4292 31.9974 57.4292C31.1133 57.4292 30.8887 57.3907 30.3567 57.1473C29.7774 56.8823 28.6551 55.9804 28.6551 55.7798C28.6551 55.7297 30.1591 55.6887 31.9974 55.6887C33.8356 55.6887 35.3396 55.7297 35.3396 55.7798Z" fill="#427BFD"/>
</svg>
