<svg viewBox="0 0 64 64" fill="none" xmlns="http://www.w3.org/2000/svg">
<path fill-rule="evenodd" clip-rule="evenodd" d="M30.5931 2.23291C29.8239 2.69918 24.4699 6.79335 24.2257 7.10204C23.7897 7.65308 23.6811 8.23717 23.9059 8.82232C24.1631 9.49188 24.2467 9.56586 27.6948 12.1779C30.7046 14.458 31.1292 14.6968 31.7069 14.4351C32.2055 14.2092 32.3659 13.8045 32.4389 12.5887L32.5071 11.452L33.6191 11.5296C39.0505 11.9093 44.316 14.6245 47.8539 18.8699C50.8056 22.4118 52.3443 26.3798 52.6223 31.1664C52.7542 33.4388 53.1883 34.2499 54.6236 34.9068C55.7682 35.4306 57.2484 35.1373 58.1409 34.2098C58.8319 33.4917 58.997 32.9389 59 31.333C59.0112 25.1422 56.2046 18.2536 51.8137 13.6953C50.8182 12.6618 50.4916 12.5492 49.9764 13.0615C49.4922 13.5428 49.5914 13.828 50.6597 15.0261C51.9024 16.4198 52.8017 17.6141 53.6519 18.9998C55.8803 22.6314 57.2338 27.2482 57.2338 31.2171C57.2338 32.6625 57.1453 32.9139 56.5249 33.2329C55.8363 33.587 55.1297 33.3893 54.6725 32.715C54.4498 32.3862 54.4037 32.1616 54.4037 31.4036C54.4037 27.8937 53.087 23.507 51.0656 20.2821C49.8553 18.3513 47.9425 16.1819 46.195 14.758C42.3237 11.6037 37.1896 9.72543 32.4388 9.72543C31.3663 9.72543 31.2592 9.74676 30.9912 10.0133C30.735 10.2679 30.7017 10.4027 30.7017 11.1857C30.7017 11.6722 30.6543 12.0702 30.5963 12.0702C30.4893 12.0702 26.1046 8.81177 25.7115 8.44011C25.5062 8.24596 25.6006 8.15874 27.9197 6.39942C29.2522 5.38869 30.4231 4.53083 30.522 4.49308C30.6734 4.43528 30.7017 4.56601 30.7017 5.32162C30.7017 6.10667 30.7363 6.25322 30.9784 6.49392C31.2272 6.74118 31.3969 6.77647 32.6587 6.84318C36.7375 7.05878 39.8615 7.8307 43.1423 9.43326C43.9854 9.84513 45.2059 10.5364 45.8545 10.9694C47.1823 11.8557 47.6634 11.9707 48.0512 11.4945C48.5809 10.8441 48.197 10.3185 46.373 9.19667C44.3411 7.947 41.9498 6.86158 39.8405 6.23165C37.8319 5.63161 35.0344 5.15303 33.5355 5.15303C32.4942 5.15303 32.471 5.13298 32.4677 4.23187C32.4638 3.16404 32.3038 2.56377 31.9395 2.25132C31.5561 1.92246 31.1153 1.91636 30.5931 2.23291ZM21.4177 17.4514C20.6583 17.7313 20.2775 17.9957 19.6336 18.6902C18.8212 19.5665 18.6233 20.1274 18.6188 21.5668C18.6153 22.6938 18.643 22.8507 18.9466 23.4238C19.3958 24.2719 20.0712 24.9744 20.8215 25.3739C21.1644 25.5567 21.4557 25.7131 21.469 25.7218C21.4822 25.7303 21.3587 26.1048 21.1947 26.5538C20.5629 28.283 20.3982 29.2356 20.3925 31.1957L20.3872 33.0282L19.6555 33.3451C18.7534 33.7359 17.8521 34.6028 17.4101 35.5047C17.1242 36.0883 17.0874 36.2967 17.0874 37.3357C17.0874 38.3726 17.1244 38.5836 17.4078 39.1617C17.8453 40.0544 18.6886 40.8739 19.6173 41.3088C20.974 41.9444 22.6261 41.7845 23.948 40.8897L24.4462 40.5524L25.1272 41.1039C28.2346 43.6205 32.4641 44.5945 36.302 43.6772C36.6906 43.5844 37.0136 43.5176 37.0199 43.5289C37.2572 43.9579 37.8857 44.7326 38.3364 45.1516C39.4052 46.1452 40.7602 46.6563 42.3258 46.6563C44.5919 46.6563 46.559 45.4434 47.5554 43.4322C47.9967 42.5409 48.1474 41.8874 48.1511 40.8482C48.157 39.1549 47.5985 37.8638 46.316 36.6058L45.4525 35.7588L45.6871 35.0817C46.4903 32.7645 46.4553 29.2939 45.605 26.9408C44.1317 22.864 40.9647 19.8729 36.8711 18.6918C33.9839 17.8589 30.6193 18.125 27.8889 19.4025C27.412 19.6256 27.0021 19.8081 26.9781 19.8081C26.954 19.8081 26.8489 19.6439 26.7445 19.4431C26.4131 18.806 25.6046 18.0398 24.8691 17.6656C23.9304 17.188 22.3909 17.0925 21.4177 17.4514ZM24.3166 19.3724C25.7039 20.2852 25.9158 22.2288 24.7537 23.3825C23.1073 25.0169 20.337 23.8966 20.3274 21.5923C20.3229 20.5148 20.8553 19.6503 21.7988 19.2034C22.5048 18.869 23.6705 18.9472 24.3166 19.3724ZM34.6938 20.0474C39.1497 20.6029 42.8975 23.8071 44.1505 28.1322C44.5166 29.3957 44.6009 31.9296 44.3221 33.2908C44.0598 34.5719 43.8108 35.1994 43.597 35.1178C43.5074 35.0837 43.1032 35.0232 42.6986 34.9834C40.4725 34.7649 38.0806 36.1203 37.0389 38.1906C36.5625 39.1372 36.2986 40.4299 36.4104 41.2681L36.4853 41.8294L35.6276 42.0252C34.5917 42.2616 32.3517 42.2983 31.3503 42.0952C29.5089 41.7216 27.6638 40.8815 26.3387 39.8133C25.6743 39.2777 25.5768 39.1496 25.6065 38.8517C25.7816 37.1007 25.7642 36.5017 25.5192 35.8522C25.0488 34.6058 24.0995 33.6657 22.8431 33.2017C22.2799 32.9939 22.2715 32.9832 22.1735 32.3496C21.9505 30.9076 22.2858 28.5644 22.9507 26.9179L23.3317 25.9743L24.0067 25.7765C25.7533 25.2649 26.858 24.0822 27.2145 22.3418L27.3612 21.6254L28.3519 21.1325C30.3441 20.1412 32.4947 19.7733 34.6938 20.0474ZM33.3541 24.7734C32.2226 25.2974 31.5324 26.3922 31.5324 27.6633C31.5324 29.9321 33.6937 31.3988 35.924 30.6433C36.5901 30.4176 37.3724 29.6727 37.6989 28.9529C38.0391 28.2031 38.0284 27.0736 37.674 26.3458C37.3399 25.6595 36.4217 24.8223 35.8001 24.6372C35.0311 24.4081 34.0218 24.4642 33.3541 24.7734ZM35.6375 26.5534C36.7046 27.446 36.1178 29.0702 34.7282 29.0702C34.1007 29.0702 33.7308 28.8627 33.4722 28.3654C33.1346 27.7164 33.3341 26.8413 33.9112 26.4394C34.3364 26.1433 35.2168 26.2014 35.6375 26.5534ZM7.23494 28.9452C6.35891 29.2102 5.6291 29.8564 5.24032 30.7115C5.04009 31.1515 5.00035 31.4823 5 32.7046C4.99906 37.9869 7.01726 43.7191 10.5108 48.3563C11.2162 49.2925 11.4357 49.4701 11.8883 49.4701C12.3115 49.4701 12.6014 49.2202 12.7182 48.7546C12.7806 48.506 12.6804 48.2997 12.1769 47.6408C11.2073 46.372 10.1411 44.7085 9.49252 43.4529C7.79152 40.1597 6.76397 36.1194 6.76397 32.7247C6.76397 31.3448 6.85795 31.0857 7.47278 30.7695C8.16144 30.4154 8.86802 30.6131 9.32519 31.2874C9.54794 31.6162 9.59405 31.8408 9.59405 32.5988C9.59405 34.6738 10.2153 37.7943 11.0626 39.9757C13.3724 45.9223 18.2087 50.6758 24.2161 52.9044C26.4675 53.7395 28.5143 54.1459 30.9557 54.2421L32.6836 54.3103L32.9899 54.0058C33.2653 53.7319 33.296 53.6128 33.296 52.8167C33.296 52.3302 33.3469 51.9321 33.4091 51.9321C33.5202 51.9321 37.8629 55.1666 38.2891 55.5667C38.4978 55.7626 38.4109 55.8428 36.0755 57.6078C34.7385 58.6182 33.5661 59.4748 33.4703 59.5114C33.3258 59.5665 33.296 59.4242 33.296 58.6808C33.296 57.8845 33.2634 57.7512 33.0065 57.4958C32.8383 57.3285 32.579 57.2075 32.3874 57.2068C31.328 57.2031 28.4762 56.9296 27.4085 56.7293C23.2988 55.9585 19.3984 54.1853 16.1743 51.622C15.6079 51.1716 15.283 50.9942 15.0246 50.9942C14.5414 50.9942 14.1929 51.3588 14.1929 51.8646C14.1929 52.2169 14.2905 52.3469 14.9889 52.926C16.2972 54.0107 18.1425 55.1721 20.025 56.0957C23.3211 57.7129 26.7041 58.6295 30.112 58.8287L31.4682 58.908L31.5518 60.0753C31.614 60.9422 31.693 61.3195 31.8587 61.5409C32.1344 61.909 32.5715 62.0739 32.9929 61.9688C33.3064 61.8906 38.7634 57.8764 39.5149 57.1713C39.7248 56.9743 39.9848 56.5837 40.0924 56.3032C40.339 55.6612 40.1817 55.0334 39.6264 54.4447C38.9191 53.6949 33.3768 49.5955 32.9626 49.5159C32.0309 49.337 31.6341 49.8741 31.5525 51.4248L31.4935 52.5495L30.3501 52.4712C23.8402 52.0255 17.6901 48.1943 14.2063 42.4144C12.4946 39.5748 11.3628 35.638 11.3628 32.5239C11.3628 30.8764 10.6958 29.7068 9.41717 29.1121C8.81212 28.8308 7.85532 28.7576 7.23494 28.9452ZM22.7331 35.0966C23.0065 35.2559 23.3859 35.6094 23.5758 35.882C23.889 36.3314 23.9213 36.4672 23.9213 37.3357C23.9213 38.2041 23.889 38.3399 23.5758 38.7893C22.1073 40.8963 18.7826 39.8677 18.7944 37.3101C18.8035 35.3394 21.0158 34.0961 22.7331 35.0966ZM44.1089 37.1624C44.9229 37.5609 45.6231 38.2709 46.0467 39.1276C46.2736 39.5862 46.3207 39.8704 46.3232 40.7943C46.3258 41.7577 46.2841 41.9974 46.0139 42.5702C45.6331 43.3778 44.9496 44.0781 44.1192 44.5114C43.5595 44.8034 43.3759 44.8367 42.3169 44.8378C41.3234 44.8388 41.051 44.7966 40.5879 44.5698C38.7552 43.6722 37.8152 41.7348 38.2989 39.8521C38.9607 37.2761 41.726 35.9961 44.1089 37.1624Z" fill="#427BFD"/>
</svg>
