<svg viewBox="0 0 323 113" fill="none" xmlns="http://www.w3.org/2000/svg">
<path d="M146.31 33.25C146.406 31.2625 146.919 29.4834 147.848 27.9127C148.81 26.3419 150.044 25.1078 151.551 24.2102C153.089 23.3127 154.788 22.8639 156.648 22.8639C158.122 22.8639 159.26 23.0722 160.062 23.489C160.863 23.9057 161.167 24.5148 160.975 25.3162C160.847 25.797 160.622 26.1175 160.302 26.2778C160.013 26.4381 159.645 26.5022 159.196 26.4702C158.779 26.4381 158.298 26.406 157.753 26.374C155.958 26.2137 154.356 26.406 152.945 26.951C151.567 27.4639 150.461 28.2653 149.627 29.3552C148.826 30.4451 148.425 31.7433 148.425 33.25H146.31ZM146.598 49.4542C146.021 49.4542 145.572 49.2939 145.252 48.9733C144.931 48.6528 144.771 48.204 144.771 47.627V24.9796C144.771 24.4026 144.931 23.9538 145.252 23.6332C145.572 23.3127 146.021 23.1524 146.598 23.1524C147.175 23.1524 147.624 23.3127 147.944 23.6332C148.265 23.9538 148.425 24.4026 148.425 24.9796V47.627C148.425 48.204 148.265 48.6528 147.944 48.9733C147.624 49.2939 147.175 49.4542 146.598 49.4542ZM176.793 49.6946C174.197 49.6946 171.889 49.1336 169.869 48.0117C167.882 46.8576 166.311 45.2709 165.157 43.2514C164.035 41.2319 163.474 38.9238 163.474 36.3273C163.474 33.6987 164.003 31.3907 165.061 29.4033C166.151 27.3838 167.641 25.797 169.532 24.643C171.424 23.489 173.604 22.912 176.072 22.912C178.508 22.912 180.624 23.4729 182.419 24.5949C184.246 25.6848 185.657 27.2074 186.65 29.1628C187.644 31.1183 188.141 33.3461 188.141 35.8465C188.141 36.3594 187.981 36.7761 187.66 37.0967C187.339 37.3852 186.923 37.5294 186.41 37.5294H165.974V34.4521H186.795L184.727 35.9426C184.759 34.0834 184.422 32.4165 183.717 30.9419C183.012 29.4674 182.002 28.3134 180.688 27.4799C179.406 26.6465 177.867 26.2297 176.072 26.2297C174.245 26.2297 172.642 26.6625 171.263 27.528C169.885 28.3935 168.811 29.5956 168.042 31.1343C167.305 32.6409 166.936 34.3719 166.936 36.3273C166.936 38.2827 167.353 40.0137 168.186 41.5204C169.052 43.027 170.222 44.213 171.696 45.0785C173.171 45.9441 174.87 46.3768 176.793 46.3768C177.947 46.3768 179.101 46.1845 180.255 45.7998C181.441 45.3831 182.387 44.8702 183.092 44.2611C183.445 43.9726 183.845 43.8284 184.294 43.8284C184.743 43.7963 185.128 43.9085 185.448 44.165C185.865 44.5496 186.073 44.9664 186.073 45.4151C186.105 45.8639 185.929 46.2486 185.544 46.5691C184.487 47.4667 183.14 48.22 181.505 48.8291C179.87 49.4061 178.3 49.6946 176.793 49.6946ZM203.588 49.6946C201.697 49.6946 199.822 49.374 197.962 48.7329C196.103 48.0918 194.596 47.1301 193.442 45.8479C193.09 45.4632 192.946 45.0305 193.01 44.5496C193.074 44.0688 193.314 43.6521 193.731 43.2995C194.18 42.9789 194.645 42.8507 195.125 42.9148C195.606 42.9789 196.007 43.1873 196.327 43.5399C197.097 44.4374 198.107 45.1266 199.357 45.6075C200.639 46.0883 202.049 46.3287 203.588 46.3287C205.96 46.3287 207.675 45.928 208.733 45.1266C209.791 44.2932 210.336 43.2995 210.368 42.1454C210.368 40.9914 209.823 40.0458 208.733 39.3085C207.643 38.5392 205.848 37.9461 203.348 37.5294C200.11 37.0165 197.738 36.119 196.231 34.8367C194.725 33.5545 193.971 32.0318 193.971 30.2688C193.971 28.6339 194.404 27.2716 195.27 26.1817C196.135 25.0918 197.289 24.2743 198.732 23.7294C200.174 23.1844 201.761 22.912 203.492 22.912C205.64 22.912 207.483 23.2806 209.022 24.0179C210.592 24.7552 211.859 25.7489 212.82 26.9991C213.141 27.4158 213.269 27.8486 213.205 28.2973C213.141 28.7461 212.884 29.1148 212.436 29.4033C212.051 29.6277 211.602 29.7078 211.089 29.6437C210.608 29.5475 210.192 29.3071 209.839 28.9224C209.038 27.9928 208.108 27.3196 207.05 26.9029C205.992 26.4541 204.774 26.2297 203.396 26.2297C201.633 26.2297 200.222 26.5984 199.164 27.3357C198.107 28.0409 197.578 28.9385 197.578 30.0284C197.578 30.7656 197.77 31.4068 198.155 31.9517C198.571 32.4966 199.261 32.9775 200.222 33.3942C201.216 33.8109 202.594 34.1636 204.357 34.4521C206.762 34.8367 208.653 35.4137 210.031 36.1831C211.442 36.9203 212.436 37.8019 213.013 38.8277C213.622 39.8214 213.926 40.9113 213.926 42.0974C213.926 43.604 213.477 44.9343 212.58 46.0883C211.714 47.2103 210.496 48.0918 208.925 48.7329C207.387 49.374 205.608 49.6946 203.588 49.6946ZM231.768 49.7427C229.492 49.7427 227.457 49.2779 225.662 48.3482C223.866 47.3866 222.44 45.9921 221.382 44.165C220.356 42.3378 219.843 40.1099 219.843 37.4813V24.9796C219.843 24.4667 220.02 24.0339 220.372 23.6813C220.725 23.3287 221.158 23.1524 221.671 23.1524C222.216 23.1524 222.664 23.3287 223.017 23.6813C223.37 24.0339 223.546 24.4667 223.546 24.9796V37.4813C223.546 39.4688 223.915 41.1036 224.652 42.3859C225.421 43.6681 226.447 44.6298 227.729 45.2709C229.043 45.912 230.518 46.2326 232.153 46.2326C233.724 46.2326 235.134 45.928 236.384 45.319C237.666 44.7099 238.676 43.8765 239.413 42.8186C240.151 41.7608 240.519 40.5587 240.519 39.2123H243.164C243.068 41.2319 242.507 43.043 241.481 44.6458C240.487 46.2165 239.141 47.4667 237.442 48.3963C235.743 49.2939 233.852 49.7427 231.768 49.7427ZM242.347 49.4542C241.802 49.4542 241.353 49.2939 241 48.9733C240.68 48.6207 240.519 48.1559 240.519 47.5789V24.9796C240.519 24.4346 240.68 24.0019 241 23.6813C241.353 23.3287 241.802 23.1524 242.347 23.1524C242.892 23.1524 243.34 23.3287 243.693 23.6813C244.046 24.0019 244.222 24.4346 244.222 24.9796V47.5789C244.222 48.1559 244.046 48.6207 243.693 48.9733C243.34 49.2939 242.892 49.4542 242.347 49.4542ZM258.539 49.4542C257.257 49.4542 256.103 49.1015 255.077 48.3963C254.083 47.6911 253.298 46.7134 252.721 45.4632C252.176 44.213 251.904 42.7705 251.904 41.1357V13.728C251.904 13.183 252.064 12.7503 252.384 12.4297C252.737 12.0771 253.186 11.9008 253.731 11.9008C254.276 11.9008 254.708 12.0771 255.029 12.4297C255.382 12.7503 255.558 13.183 255.558 13.728V41.1357C255.558 42.5141 255.83 43.636 256.375 44.5015C256.952 45.367 257.674 45.7998 258.539 45.7998H259.741C260.222 45.7998 260.607 45.9761 260.895 46.3287C261.184 46.6493 261.328 47.082 261.328 47.627C261.328 48.1719 261.12 48.6207 260.703 48.9733C260.318 49.2939 259.805 49.4542 259.164 49.4542H258.539ZM276.726 49.4542C275.027 49.4542 273.504 49.0535 272.158 48.2521C270.843 47.4507 269.802 46.3608 269.032 44.9824C268.263 43.5719 267.878 41.9691 267.878 40.174V16.6611C267.878 16.1161 268.039 15.6674 268.359 15.3147C268.712 14.9621 269.16 14.7858 269.705 14.7858C270.25 14.7858 270.699 14.9621 271.052 15.3147C271.404 15.6674 271.581 16.1161 271.581 16.6611V40.174C271.581 41.8089 272.062 43.1552 273.023 44.213C273.985 45.2388 275.219 45.7517 276.726 45.7517H278.024C278.537 45.7517 278.954 45.928 279.274 46.2806C279.595 46.6333 279.755 47.082 279.755 47.627C279.755 48.1719 279.563 48.6207 279.178 48.9733C278.793 49.2939 278.312 49.4542 277.735 49.4542H276.726ZM264.753 27.3357C264.272 27.3357 263.871 27.1914 263.551 26.9029C263.23 26.5824 263.07 26.1977 263.07 25.7489C263.07 25.2681 263.23 24.8834 263.551 24.5949C263.871 24.2743 264.272 24.1141 264.753 24.1141H277.014C277.495 24.1141 277.896 24.2743 278.216 24.5949C278.537 24.8834 278.697 25.2681 278.697 25.7489C278.697 26.1977 278.537 26.5824 278.216 26.9029C277.896 27.1914 277.495 27.3357 277.014 27.3357H264.753ZM294.966 49.6946C293.075 49.6946 291.199 49.374 289.34 48.7329C287.481 48.0918 285.974 47.1301 284.82 45.8479C284.468 45.4632 284.323 45.0305 284.387 44.5496C284.452 44.0688 284.692 43.6521 285.109 43.2995C285.558 42.9789 286.022 42.8507 286.503 42.9148C286.984 42.9789 287.385 43.1873 287.705 43.5399C288.475 44.4374 289.484 45.1266 290.735 45.6075C292.017 46.0883 293.427 46.3287 294.966 46.3287C297.338 46.3287 299.053 45.928 300.111 45.1266C301.169 44.2932 301.714 43.2995 301.746 42.1454C301.746 40.9914 301.201 40.0458 300.111 39.3085C299.021 38.5392 297.226 37.9461 294.725 37.5294C291.488 37.0165 289.116 36.119 287.609 34.8367C286.102 33.5545 285.349 32.0318 285.349 30.2688C285.349 28.6339 285.782 27.2716 286.647 26.1817C287.513 25.0918 288.667 24.2743 290.109 23.7294C291.552 23.1844 293.139 22.912 294.87 22.912C297.017 22.912 298.861 23.2806 300.399 24.0179C301.97 24.7552 303.236 25.7489 304.198 26.9991C304.519 27.4158 304.647 27.8486 304.583 28.2973C304.519 28.7461 304.262 29.1148 303.813 29.4033C303.429 29.6277 302.98 29.7078 302.467 29.6437C301.986 29.5475 301.569 29.3071 301.217 28.9224C300.415 27.9928 299.486 27.3196 298.428 26.9029C297.37 26.4541 296.152 26.2297 294.774 26.2297C293.011 26.2297 291.6 26.5984 290.542 27.3357C289.484 28.0409 288.955 28.9385 288.955 30.0284C288.955 30.7656 289.148 31.4068 289.532 31.9517C289.949 32.4966 290.638 32.9775 291.6 33.3942C292.594 33.8109 293.972 34.1636 295.735 34.4521C298.139 34.8367 300.031 35.4137 301.409 36.1831C302.82 36.9203 303.813 37.8019 304.39 38.8277C304.999 39.8214 305.304 40.9113 305.304 42.0974C305.304 43.604 304.855 44.9343 303.958 46.0883C303.092 47.2103 301.874 48.0918 300.303 48.7329C298.765 49.374 296.985 49.6946 294.966 49.6946ZM156.359 90.6946C153.827 90.6946 151.583 90.1336 149.627 89.0117C147.672 87.8576 146.133 86.2709 145.011 84.2514C143.921 82.2319 143.376 79.9238 143.376 77.3273C143.376 74.6987 143.953 72.3747 145.107 70.3552C146.261 68.3357 147.848 66.7649 149.868 65.643C151.887 64.489 154.179 63.912 156.744 63.912C159.34 63.912 161.632 64.489 163.62 65.643C165.639 66.7649 167.21 68.3357 168.332 70.3552C169.486 72.3747 170.079 74.6987 170.111 77.3273L167.947 78.4813C167.947 80.8535 167.45 82.9691 166.457 84.8284C165.463 86.6556 164.085 88.0981 162.321 89.1559C160.59 90.1817 158.603 90.6946 156.359 90.6946ZM156.84 100.84C154.307 100.84 152.08 100.359 150.156 99.3977C148.233 98.4681 146.646 97.1859 145.396 95.551C145.043 95.1664 144.883 94.7496 144.915 94.3009C144.979 93.8521 145.22 93.4834 145.636 93.1949C146.053 92.9064 146.518 92.8103 147.031 92.9064C147.544 93.0026 147.944 93.243 148.233 93.6277C149.163 94.7817 150.349 95.7113 151.791 96.4165C153.266 97.1218 154.965 97.4744 156.888 97.4744C158.683 97.4744 160.302 97.0416 161.744 96.1761C163.187 95.3106 164.325 94.0925 165.158 92.5218C166.024 90.951 166.457 89.1078 166.457 86.9921V79.6834L167.851 76.8946L170.111 77.3273V87.1364C170.111 89.7329 169.534 92.057 168.38 94.1085C167.226 96.1921 165.655 97.827 163.668 99.0131C161.68 100.231 159.404 100.84 156.84 100.84ZM156.744 87.3287C158.635 87.3287 160.302 86.912 161.744 86.0785C163.219 85.213 164.373 84.027 165.206 82.5204C166.04 81.0137 166.457 79.2827 166.457 77.3273C166.457 75.3719 166.04 73.6409 165.206 72.1343C164.373 70.5956 163.219 69.4095 161.744 68.5761C160.302 67.7106 158.635 67.2778 156.744 67.2778C154.852 67.2778 153.17 67.7106 151.695 68.5761C150.22 69.4095 149.066 70.5956 148.233 72.1343C147.399 73.6409 146.983 75.3719 146.983 77.3273C146.983 79.2827 147.399 81.0137 148.233 82.5204C149.066 84.027 150.22 85.213 151.695 86.0785C153.17 86.912 154.852 87.3287 156.744 87.3287ZM178.851 74.25C178.947 72.2625 179.46 70.4834 180.389 68.9127C181.351 67.3419 182.585 66.1078 184.092 65.2102C185.63 64.3127 187.329 63.8639 189.189 63.8639C190.663 63.8639 191.801 64.0722 192.603 64.489C193.404 64.9057 193.708 65.5148 193.516 66.3162C193.388 66.797 193.163 67.1175 192.843 67.2778C192.554 67.4381 192.186 67.5022 191.737 67.4702C191.32 67.4381 190.839 67.406 190.294 67.374C188.499 67.2137 186.897 67.406 185.486 67.951C184.108 68.4639 183.002 69.2653 182.168 70.3552C181.367 71.4451 180.966 72.7433 180.966 74.25H178.851ZM179.139 90.4542C178.562 90.4542 178.113 90.2939 177.793 89.9733C177.472 89.6528 177.312 89.204 177.312 88.627V65.9796C177.312 65.4026 177.472 64.9538 177.793 64.6332C178.113 64.3127 178.562 64.1524 179.139 64.1524C179.716 64.1524 180.165 64.3127 180.485 64.6332C180.806 64.9538 180.966 65.4026 180.966 65.9796V88.627C180.966 89.204 180.806 89.6528 180.485 89.9733C180.165 90.2939 179.716 90.4542 179.139 90.4542ZM209.382 90.6946C206.818 90.6946 204.526 90.1176 202.506 88.9636C200.487 87.8096 198.9 86.2228 197.746 84.2033C196.592 82.1838 196.015 79.8918 196.015 77.3273C196.015 74.7308 196.592 72.4228 197.746 70.4033C198.9 68.3838 200.487 66.797 202.506 65.643C204.526 64.489 206.818 63.912 209.382 63.912C211.947 63.912 214.223 64.489 216.21 65.643C218.23 66.797 219.816 68.3838 220.97 70.4033C222.124 72.4228 222.717 74.7308 222.749 77.3273C222.749 79.8918 222.156 82.1838 220.97 84.2033C219.816 86.2228 218.23 87.8096 216.21 88.9636C214.223 90.1176 211.947 90.6946 209.382 90.6946ZM209.382 87.3287C211.241 87.3287 212.908 86.896 214.383 86.0305C215.857 85.165 217.011 83.9789 217.845 82.4723C218.678 80.9656 219.095 79.2507 219.095 77.3273C219.095 75.404 218.678 73.689 217.845 72.1824C217.011 70.6437 215.857 69.4416 214.383 68.5761C212.908 67.7106 211.241 67.2778 209.382 67.2778C207.523 67.2778 205.856 67.7106 204.382 68.5761C202.907 69.4416 201.737 70.6437 200.871 72.1824C200.038 73.689 199.621 75.404 199.621 77.3273C199.621 79.2507 200.038 80.9656 200.871 82.4723C201.737 83.9789 202.907 85.165 204.382 86.0305C205.856 86.896 207.523 87.3287 209.382 87.3287ZM241.394 90.7427C239.118 90.7427 237.083 90.2779 235.288 89.3482C233.493 88.3866 232.066 86.9921 231.008 85.165C229.982 83.3378 229.47 81.1099 229.47 78.4813V65.9796C229.47 65.4667 229.646 65.0339 229.998 64.6813C230.351 64.3287 230.784 64.1524 231.297 64.1524C231.842 64.1524 232.29 64.3287 232.643 64.6813C232.996 65.0339 233.172 65.4667 233.172 65.9796V78.4813C233.172 80.4688 233.541 82.1036 234.278 83.3859C235.047 84.6681 236.073 85.6298 237.355 86.2709C238.67 86.912 240.144 87.2326 241.779 87.2326C243.35 87.2326 244.76 86.928 246.01 86.319C247.293 85.7099 248.302 84.8765 249.04 83.8186C249.777 82.7608 250.146 81.5587 250.146 80.2123H252.79C252.694 82.2319 252.133 84.043 251.107 85.6458C250.113 87.2165 248.767 88.4667 247.068 89.3963C245.369 90.2939 243.478 90.7427 241.394 90.7427ZM251.973 90.4542C251.428 90.4542 250.979 90.2939 250.626 89.9733C250.306 89.6207 250.146 89.1559 250.146 88.5789V65.9796C250.146 65.4346 250.306 65.0019 250.626 64.6813C250.979 64.3287 251.428 64.1524 251.973 64.1524C252.518 64.1524 252.966 64.3287 253.319 64.6813C253.672 65.0019 253.848 65.4346 253.848 65.9796V88.5789C253.848 89.1559 253.672 89.6207 253.319 89.9733C252.966 90.2939 252.518 90.4542 251.973 90.4542ZM264.367 101.706C263.79 101.706 263.325 101.529 262.972 101.177C262.652 100.856 262.491 100.407 262.491 99.8305V77.135C262.523 74.6346 263.116 72.3907 264.27 70.4033C265.457 68.3838 267.043 66.797 269.031 65.643C271.05 64.489 273.31 63.912 275.811 63.912C278.375 63.912 280.667 64.505 282.687 65.6911C284.706 66.8451 286.293 68.4318 287.447 70.4514C288.633 72.4709 289.226 74.7629 289.226 77.3273C289.226 79.8597 288.649 82.1357 287.495 84.1552C286.373 86.1747 284.834 87.7775 282.879 88.9636C280.923 90.1176 278.712 90.6946 276.243 90.6946C274.096 90.6946 272.14 90.2458 270.377 89.3482C268.646 88.4186 267.252 87.2005 266.194 85.6939V99.8305C266.194 100.407 266.018 100.856 265.665 101.177C265.344 101.529 264.912 101.706 264.367 101.706ZM275.811 87.3287C277.67 87.3287 279.337 86.896 280.811 86.0305C282.286 85.165 283.44 83.9789 284.273 82.4723C285.139 80.9336 285.572 79.2186 285.572 77.3273C285.572 75.404 285.139 73.689 284.273 72.1824C283.44 70.6757 282.286 69.4897 280.811 68.6242C279.337 67.7266 277.67 67.2778 275.811 67.2778C273.983 67.2778 272.333 67.7266 270.858 68.6242C269.383 69.4897 268.229 70.6757 267.396 72.1824C266.562 73.689 266.146 75.404 266.146 77.3273C266.146 79.2186 266.562 80.9336 267.396 82.4723C268.229 83.9789 269.383 85.165 270.858 86.0305C272.333 86.896 273.983 87.3287 275.811 87.3287Z" fill="#0A70E5"/>
<path d="M110.116 41.0268C105.188 30.0679 94.1787 17.4632 78.0683 14.9748C71.2739 13.9731 64.3362 14.7194 57.9103 17.1434C55.4932 17.4375 53.0426 17.2805 50.6828 16.6804L50.4078 16.6067C48.729 16.197 46.966 16.2996 45.346 16.901C43.7261 17.5024 42.3233 18.5752 41.3186 19.9812C40.3139 21.3871 39.7532 23.0617 39.7089 24.7891C39.6646 26.5166 40.1386 28.2178 41.0699 29.6734C42.0011 31.129 43.347 32.2723 44.934 32.9561C46.521 33.6398 48.2764 33.8326 49.974 33.5097C51.6716 33.1867 53.2335 32.3627 54.4585 31.1439C55.6836 29.9252 56.5155 28.3675 56.8472 26.6716L56.9768 26.1878C57.3634 24.1293 58.079 22.1465 59.0961 20.3155C64.9721 18.1018 71.3153 17.4216 77.5271 18.3391C92.2759 20.6537 102.41 32.2872 106.969 42.4266C111.073 51.5056 111.694 61.7769 108.715 71.2846C105.736 80.7924 99.3641 88.8724 90.8129 93.986C82.2616 99.0996 72.1284 100.89 62.3427 99.0151C52.5571 97.1407 43.8026 91.7327 37.7464 83.8211C41.3619 85.6782 45.3258 86.7589 49.3836 86.9938C59.7093 87.6266 70.8454 82.7295 77.756 74.5171C81.2413 70.3698 82.8205 66.3503 84.2112 62.8098C85.8925 58.5721 87.316 54.9093 91.7174 52.1099C94.5549 50.3536 97.7779 49.3158 101.107 49.0863C101.465 49.0567 101.804 48.9138 102.075 48.6784C102.346 48.443 102.534 48.1273 102.614 47.7773C102.693 47.4272 102.658 47.061 102.515 46.7319C102.372 46.4028 102.127 46.128 101.817 45.9473C98.2585 43.8685 94.3039 42.5579 90.208 42.0998C88.6333 40.1552 82.5929 33.5101 74.1054 34.5105C71.3606 34.8608 68.7528 35.9142 66.5348 37.5686C65.2721 37.9652 63.9508 38.1428 62.6282 38.0937L62.4516 38.1009C61.2527 38.0718 60.0712 38.3922 59.0512 39.0231C58.0313 39.654 57.217 40.5681 56.7077 41.6539C56.3281 42.4679 56.1262 43.3533 56.1154 44.2514C56.0926 44.8722 56.1422 45.4936 56.2633 46.103C56.4996 47.2579 55.1317 49.8985 54.3133 50.9564C53.193 52.4081 50.2457 53.6105 46.9666 53.9326C42.5192 54.3782 38.364 53.2648 35.5812 50.8382C34.3498 49.7715 31.4326 46.8285 30.8794 42.5379C30.8152 42.024 30.7977 41.6209 30.7868 41.356C30.7808 41.2561 30.7809 41.1743 30.7755 41.1128C30.7677 41.0456 30.7565 40.9788 30.7418 40.9128C30.6055 39.0796 29.9281 37.3281 28.7954 35.8803C27.6626 34.4325 26.1256 33.3536 24.379 32.7803C22.6325 32.207 20.755 32.1651 18.9846 32.66C17.2142 33.1548 15.6306 34.1641 14.4344 35.56C13.2383 36.9558 12.4834 38.6753 12.2655 40.5006C12.0477 42.3259 12.3766 44.1748 13.2106 45.8129C14.0446 47.4511 15.3462 48.8048 16.9504 49.7024C18.5546 50.6001 20.3891 51.0013 22.2216 50.8552L22.3802 50.854L22.6325 50.8288C26.3002 50.4417 29.6892 51.5626 32.7095 54.162C34.1921 55.4109 35.3709 56.981 36.1565 58.7533C34.8188 59.4212 33.3124 59.675 31.8297 59.4823C30.8241 59.3271 29.8595 58.9735 28.9918 58.4421C28.1242 57.9108 27.3708 57.2122 26.7756 56.387L26.6854 56.2755C26.0887 55.4845 25.3118 54.8473 24.4194 54.417C23.5269 53.9866 22.5446 53.7754 21.5541 53.801C20.5636 53.8266 19.5935 54.0883 18.7245 54.5642C17.8554 55.0401 17.1125 55.7165 16.5575 56.5373C16.0025 57.3581 15.6514 58.2995 15.5333 59.2833C15.4153 60.267 15.5338 61.2648 15.8789 62.1936C16.224 63.1223 16.7858 63.9553 17.5176 64.6233C18.2494 65.2913 19.1301 65.775 20.0864 66.0341C20.3507 66.104 20.6194 66.1559 20.8907 66.1896C21.7052 66.2997 22.5335 66.2457 23.3269 66.0309C24.1202 65.8161 24.8626 65.4447 25.5102 64.9387C25.6051 64.8807 25.6919 64.8103 25.7682 64.7295C25.8451 64.6463 27.7719 62.6903 31.3291 63.1631C32.4961 63.3 33.6191 63.6903 34.6194 64.3067C35.0781 64.6316 35.5273 64.9921 35.9418 65.3597C36.7627 66.0775 37.5216 66.8633 38.2105 67.7086C38.3997 67.9394 38.5811 68.179 38.7913 68.4537L38.9744 68.6665C39.7203 69.6563 40.6586 70.4851 41.7329 71.1032C42.8072 71.7212 43.9954 72.1156 45.226 72.2627L45.2973 72.2818C47.3167 72.5091 49.3547 72.0633 51.0948 71.0136L51.1479 70.9787L51.3093 70.8855C51.4347 70.8045 51.5628 70.7133 51.678 70.6295L51.832 70.5234C51.9136 70.4634 51.9938 70.4085 52.0366 70.3709L52.1311 70.3034C52.2154 70.2332 52.2997 70.163 52.366 70.0989L52.5438 69.9446L52.7736 69.7388C52.9347 69.5855 53.082 69.423 53.2054 69.3087L53.2445 69.2646C53.2914 69.2117 53.3421 69.1652 53.3982 69.0984C54.1819 68.1828 54.7792 67.1229 55.1565 65.9783C55.1662 65.95 55.1739 65.9211 55.1797 65.8917C55.2002 65.8154 55.2193 65.7441 55.2384 65.6728L55.2725 65.5455C55.3203 65.3673 55.368 65.189 55.409 65.0363C55.4226 64.9853 55.4349 64.9395 55.4567 64.858C55.5181 64.6289 55.5439 64.3902 55.5652 64.1885C55.5652 64.1885 55.5802 64.1325 55.5843 64.1172C55.6211 63.9797 55.607 63.8286 55.6157 63.6945L55.6385 63.324C55.6729 61.7705 55.5534 60.2175 55.2818 58.6875C54.9767 57.0558 55.9976 54.7533 57.1624 53.3189C58.4033 51.7947 60.187 50.8112 62.1382 50.5752L62.2852 50.5764C63.1106 50.5807 63.9285 50.4198 64.6908 50.1033C65.4531 49.7867 66.1444 49.3209 66.7239 48.7332C67.3035 48.1455 67.7597 47.4478 68.0656 46.6812C68.3715 45.9146 68.5209 45.0945 68.5052 44.2693L68.512 43.9382C68.4814 42.551 68.7036 41.1699 69.1676 39.8622C70.757 38.7875 72.5767 38.101 74.4801 37.8583C82.3011 36.9412 87.8758 44.5913 87.9372 44.6678C88.0788 44.8674 88.2624 45.0336 88.4751 45.1548C88.6878 45.2759 88.9244 45.3489 89.1683 45.3688C90.6162 45.4935 92.051 45.7392 93.4578 46.1034C94.13 46.2835 94.8072 46.465 95.4783 46.7103C93.5068 47.2907 91.6255 48.1421 89.8884 49.2403C84.564 52.6328 82.8619 56.9686 81.0546 61.5546C79.6972 65.0113 78.2877 68.6015 75.156 72.325C70.2471 78.1593 60.6257 84.6139 49.6515 83.6108C41.9651 82.9048 36.2124 78.7709 32.7486 75.4032C32.4964 75.0637 32.1276 74.8294 31.7132 74.7455C31.2987 74.6616 30.8678 74.7339 30.5035 74.9485C30.1391 75.1631 29.867 75.5049 29.7395 75.9081C29.612 76.3114 29.6381 76.7475 29.8128 77.1326C32.1716 82.414 35.5542 87.1753 39.7648 91.1411C43.9754 95.1069 48.9306 98.1986 54.3437 100.237C55.7567 100.769 57.2028 101.238 58.649 101.625C66.6927 103.764 75.1776 103.578 83.1203 101.091C91.0631 98.6043 98.1384 93.9172 103.526 87.5733C108.914 81.2293 112.393 73.4884 113.561 65.2477C114.729 57.0071 113.538 48.6041 110.125 41.0129L110.116 41.0268Z" fill="url(#paint0_linear_601_2199)"/>
<defs>
<linearGradient id="paint0_linear_601_2199" x1="10.617" y1="61.716" x2="111.593" y2="32.3315" gradientUnits="userSpaceOnUse">
<stop offset="0.223958" stop-color="#28E7D0"/>
<stop offset="0.864583" stop-color="#014CEB"/>
</linearGradient>
</defs>
</svg>
