<svg width="528" height="150" viewBox="0 0 528 150" fill="none" xmlns="http://www.w3.org/2000/svg">
<path fill-rule="evenodd" clip-rule="evenodd" d="M-237.506 198.04L-198.935 162.677C-160.365 127.314 -83.2234 56.5886 -8.66436 23.6828C65.8947 -9.22292 137.872 -4.30882 208.373 22.2166C278.875 48.7421 347.901 96.8788 419.509 107.196C491.117 117.513 565.307 90.0098 638.391 78.7154C711.474 67.421 783.451 72.3351 819.44 74.7921L855.428 77.2492L837.722 336.585L801.734 334.128C765.745 331.671 693.768 326.757 621.791 321.843C549.814 316.929 477.838 312.015 405.861 307.101C333.884 302.187 261.907 297.272 189.93 292.358C117.953 287.444 45.9758 282.53 -26.0012 277.616C-97.9781 272.702 -169.955 267.788 -205.944 265.331L-241.932 262.874L-237.506 198.04Z" fill="#CCDCFE"/>
</svg>
