<svg width="666" height="675" viewBox="0 0 666 675" fill="none" xmlns="http://www.w3.org/2000/svg">
<path fill-rule="evenodd" clip-rule="evenodd" d="M143.855 89.0177C193.422 61.3877 251.789 67.1967 306.958 53.8259C370.95 38.3166 430.379 -13.0542 494.003 4.15579C558.917 21.715 604.32 82.8585 635.231 142.624C664.827 199.844 670.316 266.032 662.488 329.91C655.203 389.347 628.504 443.515 592.499 491.3C558.074 536.987 510.599 567.33 461.491 596.666C405.727 629.978 351.459 681.271 286.856 673.881C221.999 666.462 177.691 606.663 132.908 559.079C91.4446 515.023 58.5739 465.708 37.5554 408.992C15.0105 348.158 -12.9068 282.234 7.52136 220.743C27.867 159.501 87.5157 120.424 143.855 89.0177Z" fill="#427BFD" fill-opacity="0.24"/>
</svg>
