<svg width="1139" height="1013" viewBox="0 0 1139 1013" fill="none" xmlns="http://www.w3.org/2000/svg">
<path fill-rule="evenodd" clip-rule="evenodd" d="M988.315 437.339C1050.92 547.411 1162.23 662.281 1133.39 764.322C1104.53 866.475 961.603 905.608 843.409 950.213C736.177 990.681 620.83 1025.8 487.081 1008.23C357.086 991.16 238.644 923.054 124.895 855.847C10.2253 788.097 -116.238 718.835 -169.253 620.451C-222.064 522.445 -168.354 433.574 -153.019 340.1C-135.88 235.626 -171.746 106.118 -74.4549 42.5977C24.7852 -22.1949 192.703 2.57324 341.028 17.5427C488.139 32.3898 646.626 47.022 771.438 127.968C894.038 207.48 926.669 328.959 988.315 437.339Z" fill="#427BFD" fill-opacity="0.08"/>
</svg>
