<svg width="817" height="906" viewBox="0 0 817 906" fill="none" xmlns="http://www.w3.org/2000/svg">
<path fill-rule="evenodd" clip-rule="evenodd" d="M36.2375 625.098C22.0475 492.85 -33.9518 350.658 30.7441 235.954C95.5115 121.124 238.502 89.1226 361.409 48.5805C472.917 11.7986 589.66 -18.0939 702.832 14.2602C812.827 45.7066 893.034 134.779 969.378 222.391C1046.34 310.712 1133.3 401.843 1143.34 519.782C1153.34 637.267 1071.37 734.566 1022.03 840.646C966.882 959.21 949.704 1111.38 838.326 1175.57C724.717 1241.04 583.668 1197.3 456.445 1166.61C330.263 1136.16 193.806 1104.93 112.78 1000.52C33.1905 897.955 50.2093 755.314 36.2375 625.098Z" fill="#0067FF" fill-opacity="0.05"/>
</svg>
