<svg viewBox="0 0 64 64" fill="none" xmlns="http://www.w3.org/2000/svg">
<path fill-rule="evenodd" clip-rule="evenodd" d="M53.7358 5.14523C53.545 5.22813 52.9203 5.72184 52.3474 6.24234C50.4648 7.95308 48.8232 9.05304 46.5145 10.151C44.8092 10.9621 43.4284 11.4577 40.0308 12.4785C34.6282 14.1018 32.8883 14.7434 30.3482 16.0489C24.4175 19.0971 19.0998 24.4153 16.0519 30.3464C14.7546 32.8709 14.0214 34.8603 12.4736 40.0554C11.5286 43.2271 10.9389 44.8703 10.1557 46.5142C9.05343 48.8278 7.95516 50.4665 6.24562 52.3482C5.72485 52.9214 5.22939 53.5566 5.14449 53.7597C4.93631 54.2579 4.95382 54.8392 5.19227 55.3486C5.45371 55.9071 8.18401 58.6098 8.70436 58.8252C9.63442 59.21 10.2285 58.9975 11.5556 57.8055C13.619 55.9518 14.8747 55.095 17.171 53.9736C19.1102 53.0267 20.5516 52.504 24.4114 51.3481C29.4464 49.8403 31.0895 49.2301 33.6287 47.9249C39.5625 44.8746 44.8751 39.5615 47.9251 33.6272C49.2302 31.0878 49.8404 29.4446 51.348 24.4092C52.5038 20.549 53.0265 19.1075 53.9733 17.1682C55.0945 14.8718 55.9997 13.5389 57.7494 11.6081C58.9966 10.2318 59.2142 9.64304 58.8244 8.70076C58.6091 8.18037 55.9066 5.44983 55.3482 5.18837C54.8473 4.95391 54.2151 4.93693 53.7358 5.14523ZM56.3642 9.99362C56.0829 10.285 55.5767 10.8557 55.2396 11.2618C54.9024 11.6679 54.599 12.012 54.5654 12.0265C54.5317 12.041 54.394 11.8451 54.2592 11.591C53.9445 10.9977 52.9757 10.029 52.3825 9.71423C52.1286 9.57944 51.9207 9.44328 51.9207 9.41153C51.9207 9.37989 52.1461 9.18013 52.4216 8.9676C52.6972 8.75519 53.2785 8.25082 53.7135 7.84676L54.5045 7.11216L55.6901 8.28795L56.8758 9.46374L56.3642 9.99362ZM49.2842 11.254C49.2842 11.4003 45.7403 13.9117 42.4291 16.1119C37.2768 19.5355 35.043 21.1786 32.2103 23.629C31.0578 24.6259 30.939 24.7791 30.9361 25.2712C30.9317 26.0372 31.7586 26.5304 32.4436 26.1703C32.5703 26.1037 33.0299 25.7332 33.4649 25.3469C35.9015 23.1837 38.5167 21.2425 42.9564 18.302C47.0511 15.5899 48.6733 14.4476 50.4795 13.0044C52.259 11.5823 52.4168 11.6884 51.053 13.3898C49.5504 15.2639 48.5073 16.736 46.1639 20.289C43.6204 24.1453 42.2792 26.0431 40.6724 28.0591C36.9037 32.7878 31.8713 37.7539 27.1899 41.364C25.5341 42.641 23.7541 43.8792 20.2822 46.1696C16.7385 48.5074 15.2659 49.5512 13.393 51.053C11.7115 52.4012 11.5795 52.2604 12.9379 50.568C14.3786 48.7729 15.5144 47.163 18.2098 43.0954C21.2219 38.5499 23.1707 35.9172 25.3003 33.5162C25.712 33.0521 26.1039 32.5687 26.1711 32.442C26.5333 31.7601 26.0406 30.9317 25.2734 30.9327C24.7677 30.9333 24.5881 31.0839 23.3234 32.5669C20.9425 35.3589 19.3734 37.5063 16.0406 42.5339C13.7022 46.0615 11.3519 49.3531 11.2467 49.248C11.2207 49.222 11.4389 48.7234 11.7316 48.1401C12.7585 46.0937 13.4106 44.3141 14.5977 40.319C15.9356 35.8166 16.6216 33.9274 17.7099 31.7476C19.3189 28.5256 20.8427 26.4528 23.7021 23.5964C26.4428 20.8586 28.5994 19.2803 31.7492 17.7071C33.9283 16.6189 35.8154 15.9335 40.3199 14.5944C44.4143 13.3771 46.2401 12.7027 48.2823 11.6532C49.0997 11.2331 49.2842 11.1596 49.2842 11.254ZM52.0362 16.2815C51.2142 17.9918 50.5938 19.6502 49.8038 22.2496C49.5072 23.2254 49.0046 24.8781 48.6868 25.9223C47.2017 30.8028 45.3114 34.5655 42.7498 37.7402C41.8803 38.8178 38.814 41.8856 37.7888 42.7036C34.3554 45.4432 30.9668 47.152 25.9244 48.6867C24.8803 49.0045 23.2277 49.5071 22.252 49.8037C19.6529 50.5938 17.9946 51.2143 16.2844 52.0363C15.4488 52.4381 14.7471 52.7487 14.7251 52.7266C14.6266 52.6281 18.0057 50.2141 21.284 48.0409C26.403 44.6476 27.8323 43.6216 30.4065 41.4928C34.4175 38.1758 39.1446 33.3595 42.4798 29.1919C43.8172 27.5205 45.3372 25.3571 48.0392 21.28C50.2287 17.9759 52.6253 14.6208 52.7248 14.7203C52.7477 14.7433 52.4379 15.4458 52.0362 16.2815ZM28.1918 27.526C27.8937 27.6351 27.57 28.0055 27.5019 28.3156C27.2845 29.3052 28.534 29.9733 29.2545 29.2527C30.0244 28.4828 29.2071 27.1549 28.1918 27.526ZM9.71668 52.3809C10.0263 52.9645 10.9133 53.8632 11.5288 54.2169C11.7899 54.3669 12.0257 54.5075 12.053 54.5292C12.0802 54.551 11.9378 54.6961 11.7366 54.8517C11.5353 55.0073 10.9388 55.5229 10.411 55.9975L9.45134 56.8605L8.27376 55.6793L7.09606 54.4982L7.51897 54.0852C7.75151 53.8581 8.26247 53.2793 8.65437 52.799C9.04626 52.3187 9.3907 51.9245 9.41981 51.9233C9.44892 51.9219 9.58254 52.1279 9.71668 52.3809Z" fill="#427BFD"/>
</svg>
