<svg viewBox="0 0 64 64" fill="none" xmlns="http://www.w3.org/2000/svg">
<path fill-rule="evenodd" clip-rule="evenodd" d="M25.3145 6.16385C24.4616 6.60388 24.2062 7.12996 24.2062 8.44631V9.43967L18.9731 9.4686L13.7401 9.49752L13.5384 9.74406C13.2641 10.0793 13.285 10.4479 13.5958 10.7553L13.8548 11.0116H31.9625H50.0703L50.3293 11.268L50.5883 11.5243V15.4788V19.4334L50.8325 19.6605C51.134 19.9407 51.5404 19.9514 51.8693 19.688L52.1185 19.4885L52.1512 15.746C52.1692 13.6878 52.1545 11.7606 52.1183 11.4635C52.0342 10.7724 51.5844 10.0918 50.9887 9.7543L50.5356 9.49752L41.7598 9.46912L32.9842 9.44072L32.9482 8.36465C32.9159 7.39728 32.883 7.24472 32.622 6.85491C32.0726 6.03416 31.9068 5.99928 28.5635 6.00001C26.1102 6.00053 25.5791 6.02737 25.3145 6.16385ZM31.3181 7.73091C31.3533 7.82176 31.3821 8.24467 31.3821 8.67071V9.44531H28.5856H25.7891V8.57516C25.7891 8.09649 25.8208 7.67358 25.8595 7.63536C25.8981 7.59704 27.1277 7.56571 28.592 7.56571C30.922 7.56571 31.262 7.58629 31.3181 7.73091ZM6.53628 9.59819C5.8972 9.82802 5.60647 10.0842 5.2902 10.6963L5 11.258V27.7745C5 39.8441 5.03229 44.3867 5.12009 44.6461C5.31732 45.2291 5.73385 45.6871 6.30676 45.951C6.83461 46.1942 6.91249 46.1999 9.77517 46.2008L12.7036 46.2019V47.2513C12.7036 48.3168 12.8065 48.6996 13.2173 49.1624C13.6847 49.689 13.7484 49.6966 18.1944 49.7522L22.3663 49.8044L20.4939 53.407C19.4641 55.3884 18.6196 57.1306 18.6173 57.2785C18.6077 57.9019 19.5226 58.2365 19.9518 57.7666C20.0698 57.6374 21.0634 55.7817 22.1599 53.6427L24.1534 49.7537L28.5743 49.7791L32.9951 49.8044L35.0739 53.8083C36.2173 56.0104 37.2197 57.8541 37.3014 57.9053C37.3831 57.9565 37.6009 57.9991 37.7853 58C38.2132 58.002 38.6026 57.5593 38.5173 57.1679C38.4859 57.0233 37.6317 55.3075 36.6192 53.3548L34.7782 49.8044L38.9106 49.7522C43.5764 49.6932 43.5932 49.6905 44.1341 48.8825C44.3868 48.5051 44.4185 48.35 44.4506 47.3324L44.4863 46.2019H46.9427C49.2679 46.2019 49.4139 46.1903 49.6771 45.9854C50.0616 45.6861 50.0616 45.1513 49.6771 44.852L49.399 44.6355H28.202C7.14571 44.6355 7.00367 44.6342 6.79398 44.4267C6.58472 44.2196 6.58293 44.0787 6.58293 27.8236C6.58293 11.5685 6.58472 11.4276 6.79398 11.2205C6.99101 11.0255 7.14571 11.0116 9.12036 11.0116C11.2257 11.0116 11.2371 11.0104 11.4948 10.7553C11.8054 10.448 11.8264 10.0794 11.5523 9.74406C11.3534 9.50076 11.3216 9.49721 9.15149 9.47298C7.45649 9.45419 6.85688 9.4828 6.53628 9.59819ZM38.5139 14.1394C37.4399 14.5676 36.8139 15.5523 36.8892 16.6953C36.9121 17.0439 37.0121 17.4892 37.1114 17.6846C37.2106 17.8801 37.2917 18.0783 37.2917 18.125C37.2917 18.1718 36.3451 19.5197 35.1882 21.1204L33.0847 24.0309L32.3105 24.0241C31.6311 24.0182 31.4644 24.0574 30.951 24.3441L30.366 24.6709L28.9654 23.8716L27.565 23.0724L27.5393 22.4459C27.4803 21.0018 26.4012 19.963 24.9449 19.9485C24.3751 19.9429 24.1633 19.9939 23.6946 20.2501C22.8244 20.7255 22.3067 21.6046 22.3067 22.6068V23.1021L20.9084 23.8812L19.5102 24.6603L18.9825 24.372C18.2579 23.9762 17.7009 23.904 16.9771 24.1122C15.5599 24.5199 14.7603 25.934 15.1678 27.3117C15.3823 28.0376 15.8347 28.5711 16.5232 28.9106C18.2541 29.7641 20.2921 28.5022 20.3027 26.5705L20.3059 25.9962L21.699 25.2258L23.0922 24.4554L23.6228 24.7559C24.0779 25.0136 24.2661 25.0564 24.9449 25.0564C25.623 25.0564 25.8121 25.0135 26.2653 24.7568L26.7941 24.4572L28.1869 25.2267L29.5797 25.9962L29.5862 26.5705C29.5982 27.6174 30.1605 28.4842 31.1183 28.9322C33.3535 29.9778 35.6498 27.5968 34.5307 25.394L34.3308 25.0006L36.4708 22.0322L38.6108 19.0638L39.2161 19.1249C39.9665 19.2006 40.6251 18.9756 41.2294 18.437C42.2895 17.4922 42.3572 15.8011 41.3756 14.7878C40.6257 14.0137 39.4801 13.7541 38.5139 14.1394ZM39.9434 15.6653C40.7899 16.0985 40.601 17.3714 39.6644 17.5452C39.2715 17.6181 38.7306 17.387 38.5612 17.0739C38.396 16.7685 38.4354 16.207 38.6395 15.9592C39.0241 15.4923 39.4276 15.4014 39.9434 15.6653ZM44.4677 20.5663C43.3902 20.8051 42.7981 21.019 41.7844 21.5358C38.8422 23.036 36.87 25.7381 36.3396 28.9959C36.1368 30.2418 36.2537 32.2534 36.595 33.388C37.9361 37.8469 41.8799 40.785 46.5196 40.7817C47.1613 40.7813 47.9421 40.7319 48.2547 40.672C48.5673 40.6121 48.8356 40.5631 48.8507 40.5631C48.8659 40.5631 49.9271 42.3636 51.209 44.5642C52.5291 46.8305 53.7054 48.7294 53.922 48.9437C54.5126 49.528 55.151 49.7825 56.0325 49.785C56.5892 49.7865 56.9026 49.7286 57.2567 49.559C58.5892 48.9208 59.2875 47.4353 58.888 46.0888C58.7924 45.7665 57.7242 43.8167 56.4051 41.5568L54.09 37.5904L54.4021 37.2232C54.8714 36.6712 55.595 35.5543 55.8607 34.9716C56.4583 33.6613 56.6834 32.8049 56.8107 31.3589C57.2312 26.5778 54.1461 22.1838 49.3747 20.7681C48.5588 20.526 48.1945 20.4813 46.7893 20.4502C45.6242 20.4246 44.9563 20.4579 44.4677 20.5663ZM25.6432 21.7786C26.3003 22.3895 25.8505 23.5423 24.9551 23.5423C24.1061 23.5423 23.6023 22.5745 24.1152 21.9292C24.5293 21.4083 25.1763 21.3445 25.6432 21.7786ZM49.2204 22.3843C51.522 23.116 53.3092 24.6552 54.3907 26.8372C55.0136 28.0939 55.2461 29.1018 55.2465 30.5451C55.2473 34.4243 52.8821 37.6394 49.1327 38.8554C48.2824 39.1311 48.092 39.1534 46.5782 39.1534C44.6617 39.1534 44.0691 39.0279 42.6209 38.3154C40.5039 37.2738 38.9647 35.4994 38.1832 33.1998C37.7755 31.9996 37.7001 29.9454 38.016 28.6371C39.2171 23.6613 44.3053 20.8219 49.2204 22.3843ZM45.2591 23.2742C41.9098 23.9283 39.5289 26.4156 39.0837 29.7255C38.7262 32.3843 40.0564 35.2382 42.3595 36.7533C46.3127 39.3539 51.6897 37.7062 53.4896 33.3428C53.927 32.2823 54.1233 30.8957 53.9887 29.8176C53.8517 28.7212 53.491 27.5978 53.1636 27.2483C52.8506 26.9142 52.3913 26.9063 52.0841 27.2298C51.8126 27.516 51.7926 27.8943 52.021 28.4274C52.3629 29.2256 52.4984 30.2928 52.3787 31.2456C52.0334 33.9951 50.0574 35.9885 47.2702 36.3986C45.9172 36.5978 44.4363 36.2459 43.206 35.4329C40.146 33.4109 39.7273 29.0512 42.3457 26.4738C44.3317 24.5188 47.2416 24.1816 49.6591 25.6262C50.0478 25.8585 50.487 26.0484 50.6353 26.0484C51.0186 26.0484 51.327 25.7026 51.327 25.2729C51.327 24.8359 50.918 24.4668 49.8669 23.9558C48.4422 23.263 46.6638 22.9999 45.2591 23.2742ZM18.4285 25.9557C19.2023 26.7686 18.2449 27.9676 17.1986 27.4958C16.6425 27.2451 16.4686 26.3002 16.9065 25.9081C17.4027 25.4638 17.9774 25.4817 18.4285 25.9557ZM32.8238 25.7907C32.9491 25.871 33.1066 26.1009 33.1736 26.3018C33.508 27.3045 32.238 28.06 31.4795 27.3095C30.5718 26.4113 31.7365 25.0953 32.8238 25.7907ZM23.0342 29.294C22.883 29.3508 22.7049 29.5153 22.6385 29.6595C22.4709 30.0237 22.4675 40.8618 22.6349 41.2254C22.8276 41.6437 23.1505 41.7117 24.9449 41.7117C26.8671 41.7117 27.1103 41.6472 27.2732 41.0941C27.3455 40.8485 27.3724 38.8258 27.3514 35.2143L27.3193 29.7088L27.0792 29.4711C26.8504 29.2446 26.7555 29.2322 25.0742 29.212C24.1034 29.2003 23.1855 29.2372 23.0342 29.294ZM25.7638 35.4725L25.7913 40.1454H24.9459H24.1007V35.442V30.7386L24.9185 30.7691L25.7364 30.7996L25.7638 35.4725ZM15.4901 33.4733C15.3002 33.6808 15.289 33.9021 15.289 37.4504V41.2076L15.5851 41.4596C15.8721 41.704 15.9344 41.7117 17.6116 41.7117C19.4599 41.7117 19.7798 41.6458 19.9734 41.2254C20.0521 41.0547 20.0906 39.7913 20.0906 37.3874C20.0906 33.9201 20.0835 33.7949 19.8718 33.5287L19.6532 33.2535H17.6721C15.7923 33.2535 15.6809 33.2648 15.4901 33.4733ZM30.018 33.5287C29.8062 33.7951 29.7992 33.9195 29.7992 37.436C29.7992 39.4337 29.8288 41.1442 29.8647 41.2371C30.0147 41.6237 30.4602 41.7117 32.268 41.7117C33.9555 41.7117 34.0176 41.704 34.3046 41.4599L34.6007 41.208L34.634 37.8834C34.6702 34.263 34.6354 33.7577 34.3293 33.4549C34.1432 33.2707 33.9609 33.2535 32.1813 33.2535H30.2366L30.018 33.5287ZM18.5077 37.4826V40.1454H17.6634H16.8192V37.4826V34.8199H17.6634H18.5077V37.4826ZM32.9651 37.4826V40.1454H32.1736H31.3821V37.4826V34.8199H32.1736H32.9651V37.4826ZM37.2994 38.1233C37.1031 38.3701 37.0807 38.5403 37.0807 39.7824C37.0807 41.7485 36.9633 41.6505 39.3703 41.692C41.1628 41.7228 41.2713 41.7133 41.5433 41.5016C41.9149 41.2124 41.934 40.6967 41.5853 40.3724C41.3609 40.164 41.2315 40.1454 40.0023 40.1454H38.6636V39.2531C38.6636 38.4449 38.6392 38.3366 38.4045 38.1045C38.0521 37.7556 37.5853 37.7635 37.2994 38.1233ZM55.1829 42.5933C57.5878 46.7152 57.6644 46.9021 57.2182 47.5594C56.6787 48.3539 55.7424 48.4768 55.0779 47.8403C54.7881 47.5625 50.4828 40.3213 50.4828 40.1116C50.4828 40.0742 50.8034 39.8812 51.1951 39.6826C51.5868 39.4841 52.12 39.1793 52.3798 39.0053C52.6396 38.8313 52.8839 38.723 52.9226 38.7645C52.9614 38.8061 53.9785 40.529 55.1829 42.5933ZM42.8847 47.0686C42.8847 47.6034 42.8363 47.9832 42.7581 48.0606C42.6609 48.1568 39.3784 48.1859 28.6259 48.1859C20.9229 48.1859 14.5453 48.1574 14.4535 48.1225C14.3185 48.0712 14.2865 47.881 14.2865 47.1305V46.2019H28.5856H42.8847V47.0686Z" fill="#427BFD"/>
</svg>
