<svg width="601" height="530" viewBox="0 0 601 530" fill="none" xmlns="http://www.w3.org/2000/svg">
<path d="M44.3635 186.5C42.7635 180.9 43.6968 174.833 44.3635 172.5C45.3638 171.5 48.3644 166.7 52.3644 155.5C57.3644 141.5 54.3644 132.5 53.3644 118.5C52.3644 104.5 59.8644 98.5 64.3644 95.5C68.8644 92.5 86.8644 89 105.364 88.5C123.864 88 144.364 82.5 150.364 81.5C156.364 80.5 189.864 72 191.364 72C192.864 72 196.364 72 204.364 77.5C209.916 81.317 211.374 86.8198 211.914 91L214.937 107.5C216.952 116.457 219.678 128.258 221.364 135.5C222.158 139.815 223.205 145.511 224.306 151.5C223.826 151.667 220.564 152.1 211.364 152.5C202.164 152.9 200.864 159.333 201.364 162.5C201.364 169 207.364 172 212.864 170.5C217.264 169.3 224.286 168 227.246 167.5C228.766 175.771 230.015 182.581 230.364 184.5C231.035 188.187 234.627 199.966 236.62 212C236.035 212.167 232.564 212.7 223.364 213.5C214.164 214.3 212.198 220.5 212.364 223.5C212.364 228 217.364 231.5 222.364 231.5C226.364 231.5 234.364 229.833 237.864 229C236.864 244.5 225.364 247 221.364 247.5C217.364 248 200.364 249 196.364 258.5C193.981 264.16 193.373 266.625 194.116 271.5C194.375 273.195 194.797 275.181 195.364 277.694C195.45 278.033 195.53 278.388 195.606 278.758C197.601 288.538 195.947 309.167 174.364 321.5C151.964 334.3 130.364 322.167 122.364 314.5C119.846 312.681 114.792 305.744 111.814 291.5C111.244 288.773 110.75 285.778 110.364 282.5C107.364 257 77.3644 242.5 57.8644 234.5C55.6015 233.5 50.8546 231.1 49.97 229.5C47.9403 223.957 47.3635 217.911 47.3635 215C42.9635 213.8 40.8635 210.167 40.3635 208.5C38.8635 201 42.3635 198 44.3635 196.5C45.9635 195.3 45.0301 189.333 44.3635 186.5Z" fill="#C5C3BB"/>
<path fill-rule="evenodd" clip-rule="evenodd" d="M25 421.761C25.1667 423.761 26.6 427.761 31 427.761C36.3336 430.094 47.0009 436.961 47.0009 445.761C47.0009 448.126 46.8083 450.495 46.5008 452.761C46.3831 453.629 46.2882 454.376 46.2037 455.041C45.688 459.1 45.5619 460.092 43.0009 466.761C40.3491 473.666 40.9814 483 48.0009 493.761C55.2085 504.81 63.2653 504.786 70.953 504.763C71.3031 504.762 71.6525 504.761 72.0009 504.761C78.4009 504.761 91.3342 504.094 97.0009 503.761C105.834 503.094 128.001 500.161 146.001 493.761C151.561 491.784 157.396 489.655 163.173 487.546C180.776 481.121 197.848 474.89 205.001 473.761C214.501 472.261 235.001 472.761 242.001 474.761C244.558 475.492 249.517 476.489 255.317 477.656C265.397 479.683 278.019 482.222 285.001 484.761C286.715 485.384 288.466 486.032 290.222 486.682C299.728 490.198 309.358 493.761 314.001 493.761C319.501 493.761 330.501 491.761 337.001 473.261C337.115 472.935 337.23 472.609 337.344 472.283C337.638 471.445 337.933 470.605 338.231 469.761C344.416 452.249 351.979 433.032 381.501 399.761C406.701 371.361 395.668 355.928 387.001 351.761C382.501 350.428 372.001 346.761 366.001 342.761C362.156 340.198 360.283 337.241 358.628 334.63C357.056 332.148 355.682 329.979 353.001 328.761C352.442 328.507 351.727 328.175 350.892 327.783L336.27 320.912C330.575 318.28 325.396 315.993 324.001 315.761C321.001 315.261 317.501 314.261 317.001 313.761L298.001 305.761C295.334 304.428 288.601 301.361 283.001 299.761C282.531 299.474 281.938 299.134 281.242 298.761L264.001 292.761C262.775 291.842 260.574 290.322 258.5 289.191C254.5 301.426 227.001 338.5 220.5 347C213 355 201.5 359.5 198.5 359.5C195.5 359.5 179.5 354.5 175.5 347C171.5 339.5 175 332.5 177.5 328C179.5 324.4 197.176 305.5 205.764 296.5C202.111 293.558 198.401 289.104 196.327 282.761C196.084 281.693 195.856 280.696 195.641 279.762C195.502 279.155 195.369 278.575 195.242 278.019C195.167 277.649 195.086 277.294 195.001 276.955C195.079 277.3 195.159 277.654 195.242 278.019C197.237 287.799 195.583 308.428 174.001 320.761C151.601 333.561 130.001 321.428 122.001 313.761C119.483 311.942 114.429 305.005 111.451 290.761C108.401 308.261 95.5009 318.761 83.0009 318.761C79.549 318.761 74.7268 318.046 69.5009 316.986L44 310.5C45.6667 314.333 49.6 322.7 52 325.5C54.4 328.3 67.6673 336.717 74.0009 340.576C78.3898 344.428 82.1676 349.261 84.0009 355.761C89.5009 375.261 86.0009 389.761 74.0009 402.761C63.9728 413.625 57.7856 413.315 49.8952 412.92C48.3437 412.842 46.7263 412.761 45.0009 412.761C36.6009 412.761 28.167 418.761 25 421.761ZM214.001 300.982C207.001 307.655 192.2 322.4 189 328C188.92 328.141 188.839 328.282 188.758 328.423C184.824 335.3 180.671 342.56 189 345.5C197.5 348.5 203 349 209 344C213.8 340 220.667 331 223.5 327L240 306.5C242.688 302.341 248.065 293.17 248.065 289.761C245.944 290.945 243.564 292.625 241.001 294.761C235.001 299.761 231.001 301.761 227.001 301.761C226.713 301.761 226.333 301.771 225.873 301.784C223.461 301.849 218.862 301.974 214.001 300.982Z" fill="#C5C3BB"/>
<path d="M41.0186 316.761C40.1853 314.594 39.4186 310.161 43.0186 309.761C46.0177 311.261 47.5195 315.761 52.0195 323.761C54.6299 328.402 63.4656 331.865 71.4993 337.761C72.6983 338.641 73.8796 339.575 75.0195 340.576C79.4084 344.428 83.1862 349.261 85.0195 355.761C90.5195 375.261 87.0195 389.761 75.0195 402.761C63.0195 415.761 56.5195 412.761 46.0195 412.761C37.6195 412.761 29.1856 418.761 26.0186 421.761C25.523 420.174 24.6263 417.502 23.7285 415.261C23.1173 413.735 22.5056 412.409 22.0195 411.761C20.8195 410.161 18.8529 411.761 18.0195 412.761C7.61953 409.161 7.01953 394.594 8.01953 387.761C12.4195 388.161 15.1862 385.928 16.0195 384.761C17.0726 382.187 18.4215 378.397 17.8859 378.028C17.6587 377.871 17.0921 378.331 16.0195 379.761C11.5195 385.761 1.51908 385.761 1.01908 375.761C0.519084 365.761 10.0186 334.761 9.01863 320.761C8.21863 309.561 14.6853 306.761 18.0186 306.761C28.8186 307.161 28.5186 317.594 27.0186 322.761L28.5186 317.761C32.1186 315.361 34.352 317.428 35.0186 318.761C37.4186 315.961 40.0186 316.261 41.0186 316.761Z" fill="#8C8D90"/>
<path d="M50 306.761C52.5 300.761 57.6 284.761 58 268.761C58.1423 263.07 57.867 257.631 57.3857 252.761C56.514 243.94 54.9664 236.982 54 233.761C53.0379 232.222 52.2494 230.516 51.6066 228.761C52.4911 230.361 57.238 232.761 59.5009 233.761C79.0009 241.761 109.001 256.261 112.001 281.761C112.387 285.039 112.881 288.034 113.451 290.761C110.401 308.261 97.5009 318.761 85.0009 318.761C81.549 318.761 76.7268 318.046 71.5009 316.986C61.5874 314.976 50.2209 311.725 44 309.761C47.6 309.361 49.5 307.594 50 306.761Z" fill="#8C8D90"/>
<path fill-rule="evenodd" clip-rule="evenodd" d="M41.3635 207.761C39.8635 200.261 43.3635 197.261 45.3635 195.761C50.1971 192.094 61.1644 185.961 66.3644 190.761C71.5644 195.561 56.5304 208.428 48.3635 214.261C43.9635 213.061 41.8635 209.428 41.3635 207.761ZM108.364 162.261C103.864 158.428 96.5644 149.561 103.364 144.761C110.164 139.961 150.198 112.094 169.364 98.761C171.031 97.4277 175.264 96.261 178.864 102.261C182.198 98.9277 190.564 92.161 197.364 91.761C204.164 91.361 210.564 90.5943 212.914 90.261L217.211 89.761C218.411 89.761 221.517 90.061 224.338 91.261C226.197 91.4277 230.611 91.561 233.39 90.761C235.181 92.4277 238.022 96.761 235.063 100.761C232.816 100.761 227.776 101.161 225.593 102.761C224.476 103.761 221.853 105.861 220.303 106.261C219.205 106.428 216.796 106.761 215.937 106.761C213.08 106.928 206.164 107.561 201.364 108.761C196.564 109.961 191.028 114.928 188.859 117.261C189.766 118.568 190.47 119.604 190.864 120.261C192.364 122.761 190.364 127.261 185.364 129.761C181.364 131.761 141.698 160.261 124.364 172.761C121.864 175.094 118.364 173.861 108.364 162.261ZM117.364 147.761C115.364 150.761 120.864 159.761 124.364 158.761C125.364 155.761 121.864 146.761 117.364 147.761ZM142.864 129.261C140.864 132.261 146.364 141.261 149.864 140.261C150.864 137.261 147.364 128.261 142.864 129.261Z" fill="#8C8D90"/>
<path d="M212.02 151.761C202.82 152.161 201.52 158.594 202.02 161.761C202.02 168.261 208.02 171.261 213.52 169.761C217.92 168.561 224.941 167.261 227.902 166.761H232.824C234.268 166.761 237.047 164.761 238.256 163.761C240.044 162.161 245.486 161.094 247.984 160.761C248.829 160.761 250.42 159.761 250.02 155.761C249.62 151.761 247.08 150.761 245.86 150.761C240.533 151.561 236.32 150.428 234.88 149.761C231.969 148.961 229.76 148.761 229.02 148.761C227.42 149.961 225.647 150.594 224.961 150.761C224.481 150.928 221.22 151.361 212.02 151.761Z" fill="#8C8D90"/>
<path d="M224.019 212.761C214.819 213.561 212.853 219.761 213.019 222.761C213.019 227.261 218.019 230.761 223.019 230.761C227.019 230.761 235.019 229.094 238.519 228.261C240.519 228.261 244.158 227.594 245.727 227.261C246.693 227.261 249.021 225.594 250.065 224.761C251.783 222.761 257.586 221.928 260.273 221.761C261.022 221.594 262.419 220.261 262.019 216.261C261.619 212.261 259.438 211.594 258.397 211.761C253.899 212.161 249.537 211.261 247.918 210.761C245.836 209.961 243.118 210.094 242.019 210.261C241.219 210.261 238.523 210.928 237.275 211.261C236.69 211.428 233.219 211.961 224.019 212.761Z" fill="#8C8D90"/>
<path d="M353.02 301.761C349.02 299.761 349.52 302.261 349.02 304.761C348.748 306.121 347.144 308.814 345.013 310.261C343.886 311.577 342.393 313.462 340.777 315.715C339.647 317.29 338.457 319.046 337.289 320.912C334.202 325.844 331.27 331.551 330.02 336.761C327.02 349.261 344.02 350.761 347.02 342.761C348.65 338.414 350.28 333.18 351.911 327.783C352.572 325.592 353.234 323.374 353.896 321.178C354.604 318.828 355.312 316.503 356.02 314.261C356.52 312.261 360.02 306.761 360.02 304.761C360.02 302.761 357.02 303.761 353.02 301.761Z" fill="#8C8D90"/>
<path d="M324.02 290.761C323.52 288.761 317.52 286.761 315.02 286.761C313.282 286.761 311.786 294.734 309.02 297.58C306.853 299.64 302.42 303.961 302.02 304.761C301.52 305.761 293.52 318.261 294.02 324.761C294.52 331.261 305.02 335.761 310.02 329.761C315.02 323.761 318.02 313.761 318.02 313.761C318.82 311.761 320.02 309.027 320.52 307.91C321.02 305.559 320.02 301.761 320.02 300.761C320.02 299.761 324.52 292.761 324.02 290.761Z" fill="#8C8D90"/>
<path d="M279.02 273.261C276.02 272.761 277.52 277.761 274.52 282.761C273.391 284.642 272.145 285.27 271.02 285.269C270.353 285.766 268.82 287.161 268.02 288.761C267.187 289.761 265.42 291.961 265.02 292.761C260.187 299.761 253.02 314.761 263.02 318.761C273.02 322.761 280.014 307.094 282.261 298.761C282.853 297.161 283.68 294.708 284.02 293.682C284.02 292.909 284.042 291.639 284.107 290.261C284.18 288.714 284.308 287.03 284.519 285.761C285.018 282.761 288.52 278.761 288.02 277.261C287.52 275.761 282.02 273.761 279.02 273.261Z" fill="#8C8D90"/>
<path d="M158.02 365.761C154.02 371.361 157.02 376.094 159.02 377.761C169.52 384.761 172.135 377.323 178.02 370.261C185.52 361.261 184.52 361.761 188.02 356.63C189.02 353.261 191.52 349.043 193.02 347.065C194.02 345.87 194.52 344.761 191.02 341.761C188.22 339.361 185.739 341.094 184.849 342.261C182.312 345.461 177.76 346.928 175.801 347.261C171.541 351.094 162.02 360.161 158.02 365.761Z" fill="#8C8D90"/>
<path d="M26.0186 421.761C26.1853 423.761 27.6186 427.761 32.0186 427.761M26.0186 421.761C25.523 420.175 24.6263 417.502 23.7285 415.261M26.0186 421.761C29.1856 418.761 37.6195 412.761 46.0195 412.761C56.5195 412.761 63.0195 415.761 75.0195 402.761C87.0195 389.761 90.5195 375.261 85.0195 355.761C83.1862 349.261 79.4084 344.428 75.0195 340.576M32.0186 427.761C31.352 428.594 30.0186 430.761 30.0186 432.761M32.0186 427.761C37.3523 430.094 48.0195 436.961 48.0195 445.761C48.0195 448.126 47.827 450.495 47.5195 452.761M30.0186 432.761C29.0186 432.094 26.6186 431.961 25.0186 436.761C23.0186 442.761 21.0186 457.761 21.0186 471.761C21.0186 485.761 23.5186 503.261 28.0186 511.761C31.6186 518.561 40.1853 523.261 44.0186 524.761C44.352 525.261 45.2186 526.761 46.0186 528.761H70.0186C70.5186 526.761 72.2186 522.761 75.0186 522.761C77.8186 522.761 79.5186 526.761 80.0186 528.761H104.019C104.519 527.094 106.219 523.761 109.019 523.761C111.819 523.761 114.185 527.094 115.019 528.761H144.019C144.352 527.094 145.819 523.761 149.019 523.761C152.219 523.761 153.685 527.094 154.019 528.761H189.019C193.852 519.594 205.019 500.361 211.019 496.761C217.019 493.161 234.019 497.761 242.019 499.761L277.019 508.761C277.519 510.928 279.019 515.561 281.019 516.761C283.519 518.261 292.519 522.261 298.019 520.761C299.352 519.428 302.619 516.761 305.019 516.761C308.019 516.761 314.019 519.261 315.019 520.761C315.819 521.961 316.685 526.594 317.019 528.761H337.019C337.519 527.094 339.419 523.761 343.019 523.761C346.619 523.761 349.852 523.761 351.019 523.761C352.519 523.761 355.619 524.761 356.019 528.761H381.019C381.185 527.094 382.019 523.761 384.019 523.761C386.019 523.761 392.852 523.761 396.019 523.761C396.685 523.761 398.619 524.761 401.019 528.761H431.019C431.185 526.761 432.419 522.561 436.019 521.761C440.519 520.761 442.519 520.761 446.019 520.761C448.819 520.761 451.852 526.094 453.019 528.761L484.019 521.761C484.185 519.094 485.219 513.561 488.019 512.761C491.519 511.761 496.519 509.761 501.019 509.761C505.519 509.761 507.019 515.761 509.019 515.761C511.019 515.761 527.519 510.761 528.019 509.761C528.519 508.761 527.519 499.261 530.019 497.761C532.519 496.261 536.519 492.761 539.019 492.761C541.519 492.761 545.519 496.761 548.019 496.761C559.185 493.261 584.019 480.161 594.019 455.761C604.019 431.361 598.185 418.928 594.019 415.761M30.0186 432.761C33.6856 434.928 40.3414 438.367 41.0195 445.761C41.5 451 41 455.5 37.0195 466.761C33.5843 476.479 39.5782 491.408 43.0195 496.761C47.5195 503.761 55.0204 510.761 65.0195 510.761C73.0188 510.761 90.3526 510.761 98.0195 510.761C106.353 510.594 128.02 508.361 148.02 500.761C173.02 491.261 198.52 482.261 208.02 480.761C217.52 479.261 237.018 480.261 242.019 480.761C247.02 481.261 269.52 485.261 320.02 503.761C324.686 503.761 336.22 503.361 345.02 501.761C356.02 499.761 374.02 492.761 388.02 492.761C402.02 492.761 399.52 495.761 418.02 496.761C436.52 497.761 457.02 497.261 467.02 495.761C477.02 494.261 503.52 489.261 518.02 480.761C530.552 473.415 537.108 469.056 545.113 460.261M594.019 415.761C595.185 404.928 589.219 380.561 556.019 369.761C551.019 368.094 538.619 364.761 529.019 364.761C517.019 364.761 500.519 364.261 495.019 362.761C489.519 361.261 475.519 359.261 474.019 357.761M594.019 415.761C590.852 416.928 583.22 420.361 578.02 424.761C571.52 430.261 559.02 443.761 549.02 455.761C547.662 457.39 546.37 458.88 545.113 460.261M474.019 357.761C472.519 356.261 459.019 344.761 458.019 344.761C457.019 344.761 455.019 347.761 454.519 347.761M474.019 357.761C464.818 369.361 451.945 368.594 446.659 366.761M454.519 347.761C454.019 347.761 447.019 338.761 433.019 336.761M454.519 347.761C454.519 352.78 451.545 359.723 446.659 366.761M433.019 336.761C432.019 331.594 426.419 322.761 412.019 328.761M433.019 336.761C432.047 336.344 431.087 336.013 430.142 335.761M412.019 328.761C409.852 325.594 403.019 319.161 393.019 318.761M412.019 328.761C408.437 329.739 403.302 334.184 399.02 338.52M393.019 318.761C393.185 313.428 390.019 304.161 376.019 309.761M393.019 318.761C395.519 321.761 400.22 329.912 399.02 338.52M393.019 318.761C390.302 317.222 387.609 316.644 385.02 316.751M376.019 309.761C375.019 308.261 371.819 305.161 367.019 304.761M376.019 309.761C371.218 310.161 362.686 319.261 359.02 323.761M367.019 304.761C365.019 297.094 357.419 284.161 343.019 293.761M367.019 304.761C367.818 316.361 360.019 315.928 356.02 314.261M343.019 293.761C341.519 291.428 336.819 286.961 330.019 287.761M343.019 293.761C340.186 297.594 335.42 306.161 339.02 309.761C341.071 311.813 343.227 311.474 345.012 310.261M330.019 287.761C328.352 281.094 321.619 269.961 308.019 278.761M330.019 287.761C332.418 308.561 324.352 305.094 320.02 300.761M330.019 287.761C320.418 283.024 316.019 285.121 315.02 286.761M308.019 278.761C306.519 276.761 301.419 272.961 293.019 273.761M308.019 278.761C304.852 282.928 299.72 292.461 304.52 297.261C306.349 299.09 307.806 298.828 309.02 297.58M293.019 273.761C292.852 271.761 290.619 266.561 283.019 261.761M293.019 273.761C295.41 280.925 296.977 294.255 284.107 290.261M283.019 261.761C282.685 259.594 282.519 254.761 284.519 252.761M283.019 261.761C275.352 264.094 261.62 271.761 268.02 283.761C268.638 284.467 269.752 285.267 271.02 285.269M284.519 252.761C287.019 250.261 299.519 239.261 285.019 236.761M284.519 252.761C269.718 266.761 262.686 279.574 261.02 284.231M284.519 252.761C278.7 256.341 270.267 261.618 261.494 267.261M285.019 236.761C284.352 226.261 282.319 202.661 279.519 192.261M285.019 236.761C281.018 242.761 278.686 243.928 278.02 243.761M285.019 236.761C270.89 235.752 263.316 227.6 260.273 221.761M279.519 192.261C282.185 189.594 285.419 182.361 277.019 174.761M279.519 192.261C264.332 197.042 259.296 205.233 258.397 211.761M277.019 174.761C277.685 166.761 276.419 146.761 266.019 130.761M277.019 174.761C273.418 181.961 270.186 183.761 269.02 183.761M277.019 174.761C260.522 176.03 251.742 167.738 247.984 160.761M266.019 130.761C269.185 127.761 273.019 120.161 263.019 113.761M266.019 130.761C251.504 136.204 246.743 144.656 245.86 150.761M263.019 113.761C263.852 104.928 263.219 84.7609 254.019 74.7609M263.019 113.761C261.018 118.561 258.186 121.094 257.02 121.761M263.019 113.761C254.895 113.341 239.803 110.096 234.718 100.761M254.019 74.7609C255.519 71.4276 256.419 64.3609 248.019 62.7609M254.019 74.7609C245.755 74.7609 234.119 76.8687 233.045 90.761M248.019 62.7609C247.685 49.5943 243.019 18.9609 227.019 1.76094C208.352 0.26094 167.419 -0.0390606 153.019 10.7609C138.619 21.5609 148.02 38.261 143.019 70.761C127.352 74.761 85.4186 82.761 43.0186 82.761C37.352 83.261 27.2186 89.961 32.0186 112.761M248.019 62.7609C239.172 64.3943 224.501 72.2967 223.993 91.261M32.0186 112.761C38.0186 141.261 43.5186 147.761 45.0186 171.761M32.0186 112.761C31.6856 104.428 34.8195 87.761 50.0195 87.761C69.0195 87.761 74.0195 87.761 83.0195 86.761C92.0195 85.761 121.02 82.261 133.02 79.261C145.02 76.261 178.02 68.261 183.02 67.761C188.02 67.261 202.52 64.261 211.02 75.761C215.559 81.9031 216.391 85.4779 216.866 89.761M45.0186 171.761C44.352 174.094 43.4186 180.161 45.0186 185.761C45.6853 188.594 46.6186 194.561 45.0186 195.761M45.0186 171.761C46.0189 170.761 49.0195 165.961 53.0195 154.761C58.0195 140.761 55.0195 131.761 54.0195 117.761C53.0195 103.761 60.5195 97.761 65.0195 94.761C69.5195 91.761 87.5195 88.261 106.02 87.761C124.52 87.261 145.02 81.761 151.02 80.761C157.02 79.761 190.52 71.261 192.02 71.261C193.52 71.261 197.02 71.261 205.02 76.761C210.572 80.578 212.03 86.0808 212.569 90.261M45.0186 195.761C43.0186 197.261 39.5186 200.261 41.0186 207.761C41.5186 209.428 43.6186 213.061 48.0186 214.261M45.0186 195.761C49.8523 192.094 60.8195 185.961 66.0195 190.761M48.0186 214.261C48.0186 217.172 48.5954 223.218 50.6252 228.761M48.0186 214.261C56.1856 208.428 71.2195 195.561 66.0195 190.761M48.0186 214.261C47.3458 211.674 46.1 206.2 46.5 205M43.0186 309.761C46.6186 309.361 48.5186 307.594 49.0186 306.761C51.5186 300.761 56.6186 284.761 57.0186 268.761C57.1609 263.07 56.8856 257.631 56.4044 252.761M43.0186 309.761C39.4186 310.161 40.1853 314.594 41.0186 316.761M43.0186 309.761C46.0177 311.261 47.5195 315.761 52.0195 323.761C54.6299 328.402 63.4656 331.865 71.4993 337.761M43.0186 309.761C49.2396 311.725 60.606 314.976 70.5195 316.986M41.0186 316.761C40.0186 316.261 37.4186 315.961 35.0186 318.761M41.0186 316.761C44.3634 323.153 47.7871 332.296 49.6863 342.761M35.0186 318.761C34.352 317.428 32.1186 315.361 28.5186 317.761L27.0186 322.761M35.0186 318.761C34.0268 322.399 31.9852 330.673 29.6749 341.761M27.0186 322.761C28.5186 317.594 28.8186 307.161 18.0186 306.761C14.6853 306.761 8.21863 309.561 9.01863 320.761C10.0186 334.761 0.519084 365.761 1.01908 375.761C1.51908 385.761 11.5195 385.761 16.0195 379.761C17.0921 378.331 17.6587 377.871 17.8859 378.028M27.0186 322.761L17.8859 378.028M16.0195 384.761C15.1862 385.928 12.4195 388.161 8.01953 387.761C7.01953 394.594 7.61953 409.161 18.0195 412.761C18.8529 411.761 20.8195 410.161 22.0195 411.761C22.5056 412.409 23.1173 413.735 23.7285 415.261M16.0195 384.761C17.0726 382.187 18.4215 378.397 17.8859 378.028M16.0195 384.761C17.8529 385.261 22.4195 381.161 26.0195 360.761C27.2386 353.853 28.492 347.438 29.6749 341.761M318.02 313.761C318.52 314.261 322.02 315.261 325.02 315.761C326.415 315.993 331.594 318.28 337.289 320.912M318.02 313.761C318.82 311.761 320.02 309.027 320.52 307.91M318.02 313.761C318.02 313.761 315.02 323.761 310.02 329.761C305.02 335.761 294.52 331.261 294.02 324.761C293.52 318.261 301.52 305.761 302.02 304.761C302.42 303.961 306.853 299.64 309.02 297.58M300.715 307C298.049 305.667 289.62 301.361 284.02 299.761C283.549 299.474 282.957 299.134 282.26 298.761M265.02 292.761C265.42 291.961 267.186 289.761 268.02 288.761M265.02 292.761C260.186 299.761 253.02 314.761 263.02 318.761C273.02 322.761 280.013 307.094 282.26 298.761M265.02 292.761C263.631 291.719 260.988 289.906 258.698 288.761M238.52 228.261C237.52 243.761 226.02 246.261 222.02 246.761C218.02 247.261 201.02 248.261 197.02 257.761C194.636 263.421 194.028 265.886 194.772 270.761M238.52 228.261C240.52 228.261 244.158 227.594 245.727 227.261M238.52 228.261C235.02 229.094 227.02 230.761 223.02 230.761C218.02 230.761 213.02 227.261 213.02 222.761C212.853 219.761 214.82 213.561 224.02 212.761C233.22 211.961 236.69 211.428 237.276 211.261M47.5195 452.761C46.6826 458.927 47 459 44.0195 466.761C41.3678 473.666 42 483 49.0195 493.761C56.5554 505.314 65.0195 504.761 73.0195 504.761C79.4195 504.761 92.3529 504.094 98.0195 503.761C106.853 503.094 129.02 500.161 147.02 493.761C169.52 485.761 196.52 475.261 206.02 473.761C215.52 472.261 236.02 472.761 243.02 474.761C250.02 476.761 275.02 480.761 286.02 484.761C297.02 488.761 309.52 493.761 315.02 493.761C320.52 493.761 331.52 491.761 338.02 473.261C338.428 472.099 338.836 470.934 339.25 469.761M47.5195 452.761C51.3528 453.928 62.6195 455.761 77.0195 453.761C95.0195 451.261 115.02 444.761 133.02 441.761C151.02 438.761 157.02 436.761 180.02 436.761C203.02 436.761 235.52 441.261 243.02 442.761C250.52 444.261 296.52 454.261 310.02 458.761C320.82 462.361 334.007 467.594 339.25 469.761M339.25 469.761C345.434 452.249 352.997 433.032 382.52 399.761C407.72 371.361 396.686 355.928 388.02 351.761C383.52 350.428 373.02 346.761 367.02 342.761C359.52 337.761 359.52 331.261 354.02 328.761C353.46 328.507 352.746 328.175 351.91 327.783M339.25 469.761C341.076 470.588 343.758 471.682 347.02 472.846M545.113 460.261C529.706 467.761 504.02 471.761 488.019 474.761C472.018 477.761 436.52 480.261 431.02 480.761C425.52 481.261 396.02 481.261 377.02 479.761C366.255 478.911 354.933 475.671 347.02 472.846M347.02 472.846C349.686 461.318 359.22 435.361 372.02 423.761C388.02 409.261 398.52 400.761 418.02 391.761C429.364 386.525 439.862 376.551 446.659 366.761M229.02 148.761C227.42 139.484 223.457 118.541 219.958 106.261M229.02 148.761C227.42 149.961 225.647 150.594 224.961 150.761M229.02 148.761C229.76 148.761 231.969 148.961 234.88 149.761M242.02 210.261L232.824 166.761M242.02 210.261C241.22 210.261 238.524 210.928 237.276 211.261M242.02 210.261C243.118 210.094 245.837 209.961 247.918 210.761M194.772 270.761C198.973 257.561 214.688 253.261 222.02 252.761C227.186 252.261 238.72 249.161 243.52 240.761C245.586 237.144 246.059 232.224 245.727 227.261M194.772 270.761C195.03 272.456 195.452 274.442 196.02 276.955M197.345 282.761C197.559 283.704 197.784 284.702 198.02 285.761C199.26 291.343 202.231 295.002 205.86 297.393M197.345 282.761C196.842 280.544 196.398 278.633 196.02 276.955M197.345 282.761C199.213 285.407 204.271 289.296 212.935 291.012M268.02 288.761C266.82 286.761 263.52 285.261 262.02 284.761C261.693 284.568 261.359 284.391 261.02 284.231M268.02 288.761C268.82 287.161 270.353 285.766 271.02 285.269M304.014 302.5C300.015 299.3 291.02 296.428 287.52 295.761C286.749 295.086 285.517 294.379 284.02 293.682M359.02 323.761C360.239 325.482 362.408 328.091 365.216 330.761M359.02 323.761C358.489 323.449 357.873 323.114 357.185 322.761C356.22 322.266 355.113 321.735 353.896 321.178M446.659 366.761C443.859 365.614 440.588 364.277 437.02 362.822M196.02 276.955C198.353 286.224 197.42 307.961 175.02 320.761C152.62 333.561 131.02 321.428 123.02 313.761C120.502 311.942 115.448 305.005 112.469 290.761M50.6252 228.761C51.268 230.516 52.0565 232.222 53.0186 233.761C53.9851 236.982 55.5326 243.94 56.4044 252.761M50.6252 228.761C51.5098 230.361 56.2567 232.761 58.5195 233.761C78.0195 241.761 108.02 256.261 111.02 281.761C111.405 285.039 111.899 288.034 112.469 290.761M112.469 290.761C109.419 308.261 96.5195 318.761 84.0195 318.761C80.5677 318.761 75.7455 318.046 70.5195 316.986M23.7285 415.261C50.7196 394.692 53.8284 365.584 49.6863 342.761M403.52 349.28C399.792 347.79 396.24 346.378 393.02 345.109M403.52 349.28C411.383 352.424 420.032 355.918 428.02 359.161M403.52 349.28C404.333 347.923 405.456 346.352 406.847 344.761M393.02 345.109C394.461 343.374 396.605 340.964 399.02 338.52M393.02 345.109C391.984 344.701 390.982 344.308 390.02 343.931M430.142 335.761C432.934 338.135 438.22 346.871 437.02 362.822M430.142 335.761C428.026 335.196 425.979 335.023 424.02 335.156M437.02 362.822C434.179 361.664 431.15 360.432 428.02 359.161M424.02 335.156C416.797 335.644 410.761 340.283 406.847 344.761M424.02 335.156C426.129 338.821 429.405 346.65 429.1 353.761M428.02 359.161C428.689 357.471 429.02 355.641 429.1 353.761M406.847 344.761C411.458 344.428 422.365 345.761 429.1 353.761M365.216 330.761C368.936 334.297 373.778 337.938 379.02 339.761C381.2 340.519 385.095 342.004 390.02 343.931M365.216 330.761C365.948 329.589 366.894 328.266 368.02 326.912M368.02 326.912C371.969 322.161 378.131 317.035 385.02 316.751M368.02 326.912C372.912 326.862 384.379 328.761 391.108 336.761M390.02 343.931C390.483 342.081 390.916 339.562 391.108 336.761M385.02 316.751C390.595 321.294 391.58 329.878 391.108 336.761M356.02 314.261C356.52 312.261 360.02 306.761 360.02 304.761C360.02 302.761 357.02 303.761 353.02 301.761C349.02 299.761 349.52 302.261 349.02 304.761C348.747 306.121 347.143 308.814 345.012 310.261M356.02 314.261C355.312 316.503 354.604 318.828 353.896 321.178M345.012 310.261C343.885 311.577 342.393 313.462 340.777 315.715M315.02 286.761C317.52 286.761 323.52 288.761 324.02 290.761C324.52 292.761 320.02 299.761 320.02 300.761M315.02 286.761C313.282 286.761 311.786 294.734 309.02 297.58M320.02 300.761C320.02 301.761 321.02 305.559 320.52 307.91M320.52 307.91C321.05 308.19 321.553 308.474 322.02 308.761C326.604 310.37 333.797 312.987 340.777 315.715M284.02 293.682C283.68 294.708 282.853 297.161 282.26 298.761M284.02 293.682C284.02 292.909 284.042 291.639 284.107 290.261M271.02 285.269C272.145 285.27 273.391 284.642 274.52 282.761C277.52 277.761 276.02 272.761 279.02 273.261C282.02 273.761 287.52 275.761 288.02 277.261C288.52 278.761 285.018 282.761 284.519 285.761C284.307 287.03 284.18 288.714 284.107 290.261M257.02 121.761C238.22 121.361 228.52 110.928 226.02 105.761C225.73 104.739 225.473 103.74 225.248 102.761M257.02 121.761C249.23 125.997 236.061 136.599 234.88 149.761M269.02 183.761C261.398 182.715 245.737 177.274 238.256 163.761M269.02 183.761C262.112 187.906 250.027 198.235 247.918 210.761M278.02 243.761C270.52 242.319 255.932 236.633 250.065 224.761M278.02 243.761C263.492 252.244 237.05 269.849 212.935 291.012M258.698 288.761C252.041 303.961 231.472 333.094 222.02 345.761C206.547 359.514 199.443 362.184 188.02 356.63M258.698 288.761L261.02 284.231M226.02 291.759C228.516 291.599 230.52 292.261 234.02 290.761C237.961 287.863 245.707 283.579 253.02 282.987M226.02 291.759L215.02 300.982M226.02 291.759C232.43 286.334 247.4 276.326 261.494 267.261M215.02 300.982C220.809 302.163 226.225 301.761 228.02 301.761C232.02 301.761 236.02 299.761 242.02 294.761C244.583 292.625 246.963 290.945 249.083 289.761M215.02 300.982C201.92 311.715 180.415 332.837 184.849 342.261M249.083 289.761C247.562 294.094 241.32 306.461 228.52 321.261C213.677 338.422 209.161 351.281 193.02 347.065M249.083 289.761C250.062 287.745 252.22 283.568 253.02 282.987M253.02 282.987C255.669 278.412 261.074 268.861 261.494 267.261M66.0195 190.761L108.02 162.261M66.0195 190.761L60.5 194M108.02 162.261C103.52 158.428 96.2195 149.561 103.02 144.761C109.82 139.961 149.853 112.094 169.02 98.761C170.686 97.4277 174.92 96.261 178.52 102.261M108.02 162.261C118.02 173.861 121.52 175.094 124.02 172.761C141.353 160.261 181.02 131.761 185.02 129.761C190.02 127.261 192.02 122.761 190.52 120.261C190.125 119.604 189.421 118.568 188.515 117.261M178.52 102.261C181.853 98.9277 190.22 92.161 197.02 91.761C203.82 91.361 210.219 90.5943 212.569 90.261M178.52 102.261C181.837 107.791 185.971 113.592 188.515 117.261M212.569 90.261L216.866 89.761M216.866 89.761C218.066 89.761 221.172 90.061 223.993 91.261M223.993 91.261C225.853 91.4277 230.266 91.561 233.045 90.761M233.045 90.761C234.836 92.4277 237.677 96.761 234.718 100.761M234.718 100.761C232.471 100.761 227.431 101.161 225.248 102.761M225.248 102.761C224.131 103.761 221.508 105.861 219.958 106.261M219.958 106.261C218.86 106.428 216.451 106.761 215.593 106.761M215.593 106.761C217.607 115.718 220.333 127.519 222.02 134.761C222.813 139.076 223.86 144.772 224.961 150.761M215.593 106.761C212.735 106.928 205.82 107.561 201.02 108.761C196.22 109.961 190.683 114.928 188.515 117.261M224.961 150.761C224.481 150.928 221.22 151.361 212.02 151.761C202.82 152.161 201.52 158.594 202.02 161.761C202.02 168.261 208.02 171.261 213.52 169.761C217.92 168.561 224.941 167.261 227.902 166.761M234.88 149.761C236.32 150.428 240.533 151.561 245.86 150.761M245.86 150.761C247.08 150.761 249.62 151.761 250.02 155.761C250.42 159.761 248.829 160.761 247.984 160.761M247.984 160.761C245.486 161.094 240.044 162.161 238.256 163.761M238.256 163.761C237.047 164.761 234.268 166.761 232.824 166.761M232.824 166.761H227.902M227.902 166.761C229.421 175.032 230.671 181.842 231.02 183.761C231.69 187.448 235.282 199.227 237.276 211.261M247.918 210.761C249.537 211.261 253.899 212.161 258.397 211.761M258.397 211.761C259.438 211.594 261.62 212.261 262.02 216.261C262.42 220.261 261.022 221.594 260.273 221.761M260.273 221.761C257.586 221.928 251.783 222.761 250.065 224.761M250.065 224.761C249.022 225.594 246.693 227.261 245.727 227.261M175.801 347.261C171.964 340.968 174.077 333.863 176.52 329.761C184.461 318.691 194.743 307.706 205.86 297.393M175.801 347.261C171.541 351.094 162.02 360.161 158.02 365.761C154.02 371.361 157.02 376.094 159.02 377.761C169.52 384.761 172.135 377.323 178.02 370.261C185.52 361.261 184.52 361.761 188.02 356.63M175.801 347.261C177.76 346.928 182.312 345.461 184.849 342.261M184.849 342.261C185.739 341.094 188.22 339.361 191.02 341.761C194.52 344.761 194.02 345.87 193.02 347.065M193.02 347.065C191.52 349.043 189.02 353.261 188.02 356.63M29.6749 341.761L49.6863 342.761M49.6863 342.761C52.8813 343.037 58.039 343.257 63.0195 343.004M75.0195 340.576C74.3529 335.788 72.5195 324.367 70.5195 316.986M75.0195 340.576C73.8796 339.575 72.6983 338.641 71.4993 337.761M75.0195 340.576C74.3529 342.138 73.2195 346.261 74.0195 350.261C75.0195 352.928 76.8195 361.261 76.0195 373.261C75.2195 385.261 73.0195 387.261 68.0195 387.261C64.5195 387.594 57.8195 385.261 59.0195 373.261C60.5195 358.261 60.0195 352.761 62.0195 350.761C63.6195 349.161 63.3529 344.923 63.0195 343.004M70.5195 316.986C66.6094 297.078 58.3122 256.361 56.4044 252.761M63.0195 343.004C62.6862 341.756 62.5195 339.061 64.5195 338.261C67.0195 337.261 70.8279 337.261 71.4993 337.761M337.289 320.912C334.202 325.844 331.27 331.551 330.02 336.761C327.02 349.261 344.02 350.761 347.02 342.761C348.65 338.414 350.28 333.18 351.91 327.783M337.289 320.912C338.457 319.046 339.647 317.29 340.777 315.715M351.91 327.783C352.572 325.592 353.234 323.374 353.896 321.178M205.86 297.393C208.187 295.235 210.55 293.106 212.935 291.012M142.52 129.261C140.52 132.261 146.02 141.261 149.52 140.261C150.52 137.261 147.02 128.261 142.52 129.261ZM117.02 147.761C115.02 150.761 120.52 159.761 124.02 158.761C125.02 155.761 121.52 146.761 117.02 147.761ZM177.02 107.761C177.52 107.761 183.02 115.261 183.02 115.761C183.02 116.102 178.897 119.135 175.926 121.261C176.333 124.761 175.02 124.261 174.02 123.761C173.02 123.261 167.02 117.261 167.02 113.761C167.02 110.961 169.353 111.8 170.52 112.569C173.15 110.492 176.689 107.761 177.02 107.761Z" stroke="black" stroke-width="2" stroke-linejoin="round"/>
<circle cx="155" cy="285" r="27" fill="#8C8D90" stroke="black" stroke-width="2"/>
<circle cx="71" cy="479" r="12.25" fill="#8C8D90" stroke="black" stroke-width="1.5"/>
<circle cx="67" cy="380" r="9" fill="#8C8D90" stroke="black" stroke-width="2"/>
<circle cx="266" cy="311" r="9" fill="#8C8D90" stroke="black" stroke-width="2"/>
<circle cx="165" cy="372" r="9" fill="#8C8D90" stroke="black" stroke-width="2"/>
<circle cx="303" cy="324" r="9" fill="#8C8D90" stroke="black" stroke-width="2"/>
<circle cx="338" cy="339" r="9" fill="#8C8D90" stroke="black" stroke-width="2"/>
<circle cx="221" cy="222" r="9" fill="#8C8D90" stroke="black" stroke-width="2"/>
<circle cx="211" cy="161" r="9" fill="#8C8D90" stroke="black" stroke-width="2"/>
<circle cx="186" cy="107" r="9" fill="#8C8D90" stroke="black" stroke-width="2"/>
<circle cx="152" cy="464" r="12.25" fill="#8C8D90" stroke="black" stroke-width="1.5"/>
<circle cx="228" cy="457" r="12.25" fill="#8C8D90" stroke="black" stroke-width="1.5"/>
<circle cx="312" cy="477" r="12.25" fill="#8C8D90" stroke="black" stroke-width="1.5"/>
<circle cx="155" cy="285" r="13" fill="#8C8D90" stroke="black" stroke-width="2"/>
<circle cx="71" cy="479" r="8.25" fill="#8C8D90" stroke="black" stroke-width="1.5"/>
<circle cx="67" cy="380" r="4" fill="#8C8D90" stroke="black" stroke-width="2"/>
<circle cx="266" cy="311" r="4" fill="#8C8D90" stroke="black" stroke-width="2"/>
<circle cx="165" cy="372" r="4" fill="#8C8D90" stroke="black" stroke-width="2"/>
<circle cx="303" cy="324" r="4" fill="#8C8D90" stroke="black" stroke-width="2"/>
<circle cx="338" cy="339" r="4" fill="#8C8D90" stroke="black" stroke-width="2"/>
<circle cx="221" cy="222" r="4" fill="#8C8D90" stroke="black" stroke-width="2"/>
<circle cx="211" cy="161" r="4" fill="#8C8D90" stroke="black" stroke-width="2"/>
<circle cx="186" cy="107" r="4" fill="#8C8D90" stroke="black" stroke-width="2"/>
<circle cx="152" cy="464" r="8.25" fill="#8C8D90" stroke="black" stroke-width="1.5"/>
<circle cx="228" cy="457" r="8.25" fill="#8C8D90" stroke="black" stroke-width="1.5"/>
<circle cx="312" cy="477" r="8.25" fill="#8C8D90" stroke="black" stroke-width="1.5"/>
<circle cx="47" cy="205" r="2" fill="black"/>
<circle cx="60" cy="194" r="2" fill="black"/>
</svg>
