<svg viewBox="0 0 220 138" fill="none" xmlns="http://www.w3.org/2000/svg">
<path fill-rule="evenodd" clip-rule="evenodd" d="M110.832 0.292956C108.682 0.923906 106.989 2.41565 106.024 4.52798C105.308 6.09616 105.164 8.26046 105.668 9.88579C107.398 15.4688 114.277 17.1716 118.231 12.9955C120.935 10.1396 120.991 5.49378 118.358 2.50798C116.458 0.353318 113.546 -0.503545 110.832 0.292956ZM91.0284 1.75719C88.7864 2.29867 86.8813 4.29528 86.269 6.74514C85.5009 9.81828 86.9781 13.0266 89.8215 14.4616C90.8968 15.0041 91.1059 15.0462 92.7262 15.0462C94.2526 15.0462 94.5964 14.9866 95.4609 14.5712C101.002 11.9083 100.421 3.60004 94.5711 1.84649C93.5503 1.54057 92.0791 1.50342 91.0284 1.75719ZM131.408 4.13651C129.405 4.6462 127.419 6.1492 126.456 7.88435C125.622 9.38628 125.341 10.68 125.438 12.568C125.51 13.9822 125.609 14.4076 126.133 15.537C126.927 17.252 128.124 18.4801 129.853 19.3565C131.018 19.9465 131.367 20.0367 132.745 20.1044C133.886 20.1603 134.617 20.0965 135.435 19.8694C139.225 18.8178 141.728 14.8448 141.124 10.8405C140.409 6.11009 135.895 2.99498 131.408 4.13651ZM73.565 7.87185C70.3794 8.95159 68.6757 12.5796 69.9174 15.6399C70.845 17.9263 72.805 19.2672 75.2201 19.2672C77.8957 19.2672 80.007 17.5992 80.6785 14.9552C81.356 12.2878 80.1154 9.47235 77.7363 8.27832C76.5538 7.68487 74.6609 7.50039 73.565 7.87185ZM59.0171 15.4706C57.399 16.0163 56.3127 17.0111 55.6075 18.5932C55.2024 19.502 55.1513 19.8083 55.2207 20.9148C55.3482 22.9502 56.2575 24.4228 57.9963 25.41C58.8277 25.8821 59.0923 25.9397 60.4109 25.9376C61.6779 25.9354 62.0207 25.8658 62.7844 25.4549C67.5118 22.912 65.9842 15.6252 60.6722 15.3799C60.0014 15.349 59.2566 15.3897 59.0171 15.4706ZM46.7069 24.0894C43.6625 24.6348 41.9181 28.0201 43.2048 30.8855C44.3191 33.3668 46.885 34.383 49.4768 33.3695C50.2685 33.06 51.4616 31.7937 51.8632 30.837C52.3287 29.7276 52.3641 28.1962 51.9494 27.0956C51.171 25.0291 48.8595 23.7038 46.7069 24.0894ZM168.173 28.8041C166.664 29.394 165.651 30.9334 165.651 32.6371C165.651 34.3817 166.492 35.6456 168.155 36.3993C169.544 37.0288 171.292 36.6427 172.456 35.4488C173.774 34.0983 173.884 31.8506 172.718 30.0849C171.902 28.848 169.67 28.2192 168.173 28.8041ZM35.1773 33.9949C33.71 34.7446 33.0291 35.9026 33.0249 37.6565C33.0195 39.9067 34.7322 41.6272 36.9774 41.6272C39.2391 41.6272 40.9031 39.9155 40.8937 37.5986C40.8813 34.5332 37.8567 32.6264 35.1773 33.9949ZM157.795 36.6221C155.594 37.2545 154.285 39.0531 154.296 41.4295C154.308 43.9351 156.139 45.964 158.571 46.1641C162.044 46.4498 164.487 43.3383 163.561 39.8099C162.956 37.5079 160.137 35.9492 157.795 36.6221ZM144.521 44.4128C143.106 44.8802 141.574 46.4607 141.164 47.8756C139.957 52.0423 143.572 55.904 147.566 54.7139C150.385 53.8739 152.026 50.6891 151.105 47.8464C150.751 46.7534 149.512 45.2759 148.502 44.7414C147.71 44.3223 145.378 44.1298 144.521 44.4128ZM71.9098 50.1767C67.7692 50.8231 64.7291 55.1831 65.43 59.4699C66.3119 64.8636 71.9717 67.8973 76.7005 65.5108C79.7234 63.9853 81.2785 61.2201 81.1126 57.6655C81.0449 56.2112 80.9663 55.9074 80.3037 54.5366C79.557 52.992 78.6501 52.0019 77.1366 51.0783C75.7956 50.26 73.6969 49.898 71.9098 50.1767ZM130.14 51.0427C129.125 51.2479 127.75 52.0426 127.102 52.7998C126.147 53.9139 125.696 55.1892 125.696 56.7716C125.696 57.9817 125.771 58.3264 126.247 59.3186C127.242 61.3908 129.024 62.52 131.318 62.532C133.605 62.5439 135.394 61.4036 136.411 59.2845C136.902 58.2632 136.978 57.9201 136.975 56.755C136.967 53.9792 135.35 51.8089 132.78 51.1225C131.677 50.8281 131.264 50.8157 130.14 51.0427ZM91.1599 55.3686C89.8368 55.8853 88.6505 56.718 87.955 57.6181C84.9158 61.5515 86.0316 67.1985 90.2717 69.344C91.7685 70.1012 92.8405 70.2955 94.5814 70.1252C96.0844 69.978 97.6157 69.2858 98.7384 68.2462C100.829 66.3105 101.687 63.0931 100.85 60.3344C100.193 58.1717 98.9161 56.6734 96.8343 55.6228C95.8327 55.1174 95.5234 55.0511 93.9596 55.0079C92.4797 54.967 92.0443 55.0231 91.1599 55.3686ZM112.719 55.159C110.135 55.6003 107.895 57.7848 107.382 60.3641C106.187 66.3709 112.439 70.8577 117.437 67.5803C118.596 66.8202 119.216 66.0678 119.888 64.6043C120.36 63.5779 120.421 63.2572 120.421 61.8362C120.421 60.4137 120.36 60.0953 119.887 59.0681C118.936 57.0033 117.332 55.6935 115.181 55.2265C114.524 55.0836 113.907 54.9749 113.811 54.9845C113.715 54.9943 113.224 55.0729 112.719 55.159Z" fill="#57F0D1"/>
<path d="M9.01434 128.539V127.646V126.753H10.1468H11.2793V127.646V128.539H10.1468H9.01434Z" fill="#3E4263"/>
<path d="M18.2483 128.539V127.646V126.753H19.3808H20.5133V127.646V128.539H19.3808H18.2483Z" fill="#3E4263"/>
<path d="M64.2441 128.539V127.646V126.753H65.2895H66.3348V127.646V128.539H65.2895H64.2441Z" fill="#3E4263"/>
<path d="M123.133 128.539V127.646V126.753H124.265H125.398V127.646V128.539H124.265H123.133Z" fill="#3E4263"/>
<path d="M143.866 128.539V127.646V126.753H144.911H145.956V127.646V128.539H144.911H143.866Z" fill="#3E4263"/>
<path d="M181.15 136.04V131.396V126.753H182.195H183.241V131.396V136.04H182.195H181.15Z" fill="#3E4263"/>
<path d="M196.656 128.539V127.646V126.753H197.702H198.747V127.646V128.539H197.702H196.656Z" fill="#3E4263"/>
<path d="M165.824 129.053C166.064 128.138 166.625 127.507 167.473 127.2C167.857 127.061 168.45 126.944 168.792 126.939C169.611 126.929 171.081 127.385 171.59 127.807C172.019 128.163 171.974 128.398 171.298 129.329C171.053 129.667 171.034 129.666 170.212 129.272C169.237 128.803 168.136 128.814 167.842 129.295C167.563 129.751 168.127 130.225 169.385 130.591C171.596 131.234 172.265 131.89 172.265 133.415C172.265 135.489 170.057 136.624 167.456 135.886C166.707 135.673 165.625 135.007 165.526 134.697C165.494 134.598 165.708 134.218 166.001 133.853L166.534 133.19L167.226 133.659C168.025 134.201 169.496 134.429 169.912 134.076C170.056 133.953 170.174 133.668 170.174 133.443C170.174 133.012 169.939 132.891 167.735 132.182C166.126 131.665 165.435 130.533 165.824 129.053Z" fill="#3E4263"/>
<path d="M1.74631 131.885C0.863331 129.603 0.090463 127.594 0.0289611 127.423C-0.0699996 127.146 0.0435967 127.11 1.02484 127.11L2.1324 127.111L3.17776 130.045C3.7527 131.659 4.27016 132.924 4.32765 132.857C4.38515 132.79 4.88796 131.47 5.44479 129.923L6.45704 127.11H7.5639H8.67059L8.43835 127.691C8.31064 128.01 7.51477 130.019 6.6696 132.155L5.1331 136.04L4.24245 136.038L3.35198 136.036L1.74631 131.885Z" fill="#3E4263"/>
<path d="M39.7653 128.985L39.7127 128.048L39.6599 127.11H43.3279H46.9957V128.092V129.075H45.689H44.3823V132.557V136.04H43.337H42.2916V132.565V129.09L41.0285 129.038L39.7653 128.985Z" fill="#3E4263"/>
<path d="M97.9569 135.95L97.9104 131.53L97.8637 127.11H98.9835H100.103L101.19 128.912L102.276 130.713L102.636 130.117C102.834 129.789 103.332 128.979 103.742 128.316L104.488 127.11H105.535H106.581V131.575V136.04H105.623H104.665L104.664 133.227L104.664 130.414L103.461 132.265L102.258 134.117L101.109 132.356L99.9605 130.595V133.326V136.057L98.9587 136.004L97.9569 135.95Z" fill="#3E4263"/>
<path d="M59.3222 129.107C59.6615 129.057 59.7142 128.943 59.7142 128.258V127.467H60.6725H61.6307V128.271V129.075H62.4148H63.1988V129.968V130.86H62.4148H61.6307L61.6334 132.334C61.6367 134.136 61.7393 134.34 62.5716 134.202L63.1988 134.098V134.884C63.1988 135.818 62.9186 136.04 61.7375 136.04C60.7525 136.04 60.1571 135.769 59.9076 135.208C59.8014 134.968 59.7142 133.892 59.7142 132.817V130.86H59.2691C58.8468 130.86 58.8267 130.817 58.8771 130.012C58.9224 129.288 58.9877 129.155 59.3222 129.107Z" fill="#3E4263"/>
<path d="M126.443 129.075C126.74 129.075 126.791 128.955 126.791 128.271V127.467H127.837H128.882V128.261V129.054L129.623 129.109L130.363 129.164L130.416 130.012L130.469 130.86H129.669H128.869L128.919 132.512L128.969 134.164L129.71 134.149L130.45 134.133V134.902C130.45 135.833 130.166 136.04 128.882 136.04C127.172 136.04 126.791 135.423 126.791 132.652C126.791 130.98 126.768 130.86 126.443 130.86C126.141 130.86 126.095 130.741 126.095 129.968C126.095 129.194 126.141 129.075 126.443 129.075Z" fill="#3E4263"/>
<path d="M191.734 129.107C192.074 129.057 192.126 128.943 192.126 128.258V127.467H193.085H194.043V128.271V129.075H194.827H195.611V129.968V130.86H194.827H194.043L194.045 132.334C194.049 134.136 194.151 134.34 194.984 134.202L195.611 134.098V134.884C195.611 135.842 195.332 136.042 194.011 136.034C192.407 136.024 192.126 135.547 192.126 132.837V130.86H191.681C191.259 130.86 191.239 130.817 191.289 130.012C191.334 129.288 191.4 129.155 191.734 129.107Z" fill="#3E4263"/>
<path d="M9.18857 136.04V132.557V129.075H10.1468H11.1051V132.557V136.04H10.1468H9.18857Z" fill="#3E4263"/>
<path d="M12.3246 131.261C12.3246 130.339 12.7255 129.649 13.4488 129.326C14.2209 128.981 15.6038 129.027 16.4625 129.427C16.8697 129.616 17.203 129.82 17.203 129.878C17.203 129.982 16.6913 131.064 16.5817 131.192C16.5517 131.227 16.1798 131.119 15.7552 130.953C14.8755 130.609 14.154 130.646 14.154 131.036C14.154 131.197 14.6297 131.494 15.3736 131.797C16.8195 132.386 17.3772 132.95 17.3772 133.826C17.3772 135.275 16.4141 136.102 14.7436 136.087C13.792 136.078 12.3231 135.577 12.0837 135.181C11.9616 134.978 12.6489 133.665 12.8254 133.764C13.5961 134.199 14.3943 134.442 14.9116 134.397C15.7736 134.324 15.7417 133.891 14.8509 133.574C12.6572 132.792 12.3246 132.487 12.3246 131.261Z" fill="#3E4263"/>
<path d="M18.4226 136.04V132.557V129.075H19.3808H20.3391V132.557V136.04H19.3808H18.4226Z" fill="#3E4263"/>
<path d="M29.4382 132.742C29.4119 130.977 29.4292 129.43 29.4764 129.304C29.5318 129.155 29.9022 129.075 30.5259 129.075C31.3711 129.075 31.4896 129.118 31.4896 129.429C31.4896 129.783 31.4911 129.783 32.0558 129.43C32.8942 128.906 34.1078 128.952 34.7814 129.532C35.507 130.158 35.6689 130.912 35.6699 133.673L35.671 136.04H34.6256H33.5803V133.807C33.5803 131.813 33.5432 131.537 33.2318 131.218C33.0402 131.021 32.7266 130.86 32.5349 130.86C32.3433 130.86 32.0297 131.021 31.838 131.218C31.5265 131.537 31.4896 131.813 31.4896 133.816V136.057L30.4878 136.004L29.486 135.95L29.4382 132.742Z" fill="#3E4263"/>
<path d="M53.6242 130.636C53.7864 130.159 54.0911 129.743 54.4697 129.482C54.876 129.202 55.3171 129.075 55.876 129.075C56.6916 129.075 58.2415 129.514 58.4093 129.792C58.4947 129.933 57.8448 131.218 57.6878 131.218C57.6464 131.218 57.3308 131.097 56.9869 130.95C56.2583 130.638 55.6009 130.603 55.441 130.868C55.2823 131.131 55.6412 131.519 56.1689 131.655C57.6904 132.046 58.6689 132.927 58.6689 133.905C58.6689 134.57 58.1202 135.508 57.5564 135.808C56.7128 136.257 55.2586 136.182 54.0794 135.629L53.0778 135.159L53.3801 134.662C53.9695 133.692 53.9482 133.702 54.6718 134.08C55.4976 134.512 56.7524 134.561 56.7524 134.161C56.7524 134.011 56.5369 133.798 56.2733 133.686C54.2028 132.809 53.9637 132.656 53.67 132.025C53.4001 131.445 53.3956 131.308 53.6242 130.636Z" fill="#3E4263"/>
<path d="M64.2441 136.057V132.557V129.057L65.2459 129.11L66.2477 129.164V132.557V135.95L65.2459 136.004L64.2441 136.057Z" fill="#3E4263"/>
<path d="M67.5544 136.057V132.566V129.075H68.5291C69.3544 129.075 69.5174 129.129 69.5939 129.429C69.6842 129.782 69.6856 129.782 70.1238 129.429C70.6595 128.997 71.8782 128.956 72.6128 129.346C73.5104 129.821 73.6524 130.369 73.6524 133.352V136.04H72.6941H71.7359V133.921C71.7359 132.047 71.6941 131.747 71.3747 131.331C70.9548 130.784 70.5287 130.734 70.0145 131.173C69.6833 131.456 69.6441 131.699 69.6032 133.718L69.558 135.95L68.5562 136.004L67.5544 136.057Z" fill="#3E4263"/>
<path d="M115.815 132.676C115.815 130.826 115.867 129.259 115.931 129.194C115.995 129.128 116.434 129.075 116.906 129.075C117.607 129.075 117.78 129.138 117.852 129.419C117.939 129.758 117.947 129.758 118.489 129.419C119.583 128.736 121.118 129.108 121.687 130.194C121.934 130.665 121.991 131.249 121.995 133.361L122 135.95L120.998 136.004L119.997 136.057V133.816C119.997 131.813 119.96 131.537 119.648 131.218C119.229 130.788 118.814 130.764 118.293 131.139C117.927 131.401 117.906 131.542 117.906 133.728V136.04H116.861H115.815V132.676Z" fill="#3E4263"/>
<path d="M123.307 136.04V132.557V129.075H124.265H125.223V132.557V136.04H124.265H123.307Z" fill="#3E4263"/>
<path d="M138.987 136.04V132.557V129.075H139.946C140.888 129.075 140.904 129.083 140.904 129.597V130.119L141.413 129.597C141.755 129.246 142.098 129.075 142.458 129.075H142.994V130.146C142.994 131.154 142.97 131.218 142.582 131.218C141.976 131.218 141.289 131.856 141.085 132.61C140.986 132.974 140.905 133.894 140.905 134.655L140.904 136.04H139.946H138.987Z" fill="#3E4263"/>
<path d="M143.866 136.04V132.557V129.075H144.824H145.782V132.557V136.04H144.824H143.866Z" fill="#3E4263"/>
<path d="M147.176 136.04V132.557V129.075H148.134C149.049 129.075 149.092 129.096 149.092 129.537V129.999L149.629 129.537C150.252 128.999 151.41 128.908 152.214 129.335C153.086 129.797 153.274 130.522 153.274 133.432V136.04H152.334H151.393L151.332 133.791C151.274 131.682 151.245 131.522 150.859 131.202C150.342 130.773 150.107 130.773 149.591 131.201C149.204 131.522 149.176 131.679 149.122 133.791L149.064 136.04H148.12H147.176Z" fill="#3E4263"/>
<path d="M185.397 135.774C184.63 135.258 184.46 134.516 184.46 131.67V129.075H185.419H186.377V131.012C186.377 133.283 186.571 134.029 187.205 134.192C188.267 134.465 188.636 133.664 188.639 131.084L188.642 129.075H189.6H190.558V132.557V136.04H189.6C188.763 136.04 188.642 135.995 188.642 135.688C188.642 135.344 188.629 135.345 188.015 135.716C187.257 136.175 186.034 136.201 185.397 135.774Z" fill="#3E4263"/>
<path d="M196.656 136.057V132.557V129.057L197.658 129.11L198.66 129.164V132.557V135.95L197.658 136.004L196.656 136.057Z" fill="#3E4263"/>
<path d="M207.807 136.04V132.557V129.075H208.765C209.68 129.075 209.723 129.096 209.723 129.537V129.999L210.259 129.537C210.883 128.999 212.04 128.908 212.845 129.335C213.718 129.798 213.905 130.522 213.905 133.441V136.057L212.903 136.004L211.901 135.95L211.852 133.674C211.805 131.465 211.791 131.389 211.366 131.104C211.015 130.868 210.843 130.85 210.497 131.012C209.871 131.304 209.723 131.893 209.723 134.087V136.04H208.765H207.807Z" fill="#3E4263"/>
<path d="M214.95 131.304C214.95 130.426 215.345 129.719 216.03 129.373C216.806 128.981 218.181 129.005 219.088 129.427C219.495 129.616 219.828 129.82 219.828 129.878C219.828 129.982 219.317 131.064 219.207 131.192C219.177 131.227 218.805 131.119 218.381 130.953C217.501 130.609 216.779 130.646 216.779 131.036C216.779 131.197 217.255 131.494 217.999 131.797C219.468 132.395 220.004 132.947 220 133.862C219.994 135.305 219.059 136.103 217.392 136.087C216.402 136.078 214.95 135.581 214.7 135.166C214.634 135.056 214.755 134.705 214.97 134.386C215.184 134.068 215.37 133.789 215.382 133.768C215.394 133.746 215.727 133.892 216.122 134.092C216.57 134.319 217.089 134.434 217.506 134.399C218.398 134.324 218.382 133.896 217.476 133.574C215.369 132.823 214.95 132.446 214.95 131.304Z" fill="#3E4263"/>
<path fill-rule="evenodd" clip-rule="evenodd" d="M23.388 129.362C20.8574 130.776 20.672 134.09 23.0394 135.593C25.4298 137.111 28.5277 135.413 28.5277 132.585C28.5277 131.39 28.001 130.316 27.1022 129.677C26.5055 129.253 26.179 129.16 25.1482 129.119C24.2581 129.083 23.764 129.152 23.388 129.362ZM25.6664 134.17C26.7171 133.72 26.898 131.973 25.9715 131.225C25.3549 130.728 24.4844 130.756 23.8769 131.291C23.4758 131.645 23.388 131.867 23.388 132.527C23.388 133.896 24.4759 134.68 25.6664 134.17Z" fill="#3E4263"/>
<path fill-rule="evenodd" clip-rule="evenodd" d="M48.1249 129.324C47.3816 129.655 46.5222 130.724 46.291 131.604C45.8781 133.176 46.5582 134.929 47.8721 135.68C49.2279 136.454 51.1934 136.214 52.1235 135.16C52.4579 134.781 52.4567 134.777 51.8634 134.27C51.2718 133.763 51.2643 133.762 50.8503 134.096C50.2896 134.548 49.257 134.532 48.6744 134.062C48.4219 133.859 48.2153 133.618 48.2153 133.526C48.2153 133.433 49.2046 133.361 50.4802 133.361H52.7452V132.669C52.7452 131.183 51.973 129.798 50.8778 129.319C50.1755 129.013 48.8164 129.015 48.1249 129.324ZM49.4349 131.932C50.7813 131.932 50.9804 131.721 50.2731 131.046C49.7635 130.559 49.1636 130.587 48.643 131.12C47.9749 131.805 48.0987 131.932 49.4349 131.932Z" fill="#3E4263"/>
<path fill-rule="evenodd" clip-rule="evenodd" d="M76.0651 129.435C74.8955 130.068 74.2998 131.667 74.6859 133.137C75.2174 135.161 77.5547 136.132 79.0912 134.968C79.5691 134.605 79.5761 134.605 79.5761 134.953C79.5761 135.147 79.3867 135.531 79.1553 135.806C78.7809 136.252 78.622 136.306 77.7179 136.297C77.1088 136.29 76.4726 136.163 76.1307 135.977L75.5603 135.669L75.2382 136.435C75.0612 136.856 74.9488 137.259 74.9887 137.33C75.1458 137.61 76.9125 138.004 77.9962 138C79.3163 137.996 80.3702 137.584 80.9298 136.855C81.4924 136.122 81.6812 134.764 81.6281 131.835L81.5797 129.164L80.5779 129.11C79.6693 129.062 79.5761 129.091 79.5761 129.42V129.784L79.0098 129.43C78.2727 128.969 76.9209 128.971 76.0651 129.435ZM78.0951 133.718C79.3759 133.718 80.0904 132.114 79.1841 131.273C78.4899 130.63 77.6829 130.627 77.0062 131.267C76.1032 132.12 76.813 133.718 78.0951 133.718Z" fill="#3E4263"/>
<path fill-rule="evenodd" clip-rule="evenodd" d="M87.1664 128.159C87.33 127.835 87.7314 127.482 88.1682 127.279C90.022 126.416 91.9449 127.421 91.9449 129.253C91.9449 130.017 91.4022 130.975 90.814 131.25C90.2727 131.503 90.2718 131.589 90.806 132.103L91.2337 132.515L91.6071 131.866C91.8125 131.51 92.0467 131.218 92.1277 131.218C92.2085 131.218 92.5524 131.386 92.892 131.591C93.5663 131.999 93.5596 132.087 92.7707 133.241L92.4253 133.746L93.073 134.427L93.721 135.106L92.9452 135.654L92.1693 136.201L91.6921 135.69L91.2147 135.179L90.619 135.54C89.7307 136.077 88.8585 136.225 87.8659 136.007C85.7235 135.536 85.0398 133.032 86.6564 131.577C87.222 131.068 87.2657 130.967 87.0896 130.57C86.8105 129.943 86.8472 128.792 87.1664 128.159ZM89.9302 128.819C90.2971 129.196 90.275 129.537 89.8554 129.968C89.3826 130.452 89.0097 130.416 88.8057 129.867C88.5714 129.235 88.9095 128.628 89.5382 128.553C89.6031 128.545 89.7795 128.665 89.9302 128.819ZM90.0518 134.022L89.3075 133.245C88.8982 132.818 88.5031 132.468 88.4294 132.468C88.3557 132.468 88.1649 132.672 88.0053 132.922C87.4049 133.861 88.394 134.726 89.5214 134.248L90.0518 134.022Z" fill="#3E4263"/>
<path fill-rule="evenodd" clip-rule="evenodd" d="M109.891 129.31C108.352 130.134 107.799 131 107.804 132.581C107.81 134.95 109.817 136.583 112.068 136.052C113.278 135.767 114.005 135.208 114.511 134.174C115.413 132.333 114.782 130.356 112.991 129.414C112.23 129.014 110.55 128.958 109.891 129.31ZM112.779 131.846C112.644 131.516 112.376 131.16 112.183 131.053C111.485 130.671 110.654 130.818 110.168 131.41C109.548 132.165 109.566 133.003 110.218 133.751C110.621 134.214 110.845 134.322 111.365 134.307C112.577 134.272 113.273 133.059 112.779 131.846Z" fill="#3E4263"/>
<path fill-rule="evenodd" clip-rule="evenodd" d="M132.769 129.422C131.336 130.089 130.502 132 130.961 133.568C131.771 136.34 135.597 137.05 137.309 134.746C139.087 132.354 137.442 129.067 134.474 129.079C133.896 129.081 133.202 129.22 132.769 129.422ZM135.053 134.182C136.168 133.704 136.402 132.29 135.516 131.382C134.457 130.297 132.889 130.947 132.889 132.471C132.889 133.436 133.137 133.871 133.862 134.182C134.378 134.403 134.537 134.403 135.053 134.182Z" fill="#3E4263"/>
<path fill-rule="evenodd" clip-rule="evenodd" d="M156.061 129.204C154.463 129.819 153.708 131.922 154.473 133.629C154.857 134.487 155.242 134.859 156.142 135.245C156.969 135.599 158.101 135.469 158.75 134.946C159.188 134.593 159.198 134.592 159.198 134.931C159.198 135.504 158.536 136.195 157.864 136.324C157.473 136.399 156.851 136.333 156.194 136.145C155.618 135.981 155.119 135.874 155.087 135.908C155.054 135.941 154.905 136.269 154.755 136.636L154.483 137.303L155.142 137.594C155.508 137.755 156.456 137.916 157.281 137.957C158.574 138.02 158.86 137.976 159.536 137.615C160.97 136.847 161.019 136.688 161.081 132.634L161.134 129.075H160.166C159.301 129.075 159.198 129.114 159.198 129.446V129.818L158.611 129.446C158.04 129.085 156.701 128.957 156.061 129.204ZM158.488 133.457C159.307 133.023 159.451 132.057 158.806 131.335C158.306 130.776 157.688 130.641 157.002 130.941C156.397 131.207 156.236 131.509 156.236 132.38C156.236 133.474 157.403 134.032 158.488 133.457Z" fill="#3E4263"/>
<path fill-rule="evenodd" clip-rule="evenodd" d="M174.965 129.402C173.147 130.288 172.482 132.304 173.391 134.175C174.658 136.78 178.363 136.822 179.75 134.247C180.594 132.681 180.117 130.632 178.683 129.66C177.731 129.014 176.008 128.895 174.965 129.402ZM177.259 134.163C178.332 133.704 178.548 132.273 177.679 131.382C176.441 130.114 174.596 131.311 175.076 133.073C175.372 134.162 176.245 134.598 177.259 134.163Z" fill="#3E4263"/>
<path fill-rule="evenodd" clip-rule="evenodd" d="M201.589 129.422C200.155 130.089 199.322 132 199.78 133.568C200.59 136.34 204.417 137.05 206.128 134.746C207.906 132.354 206.262 129.067 203.293 129.079C202.715 129.081 202.022 129.22 201.589 129.422ZM203.873 134.182C204.988 133.704 205.221 132.29 204.336 131.382C203.277 130.297 201.709 130.947 201.709 132.471C201.709 133.436 201.956 133.871 202.681 134.182C203.197 134.403 203.356 134.403 203.873 134.182Z" fill="#3E4263"/>
<path d="M113.185 89.2494C114.321 85.5107 117.834 82.8112 122.607 82.008C124.376 81.7105 127.433 81.8018 129.36 82.2098C134.939 83.3908 137.973 86.5554 138.551 91.7943L138.664 92.8212H135.016H131.369L131.261 92.0145C131.128 91.0201 130.753 90.2359 130.039 89.4569C128.922 88.2393 127.16 87.7295 124.491 87.8513C123.107 87.9145 122.735 88.0014 121.932 88.4509C120.578 89.2087 120.084 90.0473 120.084 91.5882C120.084 92.626 120.144 92.8585 120.519 93.2708C121.432 94.274 122.423 94.6411 128.671 96.2902C133.925 97.677 135.278 98.2956 137.091 100.137C139.063 102.141 139.825 104.273 139.636 107.254C139.251 113.304 134.538 117.08 126.966 117.406C123.349 117.562 120.686 117.079 117.993 115.779C115.415 114.535 113.732 112.867 112.618 110.451C112.139 109.413 111.634 107.15 111.634 106.044V105.322H115.268H118.903L118.997 106.381C119.192 108.587 120.682 110.329 123.017 111.081C124.749 111.639 127.572 111.64 129.318 111.082C131.414 110.413 132.411 109.256 132.436 107.465C132.453 106.218 132.025 105.428 130.921 104.665C129.782 103.878 128.66 103.476 124.478 102.356C120.623 101.324 119.315 100.874 117.633 100.004C115.354 98.8246 113.839 97.093 113.163 94.8935C112.698 93.3839 112.708 90.8178 113.185 89.2494Z" fill="#3E4263"/>
<path d="M142.123 88.3565V85.4991V82.6417H145.434H148.744V85.4991V88.3565H145.434H142.123Z" fill="#3E4263"/>
<path d="M178.537 116.752V99.6968V82.6417H181.934H185.332V89.0083V95.375L185.833 94.6785C187.463 92.412 189.699 91.3389 192.736 91.3642C196.491 91.3953 198.945 92.7344 200.172 95.4218C201.092 97.4375 201.174 98.461 201.18 108.05L201.186 116.76L197.832 116.711L194.479 116.663L194.391 108.269L194.304 99.8754L193.848 98.8769C193.279 97.6345 192.605 97.1287 191.186 96.8796C190.282 96.7208 189.877 96.739 188.917 96.9817C187.503 97.3394 186.868 97.7773 186.286 98.7953C185.437 100.28 185.338 101.378 185.335 109.385L185.332 116.752H181.934H178.537Z" fill="#3E4263"/>
<path d="M206.413 91.9282V88.2672V84.6061H209.723H213.034V88.2672V91.9282H215.473H217.912V94.2499V96.5715H215.463H213.015L213.068 103.313C213.11 108.61 213.172 110.158 213.361 110.534C213.724 111.257 214.464 111.486 216.3 111.446L217.912 111.411V114.057V116.703L217.104 116.817C215.855 116.992 212.376 116.949 211.132 116.742C209.635 116.493 208.295 115.815 207.56 114.934C206.424 113.575 206.413 113.473 206.413 104.576V96.5715H204.41H202.406V94.2499V91.9282H204.41H206.413Z" fill="#3E4263"/>
<path d="M142.123 116.752V104.34V91.9282H145.434H148.744V104.34V116.752H145.434H142.123Z" fill="#3E4263"/>
<path fill-rule="evenodd" clip-rule="evenodd" d="M160.591 91.403C156.637 91.8727 153.576 94.7353 152.201 99.2503C151.839 100.44 151.793 100.938 151.793 103.715C151.793 107.319 151.974 108.261 153.131 110.68C153.624 111.712 154.171 112.52 154.839 113.205C158.376 116.832 165.11 116.944 168.244 113.429L169.129 112.437V114.576C169.129 117.95 168.382 119.785 166.629 120.72C165.524 121.309 162.941 121.384 161.597 120.865C160.495 120.439 159.47 119.4 159.28 118.517L159.17 118.002H155.771H152.372L152.496 118.761C152.847 120.927 154.268 122.978 156.262 124.198C160.186 126.599 166.987 126.558 171.009 124.108C172.524 123.186 173.887 121.698 174.551 120.243C175.523 118.115 175.562 117.49 175.569 104.117L175.575 91.9282H172.359H169.142L169.092 93.4562L169.041 94.984L168.406 94.11C166.899 92.0381 163.923 91.0073 160.591 91.403ZM168.609 100.261C168.104 98.6176 166.87 97.2739 165.482 96.8562C162.297 95.8982 159.694 97.37 158.72 100.679C158.365 101.888 158.333 104.824 158.66 106.215C159.144 108.27 160.501 110.025 161.952 110.47C162.901 110.762 164.584 110.732 165.48 110.408C167.1 109.822 168.375 108.252 168.883 106.215C169.262 104.698 169.136 101.98 168.609 100.261Z" fill="#3E4263"/>
<path d="M0.477051 82.3094L0.86906 82.2524C1.08475 82.221 2.73015 82.2187 4.52573 82.2474L7.79055 82.2994L7.83603 89.2136L7.88168 96.1278L14.2537 89.202L20.6258 82.2764L25.1146 82.2664C27.5834 82.2608 29.6328 82.2866 29.6687 82.3233C29.7046 82.3601 26.8673 85.3817 23.3634 89.0379L16.993 95.6856L17.3044 96.1731C17.5629 96.5782 22.7002 104.023 29.6877 114.118L31.1402 116.216L26.48 116.208L21.8198 116.2L16.8583 108.596L11.8967 100.993L9.85218 103.202L7.80746 105.412L7.80101 110.814L7.79456 116.216H4.13581H0.477051V99.2629V82.3094Z" fill="#427BFD"/>
<path fill-rule="evenodd" clip-rule="evenodd" d="M38.8694 91.0339C35.5718 91.5088 32.488 93.4658 30.7052 96.2148C29.0544 98.76 28.4273 101.256 28.5768 104.686C28.6878 107.234 28.9754 108.452 29.9497 110.501C30.5214 111.704 30.9649 112.319 32.0823 113.458C34.4852 115.908 36.808 116.801 40.8105 116.815C43.3807 116.824 44.5994 116.569 46.56 115.61C48.0841 114.865 49.0557 114.072 49.9837 112.818C50.6661 111.896 52.0481 109.162 52.0481 108.734C52.0481 108.598 51.1411 108.537 49.1298 108.538L46.2115 108.54L45.8193 109.244C44.4151 111.765 39.9425 112.525 37.3355 110.687C36.2379 109.913 35.5283 108.468 35.2488 106.44L35.1445 105.683L43.8141 105.636L52.4837 105.59L52.4394 103.607C52.3016 97.424 48.8831 92.5001 43.8594 91.2491C42.7287 90.9675 40.1136 90.8548 38.8694 91.0339ZM45.6677 100.724C45.1848 98.66 44.167 97.1273 42.9012 96.5582C42.1724 96.2305 40.5977 96.0167 39.8522 96.1444C37.1914 96.5998 35.8503 97.9335 35.2476 100.724L35.1415 101.215H40.462H45.7826L45.6677 100.724Z" fill="#427BFD"/>
<path fill-rule="evenodd" clip-rule="evenodd" d="M63.8472 91.1779C59.889 91.9069 56.2764 95.1713 54.9268 99.2382C53.2727 104.223 54.4193 110.086 57.7063 113.451C59.9958 115.795 62.5834 116.791 66.4218 116.807C72.0827 116.83 75.5225 114.547 77.4688 109.475L77.8286 108.537H74.8737H71.9188L71.6679 109.028C71.3926 109.567 70.5088 110.455 69.8056 110.9C69.1394 111.321 67.5936 111.752 66.7472 111.752C63.3895 111.752 61.376 109.956 60.9936 106.62L60.8857 105.68H69.5573H78.2291L78.1327 103.492C78.0172 100.866 77.6996 99.5097 76.7004 97.3752C75.0155 93.7765 71.9887 91.5226 68.191 91.0388C66.4653 90.8189 65.6548 90.845 63.8472 91.1779ZM69.5434 97.1416C69.2052 96.8559 68.6388 96.536 68.2849 96.4308C67.2974 96.1373 65.8073 96.0428 64.9664 96.2205C63.2906 96.5744 61.7386 97.9871 61.2213 99.6288C61.0278 100.243 60.8453 100.621 60.9554 100.853C61.1561 101.276 62.3289 101.215 66.1798 101.215H71.4261L71.3053 100.545C71.1076 99.447 70.2021 97.6983 69.5434 97.1416Z" fill="#427BFD"/>
<path fill-rule="evenodd" clip-rule="evenodd" d="M92.9913 91.0384C90.9074 91.3765 89.2 92.326 88.0921 93.7626L87.4161 94.6393V93.1052V91.5711H84.1929H80.9697V108.18C80.9697 119.13 81.0291 124.79 81.1439 124.793C81.2397 124.795 82.6902 124.797 84.3671 124.797C86.044 124.797 87.4945 124.795 87.5903 124.793C87.7027 124.79 87.7645 122.761 87.7645 119.073V113.358L88.4179 114.102C90.9304 116.963 95.7925 117.718 99.5583 115.834C101.255 114.984 103.144 113.006 104.022 111.158C106.09 106.803 106.011 100.822 103.827 96.4823C103.093 95.0236 101.184 92.9593 99.8957 92.2307C98.0606 91.1927 95.1442 90.6893 92.9913 91.0384ZM96.5032 97.4343C96.0286 96.997 95.3381 96.5489 94.9691 96.4389C91.9733 95.5451 89.5758 96.6144 88.3257 99.402C87.1115 102.11 87.3096 106.932 88.7308 109.259C89.735 110.904 91.0793 111.627 93.1655 111.645C94.3888 111.656 94.7937 111.584 95.4928 111.233C97.74 110.105 98.7937 107.819 98.7937 104.072C98.7937 100.986 98.0649 98.8737 96.5032 97.4343Z" fill="#427BFD"/>
<path d="M91.6039 28.5487C93.4528 24.4986 97.3685 21.4062 101.549 20.6944C102.065 20.6067 102.663 20.5254 102.879 20.514L103.271 20.4931V25.0189V29.5445L102.53 29.7706C100.918 30.2629 99.6258 31.7113 99.2457 33.4525C99.1291 33.9861 98.9482 34.4231 98.8437 34.4233C98.7392 34.4235 96.7915 34.4437 94.5156 34.4679L90.3777 34.5122V33.5139C90.3779 32.2549 90.927 30.0316 91.6039 28.5487Z" fill="#427BFD"/>
<path d="M104.534 29.4977C104.367 29.4487 104.316 28.3819 104.316 24.9403V20.447L105.405 20.5697C111.149 21.2173 115.861 25.4669 117.201 31.2084C117.657 33.166 117.678 34.422 117.252 34.4253C117.085 34.4265 115.112 34.4322 112.868 34.4381L108.79 34.4487L108.723 33.7661C108.53 31.7864 106.993 30.2204 104.534 29.4977Z" fill="#427BFD"/>
<path d="M102.21 48.276C96.3978 47.6018 91.3197 42.5149 90.476 36.5213L90.3564 35.6731H94.8018H99.247L99.5816 36.4479C100.157 37.7813 101.909 39.2273 102.966 39.2409C103.248 39.2444 103.271 39.5832 103.271 43.8218V48.3989L102.21 48.276Z" fill="#427BFD"/>
<path d="M106.657 38.5162C107.375 38.0158 108.249 36.8414 108.418 36.1506L108.535 35.6731H113.054H117.573L117.461 36.3428C116.876 39.8325 115.493 42.5117 113.139 44.7146C111.861 45.9108 110.547 46.766 109.014 47.4009C107.793 47.9063 105.921 48.3451 104.966 48.3497L104.31 48.3528L104.357 43.8631L104.403 39.3734L105.22 39.1609C105.67 39.0439 106.316 38.7539 106.657 38.5162Z" fill="#427BFD"/>
</svg>
